<?xml version="1.0" encoding="utf-8" standalone="no"?>
<!DOCTYPE svg PUBLIC "-//W3C//DTD SVG 1.1//EN"
  "http://www.w3.org/Graphics/SVG/1.1/DTD/svg11.dtd">
<svg xmlns:xlink="http://www.w3.org/1999/xlink" width="460.8pt" height="345.6pt" viewBox="0 0 460.8 345.6" xmlns="http://www.w3.org/2000/svg" version="1.1">
 <metadata>
  <rdf:RDF xmlns:dc="http://purl.org/dc/elements/1.1/" xmlns:cc="http://creativecommons.org/ns#" xmlns:rdf="http://www.w3.org/1999/02/22-rdf-syntax-ns#">
   <cc:Work>
    <dc:type rdf:resource="http://purl.org/dc/dcmitype/StillImage"/>
    <dc:date>2023-04-25T16:25:49.761909</dc:date>
    <dc:format>image/svg+xml</dc:format>
    <dc:creator>
     <cc:Agent>
      <dc:title>Matplotlib v3.7.0, https://matplotlib.org/</dc:title>
     </cc:Agent>
    </dc:creator>
   </cc:Work>
  </rdf:RDF>
 </metadata>
 <defs>
  <style type="text/css">*{stroke-linejoin: round; stroke-linecap: butt}</style>
 </defs>
 <g id="figure_1">
  <g id="patch_1">
   <path d="M 0 345.6 
L 460.8 345.6 
L 460.8 0 
L 0 0 
z
" style="fill: #ffffff"/>
  </g>
  <g id="axes_1">
   <g id="patch_2">
    <path d="M 58.97 292.66 
L 440.505 292.66 
L 440.505 34.56 
L 58.97 34.56 
z
" style="fill: #ffffff"/>
   </g>
   <g id="matplotlib.axis_1">
    <g id="xtick_1">
     <g id="line2d_1">
      <defs>
       <path id="ma61d21575a" d="M 0 0 
L 0 8 
" style="stroke: #000000"/>
      </defs>
      <g>
       <use xlink:href="#ma61d21575a" x="58.97" y="292.66" style="stroke: #000000"/>
      </g>
     </g>
     <g id="text_1">
      <!-- 0.0 -->
      <g transform="translate(49.428125 313.278125) scale(0.12 -0.12)">
       <defs>
        <path id="DejaVuSans-30" d="M 2034 4250 
Q 1547 4250 1301 3770 
Q 1056 3291 1056 2328 
Q 1056 1369 1301 889 
Q 1547 409 2034 409 
Q 2525 409 2770 889 
Q 3016 1369 3016 2328 
Q 3016 3291 2770 3770 
Q 2525 4250 2034 4250 
z
M 2034 4750 
Q 2819 4750 3233 4129 
Q 3647 3509 3647 2328 
Q 3647 1150 3233 529 
Q 2819 -91 2034 -91 
Q 1250 -91 836 529 
Q 422 1150 422 2328 
Q 422 3509 836 4129 
Q 1250 4750 2034 4750 
z
" transform="scale(0.015625)"/>
        <path id="DejaVuSans-2e" d="M 684 794 
L 1344 794 
L 1344 0 
L 684 0 
L 684 794 
z
" transform="scale(0.015625)"/>
       </defs>
       <use xlink:href="#DejaVuSans-30"/>
       <use xlink:href="#DejaVuSans-2e" x="63.623047"/>
       <use xlink:href="#DejaVuSans-30" x="95.410156"/>
      </g>
     </g>
    </g>
    <g id="xtick_2">
     <g id="line2d_2">
      <g>
       <use xlink:href="#ma61d21575a" x="135.277" y="292.66" style="stroke: #000000"/>
      </g>
     </g>
     <g id="text_2">
      <!-- 0.2 -->
      <g transform="translate(125.735125 313.278125) scale(0.12 -0.12)">
       <defs>
        <path id="DejaVuSans-32" d="M 1228 531 
L 3431 531 
L 3431 0 
L 469 0 
L 469 531 
Q 828 903 1448 1529 
Q 2069 2156 2228 2338 
Q 2531 2678 2651 2914 
Q 2772 3150 2772 3378 
Q 2772 3750 2511 3984 
Q 2250 4219 1831 4219 
Q 1534 4219 1204 4116 
Q 875 4013 500 3803 
L 500 4441 
Q 881 4594 1212 4672 
Q 1544 4750 1819 4750 
Q 2544 4750 2975 4387 
Q 3406 4025 3406 3419 
Q 3406 3131 3298 2873 
Q 3191 2616 2906 2266 
Q 2828 2175 2409 1742 
Q 1991 1309 1228 531 
z
" transform="scale(0.015625)"/>
       </defs>
       <use xlink:href="#DejaVuSans-30"/>
       <use xlink:href="#DejaVuSans-2e" x="63.623047"/>
       <use xlink:href="#DejaVuSans-32" x="95.410156"/>
      </g>
     </g>
    </g>
    <g id="xtick_3">
     <g id="line2d_3">
      <g>
       <use xlink:href="#ma61d21575a" x="211.584" y="292.66" style="stroke: #000000"/>
      </g>
     </g>
     <g id="text_3">
      <!-- 0.4 -->
      <g transform="translate(202.042125 313.278125) scale(0.12 -0.12)">
       <defs>
        <path id="DejaVuSans-34" d="M 2419 4116 
L 825 1625 
L 2419 1625 
L 2419 4116 
z
M 2253 4666 
L 3047 4666 
L 3047 1625 
L 3713 1625 
L 3713 1100 
L 3047 1100 
L 3047 0 
L 2419 0 
L 2419 1100 
L 313 1100 
L 313 1709 
L 2253 4666 
z
" transform="scale(0.015625)"/>
       </defs>
       <use xlink:href="#DejaVuSans-30"/>
       <use xlink:href="#DejaVuSans-2e" x="63.623047"/>
       <use xlink:href="#DejaVuSans-34" x="95.410156"/>
      </g>
     </g>
    </g>
    <g id="xtick_4">
     <g id="line2d_4">
      <g>
       <use xlink:href="#ma61d21575a" x="287.891" y="292.66" style="stroke: #000000"/>
      </g>
     </g>
     <g id="text_4">
      <!-- 0.6 -->
      <g transform="translate(278.349125 313.278125) scale(0.12 -0.12)">
       <defs>
        <path id="DejaVuSans-36" d="M 2113 2584 
Q 1688 2584 1439 2293 
Q 1191 2003 1191 1497 
Q 1191 994 1439 701 
Q 1688 409 2113 409 
Q 2538 409 2786 701 
Q 3034 994 3034 1497 
Q 3034 2003 2786 2293 
Q 2538 2584 2113 2584 
z
M 3366 4563 
L 3366 3988 
Q 3128 4100 2886 4159 
Q 2644 4219 2406 4219 
Q 1781 4219 1451 3797 
Q 1122 3375 1075 2522 
Q 1259 2794 1537 2939 
Q 1816 3084 2150 3084 
Q 2853 3084 3261 2657 
Q 3669 2231 3669 1497 
Q 3669 778 3244 343 
Q 2819 -91 2113 -91 
Q 1303 -91 875 529 
Q 447 1150 447 2328 
Q 447 3434 972 4092 
Q 1497 4750 2381 4750 
Q 2619 4750 2861 4703 
Q 3103 4656 3366 4563 
z
" transform="scale(0.015625)"/>
       </defs>
       <use xlink:href="#DejaVuSans-30"/>
       <use xlink:href="#DejaVuSans-2e" x="63.623047"/>
       <use xlink:href="#DejaVuSans-36" x="95.410156"/>
      </g>
     </g>
    </g>
    <g id="xtick_5">
     <g id="line2d_5">
      <g>
       <use xlink:href="#ma61d21575a" x="364.198" y="292.66" style="stroke: #000000"/>
      </g>
     </g>
     <g id="text_5">
      <!-- 0.8 -->
      <g transform="translate(354.656125 313.278125) scale(0.12 -0.12)">
       <defs>
        <path id="DejaVuSans-38" d="M 2034 2216 
Q 1584 2216 1326 1975 
Q 1069 1734 1069 1313 
Q 1069 891 1326 650 
Q 1584 409 2034 409 
Q 2484 409 2743 651 
Q 3003 894 3003 1313 
Q 3003 1734 2745 1975 
Q 2488 2216 2034 2216 
z
M 1403 2484 
Q 997 2584 770 2862 
Q 544 3141 544 3541 
Q 544 4100 942 4425 
Q 1341 4750 2034 4750 
Q 2731 4750 3128 4425 
Q 3525 4100 3525 3541 
Q 3525 3141 3298 2862 
Q 3072 2584 2669 2484 
Q 3125 2378 3379 2068 
Q 3634 1759 3634 1313 
Q 3634 634 3220 271 
Q 2806 -91 2034 -91 
Q 1263 -91 848 271 
Q 434 634 434 1313 
Q 434 1759 690 2068 
Q 947 2378 1403 2484 
z
M 1172 3481 
Q 1172 3119 1398 2916 
Q 1625 2713 2034 2713 
Q 2441 2713 2670 2916 
Q 2900 3119 2900 3481 
Q 2900 3844 2670 4047 
Q 2441 4250 2034 4250 
Q 1625 4250 1398 4047 
Q 1172 3844 1172 3481 
z
" transform="scale(0.015625)"/>
       </defs>
       <use xlink:href="#DejaVuSans-30"/>
       <use xlink:href="#DejaVuSans-2e" x="63.623047"/>
       <use xlink:href="#DejaVuSans-38" x="95.410156"/>
      </g>
     </g>
    </g>
    <g id="xtick_6">
     <g id="line2d_6">
      <g>
       <use xlink:href="#ma61d21575a" x="440.505" y="292.66" style="stroke: #000000"/>
      </g>
     </g>
     <g id="text_6">
      <!-- 1.0 -->
      <g transform="translate(430.963125 313.278125) scale(0.12 -0.12)">
       <defs>
        <path id="DejaVuSans-31" d="M 794 531 
L 1825 531 
L 1825 4091 
L 703 3866 
L 703 4441 
L 1819 4666 
L 2450 4666 
L 2450 531 
L 3481 531 
L 3481 0 
L 794 0 
L 794 531 
z
" transform="scale(0.015625)"/>
       </defs>
       <use xlink:href="#DejaVuSans-31"/>
       <use xlink:href="#DejaVuSans-2e" x="63.623047"/>
       <use xlink:href="#DejaVuSans-30" x="95.410156"/>
      </g>
     </g>
    </g>
    <g id="text_7">
     <!-- False Positive Rate  -->
     <g transform="translate(182.459844 330.411562) scale(0.14 -0.14)">
      <defs>
       <path id="DejaVuSans-46" d="M 628 4666 
L 3309 4666 
L 3309 4134 
L 1259 4134 
L 1259 2759 
L 3109 2759 
L 3109 2228 
L 1259 2228 
L 1259 0 
L 628 0 
L 628 4666 
z
" transform="scale(0.015625)"/>
       <path id="DejaVuSans-61" d="M 2194 1759 
Q 1497 1759 1228 1600 
Q 959 1441 959 1056 
Q 959 750 1161 570 
Q 1363 391 1709 391 
Q 2188 391 2477 730 
Q 2766 1069 2766 1631 
L 2766 1759 
L 2194 1759 
z
M 3341 1997 
L 3341 0 
L 2766 0 
L 2766 531 
Q 2569 213 2275 61 
Q 1981 -91 1556 -91 
Q 1019 -91 701 211 
Q 384 513 384 1019 
Q 384 1609 779 1909 
Q 1175 2209 1959 2209 
L 2766 2209 
L 2766 2266 
Q 2766 2663 2505 2880 
Q 2244 3097 1772 3097 
Q 1472 3097 1187 3025 
Q 903 2953 641 2809 
L 641 3341 
Q 956 3463 1253 3523 
Q 1550 3584 1831 3584 
Q 2591 3584 2966 3190 
Q 3341 2797 3341 1997 
z
" transform="scale(0.015625)"/>
       <path id="DejaVuSans-6c" d="M 603 4863 
L 1178 4863 
L 1178 0 
L 603 0 
L 603 4863 
z
" transform="scale(0.015625)"/>
       <path id="DejaVuSans-73" d="M 2834 3397 
L 2834 2853 
Q 2591 2978 2328 3040 
Q 2066 3103 1784 3103 
Q 1356 3103 1142 2972 
Q 928 2841 928 2578 
Q 928 2378 1081 2264 
Q 1234 2150 1697 2047 
L 1894 2003 
Q 2506 1872 2764 1633 
Q 3022 1394 3022 966 
Q 3022 478 2636 193 
Q 2250 -91 1575 -91 
Q 1294 -91 989 -36 
Q 684 19 347 128 
L 347 722 
Q 666 556 975 473 
Q 1284 391 1588 391 
Q 1994 391 2212 530 
Q 2431 669 2431 922 
Q 2431 1156 2273 1281 
Q 2116 1406 1581 1522 
L 1381 1569 
Q 847 1681 609 1914 
Q 372 2147 372 2553 
Q 372 3047 722 3315 
Q 1072 3584 1716 3584 
Q 2034 3584 2315 3537 
Q 2597 3491 2834 3397 
z
" transform="scale(0.015625)"/>
       <path id="DejaVuSans-65" d="M 3597 1894 
L 3597 1613 
L 953 1613 
Q 991 1019 1311 708 
Q 1631 397 2203 397 
Q 2534 397 2845 478 
Q 3156 559 3463 722 
L 3463 178 
Q 3153 47 2828 -22 
Q 2503 -91 2169 -91 
Q 1331 -91 842 396 
Q 353 884 353 1716 
Q 353 2575 817 3079 
Q 1281 3584 2069 3584 
Q 2775 3584 3186 3129 
Q 3597 2675 3597 1894 
z
M 3022 2063 
Q 3016 2534 2758 2815 
Q 2500 3097 2075 3097 
Q 1594 3097 1305 2825 
Q 1016 2553 972 2059 
L 3022 2063 
z
" transform="scale(0.015625)"/>
       <path id="DejaVuSans-20" transform="scale(0.015625)"/>
       <path id="DejaVuSans-50" d="M 1259 4147 
L 1259 2394 
L 2053 2394 
Q 2494 2394 2734 2622 
Q 2975 2850 2975 3272 
Q 2975 3691 2734 3919 
Q 2494 4147 2053 4147 
L 1259 4147 
z
M 628 4666 
L 2053 4666 
Q 2838 4666 3239 4311 
Q 3641 3956 3641 3272 
Q 3641 2581 3239 2228 
Q 2838 1875 2053 1875 
L 1259 1875 
L 1259 0 
L 628 0 
L 628 4666 
z
" transform="scale(0.015625)"/>
       <path id="DejaVuSans-6f" d="M 1959 3097 
Q 1497 3097 1228 2736 
Q 959 2375 959 1747 
Q 959 1119 1226 758 
Q 1494 397 1959 397 
Q 2419 397 2687 759 
Q 2956 1122 2956 1747 
Q 2956 2369 2687 2733 
Q 2419 3097 1959 3097 
z
M 1959 3584 
Q 2709 3584 3137 3096 
Q 3566 2609 3566 1747 
Q 3566 888 3137 398 
Q 2709 -91 1959 -91 
Q 1206 -91 779 398 
Q 353 888 353 1747 
Q 353 2609 779 3096 
Q 1206 3584 1959 3584 
z
" transform="scale(0.015625)"/>
       <path id="DejaVuSans-69" d="M 603 3500 
L 1178 3500 
L 1178 0 
L 603 0 
L 603 3500 
z
M 603 4863 
L 1178 4863 
L 1178 4134 
L 603 4134 
L 603 4863 
z
" transform="scale(0.015625)"/>
       <path id="DejaVuSans-74" d="M 1172 4494 
L 1172 3500 
L 2356 3500 
L 2356 3053 
L 1172 3053 
L 1172 1153 
Q 1172 725 1289 603 
Q 1406 481 1766 481 
L 2356 481 
L 2356 0 
L 1766 0 
Q 1100 0 847 248 
Q 594 497 594 1153 
L 594 3053 
L 172 3053 
L 172 3500 
L 594 3500 
L 594 4494 
L 1172 4494 
z
" transform="scale(0.015625)"/>
       <path id="DejaVuSans-76" d="M 191 3500 
L 800 3500 
L 1894 563 
L 2988 3500 
L 3597 3500 
L 2284 0 
L 1503 0 
L 191 3500 
z
" transform="scale(0.015625)"/>
       <path id="DejaVuSans-52" d="M 2841 2188 
Q 3044 2119 3236 1894 
Q 3428 1669 3622 1275 
L 4263 0 
L 3584 0 
L 2988 1197 
Q 2756 1666 2539 1819 
Q 2322 1972 1947 1972 
L 1259 1972 
L 1259 0 
L 628 0 
L 628 4666 
L 2053 4666 
Q 2853 4666 3247 4331 
Q 3641 3997 3641 3322 
Q 3641 2881 3436 2590 
Q 3231 2300 2841 2188 
z
M 1259 4147 
L 1259 2491 
L 2053 2491 
Q 2509 2491 2742 2702 
Q 2975 2913 2975 3322 
Q 2975 3731 2742 3939 
Q 2509 4147 2053 4147 
L 1259 4147 
z
" transform="scale(0.015625)"/>
      </defs>
      <use xlink:href="#DejaVuSans-46"/>
      <use xlink:href="#DejaVuSans-61" x="48.394531"/>
      <use xlink:href="#DejaVuSans-6c" x="109.673828"/>
      <use xlink:href="#DejaVuSans-73" x="137.457031"/>
      <use xlink:href="#DejaVuSans-65" x="189.556641"/>
      <use xlink:href="#DejaVuSans-20" x="251.080078"/>
      <use xlink:href="#DejaVuSans-50" x="282.867188"/>
      <use xlink:href="#DejaVuSans-6f" x="339.544922"/>
      <use xlink:href="#DejaVuSans-73" x="400.726562"/>
      <use xlink:href="#DejaVuSans-69" x="452.826172"/>
      <use xlink:href="#DejaVuSans-74" x="480.609375"/>
      <use xlink:href="#DejaVuSans-69" x="519.818359"/>
      <use xlink:href="#DejaVuSans-76" x="547.601562"/>
      <use xlink:href="#DejaVuSans-65" x="606.78125"/>
      <use xlink:href="#DejaVuSans-20" x="668.304688"/>
      <use xlink:href="#DejaVuSans-52" x="700.091797"/>
      <use xlink:href="#DejaVuSans-61" x="767.324219"/>
      <use xlink:href="#DejaVuSans-74" x="828.603516"/>
      <use xlink:href="#DejaVuSans-65" x="867.8125"/>
      <use xlink:href="#DejaVuSans-20" x="929.335938"/>
     </g>
    </g>
   </g>
   <g id="matplotlib.axis_2">
    <g id="ytick_1">
     <g id="line2d_7">
      <defs>
       <path id="m715b0969a7" d="M 0 0 
L -8 0 
" style="stroke: #000000"/>
      </defs>
      <g>
       <use xlink:href="#m715b0969a7" x="58.97" y="292.66" style="stroke: #000000"/>
      </g>
     </g>
     <g id="text_8">
      <!-- 0.0 -->
      <g transform="translate(28.38625 297.219062) scale(0.12 -0.12)">
       <use xlink:href="#DejaVuSans-30"/>
       <use xlink:href="#DejaVuSans-2e" x="63.623047"/>
       <use xlink:href="#DejaVuSans-30" x="95.410156"/>
      </g>
     </g>
    </g>
    <g id="ytick_2">
     <g id="line2d_8">
      <g>
       <use xlink:href="#m715b0969a7" x="58.97" y="241.04" style="stroke: #000000"/>
      </g>
     </g>
     <g id="text_9">
      <!-- 0.2 -->
      <g transform="translate(28.38625 245.599062) scale(0.12 -0.12)">
       <use xlink:href="#DejaVuSans-30"/>
       <use xlink:href="#DejaVuSans-2e" x="63.623047"/>
       <use xlink:href="#DejaVuSans-32" x="95.410156"/>
      </g>
     </g>
    </g>
    <g id="ytick_3">
     <g id="line2d_9">
      <g>
       <use xlink:href="#m715b0969a7" x="58.97" y="189.42" style="stroke: #000000"/>
      </g>
     </g>
     <g id="text_10">
      <!-- 0.4 -->
      <g transform="translate(28.38625 193.979062) scale(0.12 -0.12)">
       <use xlink:href="#DejaVuSans-30"/>
       <use xlink:href="#DejaVuSans-2e" x="63.623047"/>
       <use xlink:href="#DejaVuSans-34" x="95.410156"/>
      </g>
     </g>
    </g>
    <g id="ytick_4">
     <g id="line2d_10">
      <g>
       <use xlink:href="#m715b0969a7" x="58.97" y="137.8" style="stroke: #000000"/>
      </g>
     </g>
     <g id="text_11">
      <!-- 0.6 -->
      <g transform="translate(28.38625 142.359062) scale(0.12 -0.12)">
       <use xlink:href="#DejaVuSans-30"/>
       <use xlink:href="#DejaVuSans-2e" x="63.623047"/>
       <use xlink:href="#DejaVuSans-36" x="95.410156"/>
      </g>
     </g>
    </g>
    <g id="ytick_5">
     <g id="line2d_11">
      <g>
       <use xlink:href="#m715b0969a7" x="58.97" y="86.18" style="stroke: #000000"/>
      </g>
     </g>
     <g id="text_12">
      <!-- 0.8 -->
      <g transform="translate(28.38625 90.739063) scale(0.12 -0.12)">
       <use xlink:href="#DejaVuSans-30"/>
       <use xlink:href="#DejaVuSans-2e" x="63.623047"/>
       <use xlink:href="#DejaVuSans-38" x="95.410156"/>
      </g>
     </g>
    </g>
    <g id="ytick_6">
     <g id="line2d_12">
      <g>
       <use xlink:href="#m715b0969a7" x="58.97" y="34.56" style="stroke: #000000"/>
      </g>
     </g>
     <g id="text_13">
      <!-- 1.0 -->
      <g transform="translate(28.38625 39.119062) scale(0.12 -0.12)">
       <use xlink:href="#DejaVuSans-31"/>
       <use xlink:href="#DejaVuSans-2e" x="63.623047"/>
       <use xlink:href="#DejaVuSans-30" x="95.410156"/>
      </g>
     </g>
    </g>
    <g id="text_14">
     <!-- True Positive Rate -->
     <g transform="translate(21.474688 225.951562) rotate(-90) scale(0.14 -0.14)">
      <defs>
       <path id="DejaVuSans-54" d="M -19 4666 
L 3928 4666 
L 3928 4134 
L 2272 4134 
L 2272 0 
L 1638 0 
L 1638 4134 
L -19 4134 
L -19 4666 
z
" transform="scale(0.015625)"/>
       <path id="DejaVuSans-72" d="M 2631 2963 
Q 2534 3019 2420 3045 
Q 2306 3072 2169 3072 
Q 1681 3072 1420 2755 
Q 1159 2438 1159 1844 
L 1159 0 
L 581 0 
L 581 3500 
L 1159 3500 
L 1159 2956 
Q 1341 3275 1631 3429 
Q 1922 3584 2338 3584 
Q 2397 3584 2469 3576 
Q 2541 3569 2628 3553 
L 2631 2963 
z
" transform="scale(0.015625)"/>
       <path id="DejaVuSans-75" d="M 544 1381 
L 544 3500 
L 1119 3500 
L 1119 1403 
Q 1119 906 1312 657 
Q 1506 409 1894 409 
Q 2359 409 2629 706 
Q 2900 1003 2900 1516 
L 2900 3500 
L 3475 3500 
L 3475 0 
L 2900 0 
L 2900 538 
Q 2691 219 2414 64 
Q 2138 -91 1772 -91 
Q 1169 -91 856 284 
Q 544 659 544 1381 
z
M 1991 3584 
L 1991 3584 
z
" transform="scale(0.015625)"/>
      </defs>
      <use xlink:href="#DejaVuSans-54"/>
      <use xlink:href="#DejaVuSans-72" x="46.333984"/>
      <use xlink:href="#DejaVuSans-75" x="87.447266"/>
      <use xlink:href="#DejaVuSans-65" x="150.826172"/>
      <use xlink:href="#DejaVuSans-20" x="212.349609"/>
      <use xlink:href="#DejaVuSans-50" x="244.136719"/>
      <use xlink:href="#DejaVuSans-6f" x="300.814453"/>
      <use xlink:href="#DejaVuSans-73" x="361.996094"/>
      <use xlink:href="#DejaVuSans-69" x="414.095703"/>
      <use xlink:href="#DejaVuSans-74" x="441.878906"/>
      <use xlink:href="#DejaVuSans-69" x="481.087891"/>
      <use xlink:href="#DejaVuSans-76" x="508.871094"/>
      <use xlink:href="#DejaVuSans-65" x="568.050781"/>
      <use xlink:href="#DejaVuSans-20" x="629.574219"/>
      <use xlink:href="#DejaVuSans-52" x="661.361328"/>
      <use xlink:href="#DejaVuSans-61" x="728.59375"/>
      <use xlink:href="#DejaVuSans-74" x="789.873047"/>
      <use xlink:href="#DejaVuSans-65" x="829.082031"/>
     </g>
    </g>
   </g>
   <g id="line2d_13">
    <path d="M 58.97 292.66 
L 66.756429 270.000086 
L 74.542857 270.000086 
L 82.329286 270.000086 
L 90.115714 270.000086 
L 97.902143 261.396753 
L 105.688571 245.880213 
L 113.475 230.589743 
L 121.261429 230.589743 
L 129.047857 228.152132 
L 136.834286 215.544338 
L 144.620714 206.780111 
L 152.407143 206.780111 
L 160.193571 201.7615 
L 167.98 195.778273 
L 175.766429 183.368616 
L 183.552857 183.368616 
L 191.339286 172.888192 
L 199.125714 172.888192 
L 206.912143 167.582803 
L 214.698571 159.782448 
L 222.485 155.676311 
L 230.271429 152.558255 
L 238.057857 151.411144 
L 245.844286 151.411144 
L 253.630714 138.944132 
L 261.417143 138.944132 
L 269.203571 138.944132 
L 276.99 124.629451 
L 284.776429 123.338951 
L 292.562857 110.314026 
L 300.349286 102.714415 
L 308.135714 102.714415 
L 315.922143 91.668256 
L 323.708571 91.668256 
L 331.495 87.5178 
L 339.281429 86.2273 
L 347.067857 78.627689 
L 354.854286 78.627689 
L 362.640714 65.50444 
L 370.427143 58.965906 
L 378.213571 58.965906 
L 386 57.675406 
L 393.786429 52.08324 
L 401.572857 44.924968 
L 409.359286 43.777857 
L 417.145714 43.777857 
L 424.932143 43.777857 
L 432.718571 43.777857 
L 440.505 34.56 
" clip-path="url(#p156b48df4a)" style="fill: none; stroke: #000000; stroke-width: 2.5; stroke-linecap: square"/>
   </g>
   <g id="line2d_14">
    <path d="M 58.97 292.66 
L 66.756429 270.000086 
L 74.542857 270.000086 
L 82.329286 270.000086 
L 90.115714 270.000086 
L 97.902143 263.383341 
L 105.688571 248.755812 
L 113.475 239.213933 
L 121.261429 239.213933 
L 129.047857 239.213933 
L 136.834286 227.14841 
L 144.620714 216.971896 
L 152.407143 216.971896 
L 160.193571 208.225173 
L 167.98 201.303401 
L 175.766429 177.203639 
L 183.552857 177.203639 
L 191.339286 166.253942 
L 199.125714 165.106831 
L 206.912143 162.095664 
L 214.698571 149.018598 
L 222.485 143.621961 
L 230.271429 137.743017 
L 238.057857 136.595906 
L 245.844286 136.595906 
L 253.630714 128.53745 
L 261.417143 128.53745 
L 269.203571 128.53745 
L 276.99 116.466713 
L 284.776429 113.885713 
L 292.562857 106.064501 
L 300.349286 94.880167 
L 308.135714 94.880167 
L 315.922143 78.935323 
L 323.708571 78.935323 
L 331.495 70.63441 
L 339.281429 70.63441 
L 347.067857 64.18191 
L 354.854286 64.18191 
L 362.640714 53.00875 
L 370.427143 51.861639 
L 378.213571 51.861639 
L 386 51.861639 
L 393.786429 46.699639 
L 401.572857 41.95477 
L 409.359286 41.95477 
L 417.145714 41.95477 
L 424.932143 41.95477 
L 432.718571 41.95477 
L 440.505 34.56 
" clip-path="url(#p156b48df4a)" style="fill: none; stroke: #00ffff; stroke-width: 2.5; stroke-linecap: square"/>
   </g>
   <g id="line2d_15">
    <path d="M 58.97 292.66 
L 66.756429 271.474943 
L 74.542857 271.474943 
L 82.329286 271.474943 
L 90.115714 271.474943 
L 97.902143 259.430277 
L 105.688571 243.913737 
L 113.475 230.356969 
L 121.261429 230.356969 
L 129.047857 224.047858 
L 136.834286 211.669486 
L 144.620714 201.847534 
L 152.407143 201.847534 
L 160.193571 199.553311 
L 167.98 192.983493 
L 175.766429 185.641982 
L 183.552857 185.641982 
L 191.339286 178.911483 
L 199.125714 178.279402 
L 206.912143 172.341931 
L 214.698571 160.906148 
L 222.485 154.87743 
L 230.271429 148.764967 
L 238.057857 148.577684 
L 245.844286 148.320169 
L 253.630714 132.362874 
L 261.417143 132.105359 
L 269.203571 131.918076 
L 276.99 118.556839 
L 284.776429 118.556839 
L 292.562857 109.785376 
L 300.349286 103.982515 
L 308.135714 103.771821 
L 315.922143 93.949603 
L 323.708571 93.738909 
L 331.495 88.263422 
L 339.281429 86.972922 
L 347.067857 76.792311 
L 354.854286 76.792311 
L 362.640714 65.25863 
L 370.427143 58.720097 
L 378.213571 58.720097 
L 386 57.429597 
L 393.786429 53.558097 
L 401.572857 45.863514 
L 409.359286 44.716403 
L 417.145714 44.716403 
L 424.932143 44.716403 
L 432.718571 44.716403 
L 440.505 34.56 
" clip-path="url(#p156b48df4a)" style="fill: none; stroke: #a52a2a; stroke-width: 2.5; stroke-linecap: square"/>
   </g>
   <g id="line2d_16">
    <path d="M 58.97 292.66 
L 66.756429 244.799396 
L 74.542857 244.799396 
L 82.329286 244.799396 
L 90.115714 244.799396 
L 97.902143 226.646363 
L 105.688571 214.705979 
L 113.475 203.70414 
L 121.261429 203.70414 
L 129.047857 203.70414 
L 136.834286 195.903785 
L 144.620714 186.071404 
L 152.407143 186.071404 
L 160.193571 172.736237 
L 167.98 165.605899 
L 175.766429 152.872966 
L 183.552857 152.872966 
L 191.339286 143.589187 
L 199.125714 142.442076 
L 206.912143 130.827576 
L 214.698571 118.052929 
L 222.485 116.762429 
L 230.271429 99.835464 
L 238.057857 99.835464 
L 245.844286 99.835464 
L 253.630714 91.787437 
L 261.417143 91.787437 
L 269.203571 90.640326 
L 276.99 77.545382 
L 284.776429 76.044188 
L 292.562857 69.618237 
L 300.349286 66.826544 
L 308.135714 66.61585 
L 315.922143 61.501096 
L 323.708571 61.501096 
L 331.495 59.41544 
L 339.281429 58.12494 
L 347.067857 49.951773 
L 354.854286 49.951773 
L 362.640714 45.035583 
L 370.427143 43.888471 
L 378.213571 43.888471 
L 386 42.597971 
L 393.786429 42.597971 
L 401.572857 38.1734 
L 409.359286 37.141 
L 417.145714 37.141 
L 424.932143 37.141 
L 432.718571 37.141 
L 440.505 34.56 
" clip-path="url(#p156b48df4a)" style="fill: none; stroke: #00ff00; stroke-width: 2.5; stroke-linecap: square"/>
   </g>
   <g id="line2d_17">
    <path d="M 58.97 292.66 
L 66.756429 194.844197 
L 74.542857 194.844197 
L 82.329286 194.844197 
L 90.115714 194.844197 
L 97.902143 179.472908 
L 105.688571 147.859941 
L 113.475 134.133714 
L 121.261429 134.133714 
L 129.047857 130.405603 
L 136.834286 120.133744 
L 144.620714 106.376232 
L 152.407143 106.376232 
L 160.193571 99.350176 
L 167.98 94.657449 
L 175.766429 91.445538 
L 183.552857 91.445538 
L 191.339286 78.915956 
L 199.125714 78.915956 
L 206.912143 77.768845 
L 214.698571 72.565132 
L 222.485 72.565132 
L 230.271429 65.369617 
L 238.057857 65.369617 
L 245.844286 65.369617 
L 253.630714 55.713027 
L 261.417143 55.713027 
L 269.203571 55.713027 
L 276.99 50.01397 
L 284.776429 50.01397 
L 292.562857 47.719748 
L 300.349286 45.138748 
L 308.135714 45.138748 
L 315.922143 42.135403 
L 323.708571 42.135403 
L 331.495 42.135403 
L 339.281429 42.135403 
L 347.067857 36.973403 
L 354.854286 36.973403 
L 362.640714 36.034857 
L 370.427143 36.034857 
L 378.213571 36.034857 
L 386 36.034857 
L 393.786429 36.034857 
L 401.572857 36.034857 
L 409.359286 36.034857 
L 417.145714 36.034857 
L 424.932143 36.034857 
L 432.718571 36.034857 
L 440.505 34.56 
" clip-path="url(#p156b48df4a)" style="fill: none; stroke: #0000ff; stroke-width: 2.5; stroke-linecap: square"/>
   </g>
   <g id="line2d_18">
    <path d="M 58.97 292.66 
L 66.756429 189.010317 
L 74.542857 189.010317 
L 82.329286 189.010317 
L 90.115714 189.010317 
L 97.902143 176.85094 
L 105.688571 159.600698 
L 113.475 145.444304 
L 121.261429 145.444304 
L 129.047857 144.297193 
L 136.834286 132.137815 
L 144.620714 121.016051 
L 152.407143 121.016051 
L 160.193571 117.718107 
L 167.98 112.842885 
L 175.766429 101.09021 
L 183.552857 101.09021 
L 191.339286 87.528973 
L 199.125714 85.234751 
L 206.912143 81.650028 
L 214.698571 75.226206 
L 222.485 71.354706 
L 230.271429 63.533494 
L 238.057857 63.533494 
L 245.844286 63.533494 
L 253.630714 54.659025 
L 261.417143 54.659025 
L 269.203571 54.659025 
L 276.99 48.825146 
L 284.776429 48.825146 
L 292.562857 48.825146 
L 300.349286 47.678035 
L 308.135714 47.678035 
L 315.922143 46.645635 
L 323.708571 46.645635 
L 331.495 46.645635 
L 339.281429 45.355135 
L 347.067857 45.355135 
L 354.854286 45.355135 
L 362.640714 42.487357 
L 370.427143 42.487357 
L 378.213571 42.487357 
L 386 42.487357 
L 393.786429 40.049746 
L 401.572857 38.574889 
L 409.359286 38.574889 
L 417.145714 38.574889 
L 424.932143 38.574889 
L 432.718571 38.574889 
L 440.505 34.56 
" clip-path="url(#p156b48df4a)" style="fill: none; stroke: #ff0000; stroke-width: 2.5; stroke-linecap: square"/>
   </g>
   <g id="line2d_19">
    <path d="M 58.97 292.66 
L 66.756429 207.792027 
L 74.542857 207.792027 
L 82.329286 207.792027 
L 90.115714 207.792027 
L 97.902143 197.885159 
L 105.688571 185.8647 
L 113.475 173.220408 
L 121.261429 173.220408 
L 129.047857 172.073296 
L 136.834286 160.748181 
L 144.620714 148.178376 
L 152.407143 148.178376 
L 160.193571 141.295709 
L 167.98 133.696098 
L 175.766429 122.527407 
L 183.552857 122.527407 
L 191.339286 115.627981 
L 199.125714 115.627981 
L 206.912143 104.443648 
L 214.698571 96.184448 
L 222.485 91.49172 
L 230.271429 84.734193 
L 238.057857 84.734193 
L 245.844286 84.734193 
L 253.630714 81.866415 
L 261.417143 81.866415 
L 269.203571 80.719304 
L 276.99 71.409455 
L 284.776429 71.409455 
L 292.562857 67.029576 
L 300.349286 65.739076 
L 308.135714 65.739076 
L 315.922143 60.322328 
L 323.708571 60.322328 
L 331.495 55.139471 
L 339.281429 53.848971 
L 347.067857 51.267971 
L 354.854286 51.267971 
L 362.640714 45.490703 
L 370.427143 45.490703 
L 378.213571 45.490703 
L 386 45.490703 
L 393.786429 45.490703 
L 401.572857 43.405046 
L 409.359286 41.082146 
L 417.145714 41.082146 
L 424.932143 41.082146 
L 432.718571 41.082146 
L 440.505 34.56 
" clip-path="url(#p156b48df4a)" style="fill: none; stroke: #800080; stroke-width: 2.5; stroke-linecap: square"/>
   </g>
   <g id="line2d_20">
    <path d="M 58.97 292.66 
L 66.756429 210.683641 
L 74.542857 210.683641 
L 82.329286 210.683641 
L 90.115714 210.683641 
L 97.902143 191.498208 
L 105.688571 175.293401 
L 113.475 165.399568 
L 121.261429 165.399568 
L 129.047857 164.252457 
L 136.834286 151.47781 
L 144.620714 139.975414 
L 152.407143 139.975414 
L 160.193571 135.530359 
L 167.98 121.008975 
L 175.766429 117.567642 
L 183.552857 117.567642 
L 191.339286 112.687205 
L 199.125714 112.687205 
L 206.912143 110.392983 
L 214.698571 103.625027 
L 222.485 99.870846 
L 230.271429 89.755411 
L 238.057857 89.755411 
L 245.844286 89.755411 
L 253.630714 80.80273 
L 261.417143 80.80273 
L 269.203571 80.80273 
L 276.99 76.746128 
L 284.776429 76.746128 
L 292.562857 73.419506 
L 300.349286 71.412062 
L 308.135714 71.412062 
L 315.922143 63.676883 
L 323.708571 63.676883 
L 331.495 61.497372 
L 339.281429 61.497372 
L 347.067857 55.905205 
L 354.854286 55.905205 
L 362.640714 54.758094 
L 370.427143 54.758094 
L 378.213571 53.467594 
L 386 51.238549 
L 393.786429 51.238549 
L 401.572857 43.908956 
L 409.359286 43.908956 
L 417.145714 43.908956 
L 424.932143 43.908956 
L 432.718571 43.908956 
L 440.505 34.56 
" clip-path="url(#p156b48df4a)" style="fill: none; stroke: #008000; stroke-width: 2.5; stroke-linecap: square"/>
   </g>
   <g id="line2d_21">
    <path d="M 58.97 292.66 
L 66.756429 189.464693 
L 74.542857 189.464693 
L 82.329286 189.464693 
L 90.115714 189.464693 
L 97.902143 179.370115 
L 105.688571 168.20999 
L 113.475 161.900879 
L 121.261429 161.900879 
L 129.047857 161.900879 
L 136.834286 148.604818 
L 144.620714 137.608194 
L 152.407143 137.608194 
L 160.193571 129.865194 
L 167.98 127.049558 
L 175.766429 123.837647 
L 183.552857 123.837647 
L 191.339286 116.811591 
L 199.125714 116.811591 
L 206.912143 110.789258 
L 214.698571 104.688712 
L 222.485 97.414985 
L 230.271429 88.133813 
L 238.057857 88.133813 
L 245.844286 88.133813 
L 253.630714 78.784858 
L 261.417143 78.784858 
L 269.203571 78.784858 
L 276.99 72.75731 
L 284.776429 71.46681 
L 292.562857 71.46681 
L 300.349286 71.46681 
L 308.135714 71.46681 
L 315.922143 66.237771 
L 323.708571 66.237771 
L 331.495 65.205371 
L 339.281429 64.05826 
L 347.067857 62.76776 
L 354.854286 62.76776 
L 362.640714 59.952124 
L 370.427143 55.593102 
L 378.213571 55.593102 
L 386 54.302602 
L 393.786429 53.012102 
L 401.572857 48.423657 
L 409.359286 43.548435 
L 417.145714 43.548435 
L 424.932143 43.548435 
L 432.718571 43.548435 
L 440.505 34.56 
" clip-path="url(#p156b48df4a)" style="fill: none; stroke: #ffa500; stroke-width: 2.5; stroke-linecap: square"/>
   </g>
   <g id="line2d_22">
    <path d="M 58.97 292.66 
L 440.505 34.56 
" clip-path="url(#p156b48df4a)" style="fill: none; stroke-dasharray: 9.25,4; stroke-dashoffset: 0; stroke: #808080; stroke-width: 2.5"/>
   </g>
   <g id="patch_3">
    <path d="M 58.97 292.66 
L 58.97 34.56 
" style="fill: none; stroke: #000000; stroke-width: 0.8; stroke-linejoin: miter; stroke-linecap: square"/>
   </g>
   <g id="patch_4">
    <path d="M 440.505 292.66 
L 440.505 34.56 
" style="fill: none; stroke: #000000; stroke-width: 0.8; stroke-linejoin: miter; stroke-linecap: square"/>
   </g>
   <g id="patch_5">
    <path d="M 58.97 292.66 
L 440.505 292.66 
" style="fill: none; stroke: #000000; stroke-width: 0.8; stroke-linejoin: miter; stroke-linecap: square"/>
   </g>
   <g id="patch_6">
    <path d="M 58.97 34.56 
L 440.505 34.56 
" style="fill: none; stroke: #000000; stroke-width: 0.8; stroke-linejoin: miter; stroke-linecap: square"/>
   </g>
   <g id="text_15">
    <!-- Incident Parkinson's ROC Curve -->
    <g transform="translate(139.47875 28.56) scale(0.14 -0.14)">
     <defs>
      <path id="DejaVuSans-49" d="M 628 4666 
L 1259 4666 
L 1259 0 
L 628 0 
L 628 4666 
z
" transform="scale(0.015625)"/>
      <path id="DejaVuSans-6e" d="M 3513 2113 
L 3513 0 
L 2938 0 
L 2938 2094 
Q 2938 2591 2744 2837 
Q 2550 3084 2163 3084 
Q 1697 3084 1428 2787 
Q 1159 2491 1159 1978 
L 1159 0 
L 581 0 
L 581 3500 
L 1159 3500 
L 1159 2956 
Q 1366 3272 1645 3428 
Q 1925 3584 2291 3584 
Q 2894 3584 3203 3211 
Q 3513 2838 3513 2113 
z
" transform="scale(0.015625)"/>
      <path id="DejaVuSans-63" d="M 3122 3366 
L 3122 2828 
Q 2878 2963 2633 3030 
Q 2388 3097 2138 3097 
Q 1578 3097 1268 2742 
Q 959 2388 959 1747 
Q 959 1106 1268 751 
Q 1578 397 2138 397 
Q 2388 397 2633 464 
Q 2878 531 3122 666 
L 3122 134 
Q 2881 22 2623 -34 
Q 2366 -91 2075 -91 
Q 1284 -91 818 406 
Q 353 903 353 1747 
Q 353 2603 823 3093 
Q 1294 3584 2113 3584 
Q 2378 3584 2631 3529 
Q 2884 3475 3122 3366 
z
" transform="scale(0.015625)"/>
      <path id="DejaVuSans-64" d="M 2906 2969 
L 2906 4863 
L 3481 4863 
L 3481 0 
L 2906 0 
L 2906 525 
Q 2725 213 2448 61 
Q 2172 -91 1784 -91 
Q 1150 -91 751 415 
Q 353 922 353 1747 
Q 353 2572 751 3078 
Q 1150 3584 1784 3584 
Q 2172 3584 2448 3432 
Q 2725 3281 2906 2969 
z
M 947 1747 
Q 947 1113 1208 752 
Q 1469 391 1925 391 
Q 2381 391 2643 752 
Q 2906 1113 2906 1747 
Q 2906 2381 2643 2742 
Q 2381 3103 1925 3103 
Q 1469 3103 1208 2742 
Q 947 2381 947 1747 
z
" transform="scale(0.015625)"/>
      <path id="DejaVuSans-6b" d="M 581 4863 
L 1159 4863 
L 1159 1991 
L 2875 3500 
L 3609 3500 
L 1753 1863 
L 3688 0 
L 2938 0 
L 1159 1709 
L 1159 0 
L 581 0 
L 581 4863 
z
" transform="scale(0.015625)"/>
      <path id="DejaVuSans-27" d="M 1147 4666 
L 1147 2931 
L 616 2931 
L 616 4666 
L 1147 4666 
z
" transform="scale(0.015625)"/>
      <path id="DejaVuSans-4f" d="M 2522 4238 
Q 1834 4238 1429 3725 
Q 1025 3213 1025 2328 
Q 1025 1447 1429 934 
Q 1834 422 2522 422 
Q 3209 422 3611 934 
Q 4013 1447 4013 2328 
Q 4013 3213 3611 3725 
Q 3209 4238 2522 4238 
z
M 2522 4750 
Q 3503 4750 4090 4092 
Q 4678 3434 4678 2328 
Q 4678 1225 4090 567 
Q 3503 -91 2522 -91 
Q 1538 -91 948 565 
Q 359 1222 359 2328 
Q 359 3434 948 4092 
Q 1538 4750 2522 4750 
z
" transform="scale(0.015625)"/>
      <path id="DejaVuSans-43" d="M 4122 4306 
L 4122 3641 
Q 3803 3938 3442 4084 
Q 3081 4231 2675 4231 
Q 1875 4231 1450 3742 
Q 1025 3253 1025 2328 
Q 1025 1406 1450 917 
Q 1875 428 2675 428 
Q 3081 428 3442 575 
Q 3803 722 4122 1019 
L 4122 359 
Q 3791 134 3420 21 
Q 3050 -91 2638 -91 
Q 1578 -91 968 557 
Q 359 1206 359 2328 
Q 359 3453 968 4101 
Q 1578 4750 2638 4750 
Q 3056 4750 3426 4639 
Q 3797 4528 4122 4306 
z
" transform="scale(0.015625)"/>
     </defs>
     <use xlink:href="#DejaVuSans-49"/>
     <use xlink:href="#DejaVuSans-6e" x="29.492188"/>
     <use xlink:href="#DejaVuSans-63" x="92.871094"/>
     <use xlink:href="#DejaVuSans-69" x="147.851562"/>
     <use xlink:href="#DejaVuSans-64" x="175.634766"/>
     <use xlink:href="#DejaVuSans-65" x="239.111328"/>
     <use xlink:href="#DejaVuSans-6e" x="300.634766"/>
     <use xlink:href="#DejaVuSans-74" x="364.013672"/>
     <use xlink:href="#DejaVuSans-20" x="403.222656"/>
     <use xlink:href="#DejaVuSans-50" x="435.009766"/>
     <use xlink:href="#DejaVuSans-61" x="490.8125"/>
     <use xlink:href="#DejaVuSans-72" x="552.091797"/>
     <use xlink:href="#DejaVuSans-6b" x="593.205078"/>
     <use xlink:href="#DejaVuSans-69" x="651.115234"/>
     <use xlink:href="#DejaVuSans-6e" x="678.898438"/>
     <use xlink:href="#DejaVuSans-73" x="742.277344"/>
     <use xlink:href="#DejaVuSans-6f" x="794.376953"/>
     <use xlink:href="#DejaVuSans-6e" x="855.558594"/>
     <use xlink:href="#DejaVuSans-27" x="918.9375"/>
     <use xlink:href="#DejaVuSans-73" x="946.427734"/>
     <use xlink:href="#DejaVuSans-20" x="998.527344"/>
     <use xlink:href="#DejaVuSans-52" x="1030.314453"/>
     <use xlink:href="#DejaVuSans-4f" x="1099.796875"/>
     <use xlink:href="#DejaVuSans-43" x="1178.507812"/>
     <use xlink:href="#DejaVuSans-20" x="1248.332031"/>
     <use xlink:href="#DejaVuSans-43" x="1280.119141"/>
     <use xlink:href="#DejaVuSans-75" x="1349.943359"/>
     <use xlink:href="#DejaVuSans-72" x="1413.322266"/>
     <use xlink:href="#DejaVuSans-76" x="1454.435547"/>
     <use xlink:href="#DejaVuSans-65" x="1513.615234"/>
    </g>
   </g>
   <g id="legend_1">
    <g id="patch_7">
     <path d="M 272.339375 287.66 
L 433.505 287.66 
Q 435.505 287.66 435.505 285.66 
L 435.505 154.556875 
Q 435.505 152.556875 433.505 152.556875 
L 272.339375 152.556875 
Q 270.339375 152.556875 270.339375 154.556875 
L 270.339375 285.66 
Q 270.339375 287.66 272.339375 287.66 
z
" style="fill: #ffffff; opacity: 0.8; stroke: #cccccc; stroke-linejoin: miter"/>
    </g>
    <g id="line2d_23">
     <path d="M 274.339375 160.655312 
L 284.339375 160.655312 
L 294.339375 160.655312 
" style="fill: none; stroke: #000000; stroke-width: 2.5; stroke-linecap: square"/>
    </g>
    <g id="text_16">
     <!-- Logistic Regression (0.57) -->
     <g transform="translate(302.339375 164.155312) scale(0.1 -0.1)">
      <defs>
       <path id="DejaVuSans-4c" d="M 628 4666 
L 1259 4666 
L 1259 531 
L 3531 531 
L 3531 0 
L 628 0 
L 628 4666 
z
" transform="scale(0.015625)"/>
       <path id="DejaVuSans-67" d="M 2906 1791 
Q 2906 2416 2648 2759 
Q 2391 3103 1925 3103 
Q 1463 3103 1205 2759 
Q 947 2416 947 1791 
Q 947 1169 1205 825 
Q 1463 481 1925 481 
Q 2391 481 2648 825 
Q 2906 1169 2906 1791 
z
M 3481 434 
Q 3481 -459 3084 -895 
Q 2688 -1331 1869 -1331 
Q 1566 -1331 1297 -1286 
Q 1028 -1241 775 -1147 
L 775 -588 
Q 1028 -725 1275 -790 
Q 1522 -856 1778 -856 
Q 2344 -856 2625 -561 
Q 2906 -266 2906 331 
L 2906 616 
Q 2728 306 2450 153 
Q 2172 0 1784 0 
Q 1141 0 747 490 
Q 353 981 353 1791 
Q 353 2603 747 3093 
Q 1141 3584 1784 3584 
Q 2172 3584 2450 3431 
Q 2728 3278 2906 2969 
L 2906 3500 
L 3481 3500 
L 3481 434 
z
" transform="scale(0.015625)"/>
       <path id="DejaVuSans-28" d="M 1984 4856 
Q 1566 4138 1362 3434 
Q 1159 2731 1159 2009 
Q 1159 1288 1364 580 
Q 1569 -128 1984 -844 
L 1484 -844 
Q 1016 -109 783 600 
Q 550 1309 550 2009 
Q 550 2706 781 3412 
Q 1013 4119 1484 4856 
L 1984 4856 
z
" transform="scale(0.015625)"/>
       <path id="DejaVuSans-35" d="M 691 4666 
L 3169 4666 
L 3169 4134 
L 1269 4134 
L 1269 2991 
Q 1406 3038 1543 3061 
Q 1681 3084 1819 3084 
Q 2600 3084 3056 2656 
Q 3513 2228 3513 1497 
Q 3513 744 3044 326 
Q 2575 -91 1722 -91 
Q 1428 -91 1123 -41 
Q 819 9 494 109 
L 494 744 
Q 775 591 1075 516 
Q 1375 441 1709 441 
Q 2250 441 2565 725 
Q 2881 1009 2881 1497 
Q 2881 1984 2565 2268 
Q 2250 2553 1709 2553 
Q 1456 2553 1204 2497 
Q 953 2441 691 2322 
L 691 4666 
z
" transform="scale(0.015625)"/>
       <path id="DejaVuSans-37" d="M 525 4666 
L 3525 4666 
L 3525 4397 
L 1831 0 
L 1172 0 
L 2766 4134 
L 525 4134 
L 525 4666 
z
" transform="scale(0.015625)"/>
       <path id="DejaVuSans-29" d="M 513 4856 
L 1013 4856 
Q 1481 4119 1714 3412 
Q 1947 2706 1947 2009 
Q 1947 1309 1714 600 
Q 1481 -109 1013 -844 
L 513 -844 
Q 928 -128 1133 580 
Q 1338 1288 1338 2009 
Q 1338 2731 1133 3434 
Q 928 4138 513 4856 
z
" transform="scale(0.015625)"/>
      </defs>
      <use xlink:href="#DejaVuSans-4c"/>
      <use xlink:href="#DejaVuSans-6f" x="53.962891"/>
      <use xlink:href="#DejaVuSans-67" x="115.144531"/>
      <use xlink:href="#DejaVuSans-69" x="178.621094"/>
      <use xlink:href="#DejaVuSans-73" x="206.404297"/>
      <use xlink:href="#DejaVuSans-74" x="258.503906"/>
      <use xlink:href="#DejaVuSans-69" x="297.712891"/>
      <use xlink:href="#DejaVuSans-63" x="325.496094"/>
      <use xlink:href="#DejaVuSans-20" x="380.476562"/>
      <use xlink:href="#DejaVuSans-52" x="412.263672"/>
      <use xlink:href="#DejaVuSans-65" x="477.246094"/>
      <use xlink:href="#DejaVuSans-67" x="538.769531"/>
      <use xlink:href="#DejaVuSans-72" x="602.246094"/>
      <use xlink:href="#DejaVuSans-65" x="641.109375"/>
      <use xlink:href="#DejaVuSans-73" x="702.632812"/>
      <use xlink:href="#DejaVuSans-73" x="754.732422"/>
      <use xlink:href="#DejaVuSans-69" x="806.832031"/>
      <use xlink:href="#DejaVuSans-6f" x="834.615234"/>
      <use xlink:href="#DejaVuSans-6e" x="895.796875"/>
      <use xlink:href="#DejaVuSans-20" x="959.175781"/>
      <use xlink:href="#DejaVuSans-28" x="990.962891"/>
      <use xlink:href="#DejaVuSans-30" x="1029.976562"/>
      <use xlink:href="#DejaVuSans-2e" x="1093.599609"/>
      <use xlink:href="#DejaVuSans-35" x="1125.386719"/>
      <use xlink:href="#DejaVuSans-37" x="1189.009766"/>
      <use xlink:href="#DejaVuSans-29" x="1252.632812"/>
     </g>
    </g>
    <g id="line2d_24">
     <path d="M 274.339375 175.333438 
L 284.339375 175.333438 
L 294.339375 175.333438 
" style="fill: none; stroke: #00ffff; stroke-width: 2.5; stroke-linecap: square"/>
    </g>
    <g id="text_17">
     <!-- Elastic Net (0.59) -->
     <g transform="translate(302.339375 178.833438) scale(0.1 -0.1)">
      <defs>
       <path id="DejaVuSans-45" d="M 628 4666 
L 3578 4666 
L 3578 4134 
L 1259 4134 
L 1259 2753 
L 3481 2753 
L 3481 2222 
L 1259 2222 
L 1259 531 
L 3634 531 
L 3634 0 
L 628 0 
L 628 4666 
z
" transform="scale(0.015625)"/>
       <path id="DejaVuSans-4e" d="M 628 4666 
L 1478 4666 
L 3547 763 
L 3547 4666 
L 4159 4666 
L 4159 0 
L 3309 0 
L 1241 3903 
L 1241 0 
L 628 0 
L 628 4666 
z
" transform="scale(0.015625)"/>
       <path id="DejaVuSans-39" d="M 703 97 
L 703 672 
Q 941 559 1184 500 
Q 1428 441 1663 441 
Q 2288 441 2617 861 
Q 2947 1281 2994 2138 
Q 2813 1869 2534 1725 
Q 2256 1581 1919 1581 
Q 1219 1581 811 2004 
Q 403 2428 403 3163 
Q 403 3881 828 4315 
Q 1253 4750 1959 4750 
Q 2769 4750 3195 4129 
Q 3622 3509 3622 2328 
Q 3622 1225 3098 567 
Q 2575 -91 1691 -91 
Q 1453 -91 1209 -44 
Q 966 3 703 97 
z
M 1959 2075 
Q 2384 2075 2632 2365 
Q 2881 2656 2881 3163 
Q 2881 3666 2632 3958 
Q 2384 4250 1959 4250 
Q 1534 4250 1286 3958 
Q 1038 3666 1038 3163 
Q 1038 2656 1286 2365 
Q 1534 2075 1959 2075 
z
" transform="scale(0.015625)"/>
      </defs>
      <use xlink:href="#DejaVuSans-45"/>
      <use xlink:href="#DejaVuSans-6c" x="63.183594"/>
      <use xlink:href="#DejaVuSans-61" x="90.966797"/>
      <use xlink:href="#DejaVuSans-73" x="152.246094"/>
      <use xlink:href="#DejaVuSans-74" x="204.345703"/>
      <use xlink:href="#DejaVuSans-69" x="243.554688"/>
      <use xlink:href="#DejaVuSans-63" x="271.337891"/>
      <use xlink:href="#DejaVuSans-20" x="326.318359"/>
      <use xlink:href="#DejaVuSans-4e" x="358.105469"/>
      <use xlink:href="#DejaVuSans-65" x="432.910156"/>
      <use xlink:href="#DejaVuSans-74" x="494.433594"/>
      <use xlink:href="#DejaVuSans-20" x="533.642578"/>
      <use xlink:href="#DejaVuSans-28" x="565.429688"/>
      <use xlink:href="#DejaVuSans-30" x="604.443359"/>
      <use xlink:href="#DejaVuSans-2e" x="668.066406"/>
      <use xlink:href="#DejaVuSans-35" x="699.853516"/>
      <use xlink:href="#DejaVuSans-39" x="763.476562"/>
      <use xlink:href="#DejaVuSans-29" x="827.099609"/>
     </g>
    </g>
    <g id="line2d_25">
     <path d="M 274.339375 190.011562 
L 284.339375 190.011562 
L 294.339375 190.011562 
" style="fill: none; stroke: #a52a2a; stroke-width: 2.5; stroke-linecap: square"/>
    </g>
    <g id="text_18">
     <!-- Linear SVM (0.57) -->
     <g transform="translate(302.339375 193.511562) scale(0.1 -0.1)">
      <defs>
       <path id="DejaVuSans-53" d="M 3425 4513 
L 3425 3897 
Q 3066 4069 2747 4153 
Q 2428 4238 2131 4238 
Q 1616 4238 1336 4038 
Q 1056 3838 1056 3469 
Q 1056 3159 1242 3001 
Q 1428 2844 1947 2747 
L 2328 2669 
Q 3034 2534 3370 2195 
Q 3706 1856 3706 1288 
Q 3706 609 3251 259 
Q 2797 -91 1919 -91 
Q 1588 -91 1214 -16 
Q 841 59 441 206 
L 441 856 
Q 825 641 1194 531 
Q 1563 422 1919 422 
Q 2459 422 2753 634 
Q 3047 847 3047 1241 
Q 3047 1584 2836 1778 
Q 2625 1972 2144 2069 
L 1759 2144 
Q 1053 2284 737 2584 
Q 422 2884 422 3419 
Q 422 4038 858 4394 
Q 1294 4750 2059 4750 
Q 2388 4750 2728 4690 
Q 3069 4631 3425 4513 
z
" transform="scale(0.015625)"/>
       <path id="DejaVuSans-56" d="M 1831 0 
L 50 4666 
L 709 4666 
L 2188 738 
L 3669 4666 
L 4325 4666 
L 2547 0 
L 1831 0 
z
" transform="scale(0.015625)"/>
       <path id="DejaVuSans-4d" d="M 628 4666 
L 1569 4666 
L 2759 1491 
L 3956 4666 
L 4897 4666 
L 4897 0 
L 4281 0 
L 4281 4097 
L 3078 897 
L 2444 897 
L 1241 4097 
L 1241 0 
L 628 0 
L 628 4666 
z
" transform="scale(0.015625)"/>
      </defs>
      <use xlink:href="#DejaVuSans-4c"/>
      <use xlink:href="#DejaVuSans-69" x="55.712891"/>
      <use xlink:href="#DejaVuSans-6e" x="83.496094"/>
      <use xlink:href="#DejaVuSans-65" x="146.875"/>
      <use xlink:href="#DejaVuSans-61" x="208.398438"/>
      <use xlink:href="#DejaVuSans-72" x="269.677734"/>
      <use xlink:href="#DejaVuSans-20" x="310.791016"/>
      <use xlink:href="#DejaVuSans-53" x="342.578125"/>
      <use xlink:href="#DejaVuSans-56" x="406.054688"/>
      <use xlink:href="#DejaVuSans-4d" x="474.462891"/>
      <use xlink:href="#DejaVuSans-20" x="560.742188"/>
      <use xlink:href="#DejaVuSans-28" x="592.529297"/>
      <use xlink:href="#DejaVuSans-30" x="631.542969"/>
      <use xlink:href="#DejaVuSans-2e" x="695.166016"/>
      <use xlink:href="#DejaVuSans-35" x="726.953125"/>
      <use xlink:href="#DejaVuSans-37" x="790.576172"/>
      <use xlink:href="#DejaVuSans-29" x="854.199219"/>
     </g>
    </g>
    <g id="line2d_26">
     <path d="M 274.339375 204.689687 
L 284.339375 204.689687 
L 294.339375 204.689687 
" style="fill: none; stroke: #00ff00; stroke-width: 2.5; stroke-linecap: square"/>
    </g>
    <g id="text_19">
     <!-- RBF SVM (0.68) -->
     <g transform="translate(302.339375 208.189687) scale(0.1 -0.1)">
      <defs>
       <path id="DejaVuSans-42" d="M 1259 2228 
L 1259 519 
L 2272 519 
Q 2781 519 3026 730 
Q 3272 941 3272 1375 
Q 3272 1813 3026 2020 
Q 2781 2228 2272 2228 
L 1259 2228 
z
M 1259 4147 
L 1259 2741 
L 2194 2741 
Q 2656 2741 2882 2914 
Q 3109 3088 3109 3444 
Q 3109 3797 2882 3972 
Q 2656 4147 2194 4147 
L 1259 4147 
z
M 628 4666 
L 2241 4666 
Q 2963 4666 3353 4366 
Q 3744 4066 3744 3513 
Q 3744 3084 3544 2831 
Q 3344 2578 2956 2516 
Q 3422 2416 3680 2098 
Q 3938 1781 3938 1306 
Q 3938 681 3513 340 
Q 3088 0 2303 0 
L 628 0 
L 628 4666 
z
" transform="scale(0.015625)"/>
      </defs>
      <use xlink:href="#DejaVuSans-52"/>
      <use xlink:href="#DejaVuSans-42" x="69.482422"/>
      <use xlink:href="#DejaVuSans-46" x="138.085938"/>
      <use xlink:href="#DejaVuSans-20" x="195.605469"/>
      <use xlink:href="#DejaVuSans-53" x="227.392578"/>
      <use xlink:href="#DejaVuSans-56" x="290.869141"/>
      <use xlink:href="#DejaVuSans-4d" x="359.277344"/>
      <use xlink:href="#DejaVuSans-20" x="445.556641"/>
      <use xlink:href="#DejaVuSans-28" x="477.34375"/>
      <use xlink:href="#DejaVuSans-30" x="516.357422"/>
      <use xlink:href="#DejaVuSans-2e" x="579.980469"/>
      <use xlink:href="#DejaVuSans-36" x="611.767578"/>
      <use xlink:href="#DejaVuSans-38" x="675.390625"/>
      <use xlink:href="#DejaVuSans-29" x="739.013672"/>
     </g>
    </g>
    <g id="line2d_27">
     <path d="M 274.339375 219.367812 
L 284.339375 219.367812 
L 294.339375 219.367812 
" style="fill: none; stroke: #0000ff; stroke-width: 2.5; stroke-linecap: square"/>
    </g>
    <g id="text_20">
     <!-- AlexNet (0.82) -->
     <g transform="translate(302.339375 222.867812) scale(0.1 -0.1)">
      <defs>
       <path id="DejaVuSans-41" d="M 2188 4044 
L 1331 1722 
L 3047 1722 
L 2188 4044 
z
M 1831 4666 
L 2547 4666 
L 4325 0 
L 3669 0 
L 3244 1197 
L 1141 1197 
L 716 0 
L 50 0 
L 1831 4666 
z
" transform="scale(0.015625)"/>
       <path id="DejaVuSans-78" d="M 3513 3500 
L 2247 1797 
L 3578 0 
L 2900 0 
L 1881 1375 
L 863 0 
L 184 0 
L 1544 1831 
L 300 3500 
L 978 3500 
L 1906 2253 
L 2834 3500 
L 3513 3500 
z
" transform="scale(0.015625)"/>
      </defs>
      <use xlink:href="#DejaVuSans-41"/>
      <use xlink:href="#DejaVuSans-6c" x="68.408203"/>
      <use xlink:href="#DejaVuSans-65" x="96.191406"/>
      <use xlink:href="#DejaVuSans-78" x="155.964844"/>
      <use xlink:href="#DejaVuSans-4e" x="215.144531"/>
      <use xlink:href="#DejaVuSans-65" x="289.949219"/>
      <use xlink:href="#DejaVuSans-74" x="351.472656"/>
      <use xlink:href="#DejaVuSans-20" x="390.681641"/>
      <use xlink:href="#DejaVuSans-28" x="422.46875"/>
      <use xlink:href="#DejaVuSans-30" x="461.482422"/>
      <use xlink:href="#DejaVuSans-2e" x="525.105469"/>
      <use xlink:href="#DejaVuSans-38" x="556.892578"/>
      <use xlink:href="#DejaVuSans-32" x="620.515625"/>
      <use xlink:href="#DejaVuSans-29" x="684.138672"/>
     </g>
    </g>
    <g id="line2d_28">
     <path d="M 274.339375 234.045937 
L 284.339375 234.045937 
L 294.339375 234.045937 
" style="fill: none; stroke: #ff0000; stroke-width: 2.5; stroke-linecap: square"/>
    </g>
    <g id="text_21">
     <!-- VGG-16 (0.81) -->
     <g transform="translate(302.339375 237.545937) scale(0.1 -0.1)">
      <defs>
       <path id="DejaVuSans-47" d="M 3809 666 
L 3809 1919 
L 2778 1919 
L 2778 2438 
L 4434 2438 
L 4434 434 
Q 4069 175 3628 42 
Q 3188 -91 2688 -91 
Q 1594 -91 976 548 
Q 359 1188 359 2328 
Q 359 3472 976 4111 
Q 1594 4750 2688 4750 
Q 3144 4750 3555 4637 
Q 3966 4525 4313 4306 
L 4313 3634 
Q 3963 3931 3569 4081 
Q 3175 4231 2741 4231 
Q 1884 4231 1454 3753 
Q 1025 3275 1025 2328 
Q 1025 1384 1454 906 
Q 1884 428 2741 428 
Q 3075 428 3337 486 
Q 3600 544 3809 666 
z
" transform="scale(0.015625)"/>
       <path id="DejaVuSans-2d" d="M 313 2009 
L 1997 2009 
L 1997 1497 
L 313 1497 
L 313 2009 
z
" transform="scale(0.015625)"/>
      </defs>
      <use xlink:href="#DejaVuSans-56"/>
      <use xlink:href="#DejaVuSans-47" x="68.408203"/>
      <use xlink:href="#DejaVuSans-47" x="145.898438"/>
      <use xlink:href="#DejaVuSans-2d" x="223.388672"/>
      <use xlink:href="#DejaVuSans-31" x="259.472656"/>
      <use xlink:href="#DejaVuSans-36" x="323.095703"/>
      <use xlink:href="#DejaVuSans-20" x="386.71875"/>
      <use xlink:href="#DejaVuSans-28" x="418.505859"/>
      <use xlink:href="#DejaVuSans-30" x="457.519531"/>
      <use xlink:href="#DejaVuSans-2e" x="521.142578"/>
      <use xlink:href="#DejaVuSans-38" x="552.929688"/>
      <use xlink:href="#DejaVuSans-31" x="616.552734"/>
      <use xlink:href="#DejaVuSans-29" x="680.175781"/>
     </g>
    </g>
    <g id="line2d_29">
     <path d="M 274.339375 248.724062 
L 284.339375 248.724062 
L 294.339375 248.724062 
" style="fill: none; stroke: #800080; stroke-width: 2.5; stroke-linecap: square"/>
    </g>
    <g id="text_22">
     <!-- GoogleNet (0.74) -->
     <g transform="translate(302.339375 252.224062) scale(0.1 -0.1)">
      <use xlink:href="#DejaVuSans-47"/>
      <use xlink:href="#DejaVuSans-6f" x="77.490234"/>
      <use xlink:href="#DejaVuSans-6f" x="138.671875"/>
      <use xlink:href="#DejaVuSans-67" x="199.853516"/>
      <use xlink:href="#DejaVuSans-6c" x="263.330078"/>
      <use xlink:href="#DejaVuSans-65" x="291.113281"/>
      <use xlink:href="#DejaVuSans-4e" x="352.636719"/>
      <use xlink:href="#DejaVuSans-65" x="427.441406"/>
      <use xlink:href="#DejaVuSans-74" x="488.964844"/>
      <use xlink:href="#DejaVuSans-20" x="528.173828"/>
      <use xlink:href="#DejaVuSans-28" x="559.960938"/>
      <use xlink:href="#DejaVuSans-30" x="598.974609"/>
      <use xlink:href="#DejaVuSans-2e" x="662.597656"/>
      <use xlink:href="#DejaVuSans-37" x="694.384766"/>
      <use xlink:href="#DejaVuSans-34" x="758.007812"/>
      <use xlink:href="#DejaVuSans-29" x="821.630859"/>
     </g>
    </g>
    <g id="line2d_30">
     <path d="M 274.339375 263.402187 
L 284.339375 263.402187 
L 294.339375 263.402187 
" style="fill: none; stroke: #008000; stroke-width: 2.5; stroke-linecap: square"/>
    </g>
    <g id="text_23">
     <!-- Inception-V3 (0.73) -->
     <g transform="translate(302.339375 266.902187) scale(0.1 -0.1)">
      <defs>
       <path id="DejaVuSans-70" d="M 1159 525 
L 1159 -1331 
L 581 -1331 
L 581 3500 
L 1159 3500 
L 1159 2969 
Q 1341 3281 1617 3432 
Q 1894 3584 2278 3584 
Q 2916 3584 3314 3078 
Q 3713 2572 3713 1747 
Q 3713 922 3314 415 
Q 2916 -91 2278 -91 
Q 1894 -91 1617 61 
Q 1341 213 1159 525 
z
M 3116 1747 
Q 3116 2381 2855 2742 
Q 2594 3103 2138 3103 
Q 1681 3103 1420 2742 
Q 1159 2381 1159 1747 
Q 1159 1113 1420 752 
Q 1681 391 2138 391 
Q 2594 391 2855 752 
Q 3116 1113 3116 1747 
z
" transform="scale(0.015625)"/>
       <path id="DejaVuSans-33" d="M 2597 2516 
Q 3050 2419 3304 2112 
Q 3559 1806 3559 1356 
Q 3559 666 3084 287 
Q 2609 -91 1734 -91 
Q 1441 -91 1130 -33 
Q 819 25 488 141 
L 488 750 
Q 750 597 1062 519 
Q 1375 441 1716 441 
Q 2309 441 2620 675 
Q 2931 909 2931 1356 
Q 2931 1769 2642 2001 
Q 2353 2234 1838 2234 
L 1294 2234 
L 1294 2753 
L 1863 2753 
Q 2328 2753 2575 2939 
Q 2822 3125 2822 3475 
Q 2822 3834 2567 4026 
Q 2313 4219 1838 4219 
Q 1578 4219 1281 4162 
Q 984 4106 628 3988 
L 628 4550 
Q 988 4650 1302 4700 
Q 1616 4750 1894 4750 
Q 2613 4750 3031 4423 
Q 3450 4097 3450 3541 
Q 3450 3153 3228 2886 
Q 3006 2619 2597 2516 
z
" transform="scale(0.015625)"/>
      </defs>
      <use xlink:href="#DejaVuSans-49"/>
      <use xlink:href="#DejaVuSans-6e" x="29.492188"/>
      <use xlink:href="#DejaVuSans-63" x="92.871094"/>
      <use xlink:href="#DejaVuSans-65" x="147.851562"/>
      <use xlink:href="#DejaVuSans-70" x="209.375"/>
      <use xlink:href="#DejaVuSans-74" x="272.851562"/>
      <use xlink:href="#DejaVuSans-69" x="312.060547"/>
      <use xlink:href="#DejaVuSans-6f" x="339.84375"/>
      <use xlink:href="#DejaVuSans-6e" x="401.025391"/>
      <use xlink:href="#DejaVuSans-2d" x="464.404297"/>
      <use xlink:href="#DejaVuSans-56" x="494.613281"/>
      <use xlink:href="#DejaVuSans-33" x="563.021484"/>
      <use xlink:href="#DejaVuSans-20" x="626.644531"/>
      <use xlink:href="#DejaVuSans-28" x="658.431641"/>
      <use xlink:href="#DejaVuSans-30" x="697.445312"/>
      <use xlink:href="#DejaVuSans-2e" x="761.068359"/>
      <use xlink:href="#DejaVuSans-37" x="792.855469"/>
      <use xlink:href="#DejaVuSans-33" x="856.478516"/>
      <use xlink:href="#DejaVuSans-29" x="920.101562"/>
     </g>
    </g>
    <g id="line2d_31">
     <path d="M 274.339375 278.080312 
L 284.339375 278.080312 
L 294.339375 278.080312 
" style="fill: none; stroke: #ffa500; stroke-width: 2.5; stroke-linecap: square"/>
    </g>
    <g id="text_24">
     <!-- ResNet-50 (0.74) -->
     <g transform="translate(302.339375 281.580312) scale(0.1 -0.1)">
      <use xlink:href="#DejaVuSans-52"/>
      <use xlink:href="#DejaVuSans-65" x="64.982422"/>
      <use xlink:href="#DejaVuSans-73" x="126.505859"/>
      <use xlink:href="#DejaVuSans-4e" x="178.605469"/>
      <use xlink:href="#DejaVuSans-65" x="253.410156"/>
      <use xlink:href="#DejaVuSans-74" x="314.933594"/>
      <use xlink:href="#DejaVuSans-2d" x="354.142578"/>
      <use xlink:href="#DejaVuSans-35" x="390.226562"/>
      <use xlink:href="#DejaVuSans-30" x="453.849609"/>
      <use xlink:href="#DejaVuSans-20" x="517.472656"/>
      <use xlink:href="#DejaVuSans-28" x="549.259766"/>
      <use xlink:href="#DejaVuSans-30" x="588.273438"/>
      <use xlink:href="#DejaVuSans-2e" x="651.896484"/>
      <use xlink:href="#DejaVuSans-37" x="683.683594"/>
      <use xlink:href="#DejaVuSans-34" x="747.306641"/>
      <use xlink:href="#DejaVuSans-29" x="810.929688"/>
     </g>
    </g>
   </g>
  </g>
 </g>
 <defs>
  <clipPath id="p156b48df4a">
   <rect x="58.97" y="34.56" width="381.535" height="258.1"/>
  </clipPath>
 </defs>
</svg>
