<?xml version="1.0" encoding="utf-8" standalone="no"?>
<!DOCTYPE svg PUBLIC "-//W3C//DTD SVG 1.1//EN"
  "http://www.w3.org/Graphics/SVG/1.1/DTD/svg11.dtd">
<svg xmlns:xlink="http://www.w3.org/1999/xlink" width="460.8pt" height="345.6pt" viewBox="0 0 460.8 345.6" xmlns="http://www.w3.org/2000/svg" version="1.1">
 <metadata>
  <rdf:RDF xmlns:dc="http://purl.org/dc/elements/1.1/" xmlns:cc="http://creativecommons.org/ns#" xmlns:rdf="http://www.w3.org/1999/02/22-rdf-syntax-ns#">
   <cc:Work>
    <dc:type rdf:resource="http://purl.org/dc/dcmitype/StillImage"/>
    <dc:date>2023-04-25T16:24:21.357861</dc:date>
    <dc:format>image/svg+xml</dc:format>
    <dc:creator>
     <cc:Agent>
      <dc:title>Matplotlib v3.7.0, https://matplotlib.org/</dc:title>
     </cc:Agent>
    </dc:creator>
   </cc:Work>
  </rdf:RDF>
 </metadata>
 <defs>
  <style type="text/css">*{stroke-linejoin: round; stroke-linecap: butt}</style>
 </defs>
 <g id="figure_1">
  <g id="patch_1">
   <path d="M 0 345.6 
L 460.8 345.6 
L 460.8 0 
L 0 0 
z
" style="fill: #ffffff"/>
  </g>
  <g id="axes_1">
   <g id="patch_2">
    <path d="M 58.97 292.66 
L 440.505 292.66 
L 440.505 34.56 
L 58.97 34.56 
z
" style="fill: #ffffff"/>
   </g>
   <g id="matplotlib.axis_1">
    <g id="xtick_1">
     <g id="line2d_1">
      <defs>
       <path id="m61b8c4620d" d="M 0 0 
L 0 8 
" style="stroke: #000000"/>
      </defs>
      <g>
       <use xlink:href="#m61b8c4620d" x="58.97" y="292.66" style="stroke: #000000"/>
      </g>
     </g>
     <g id="text_1">
      <!-- 0.0 -->
      <g transform="translate(49.428125 313.278125) scale(0.12 -0.12)">
       <defs>
        <path id="DejaVuSans-30" d="M 2034 4250 
Q 1547 4250 1301 3770 
Q 1056 3291 1056 2328 
Q 1056 1369 1301 889 
Q 1547 409 2034 409 
Q 2525 409 2770 889 
Q 3016 1369 3016 2328 
Q 3016 3291 2770 3770 
Q 2525 4250 2034 4250 
z
M 2034 4750 
Q 2819 4750 3233 4129 
Q 3647 3509 3647 2328 
Q 3647 1150 3233 529 
Q 2819 -91 2034 -91 
Q 1250 -91 836 529 
Q 422 1150 422 2328 
Q 422 3509 836 4129 
Q 1250 4750 2034 4750 
z
" transform="scale(0.015625)"/>
        <path id="DejaVuSans-2e" d="M 684 794 
L 1344 794 
L 1344 0 
L 684 0 
L 684 794 
z
" transform="scale(0.015625)"/>
       </defs>
       <use xlink:href="#DejaVuSans-30"/>
       <use xlink:href="#DejaVuSans-2e" x="63.623047"/>
       <use xlink:href="#DejaVuSans-30" x="95.410156"/>
      </g>
     </g>
    </g>
    <g id="xtick_2">
     <g id="line2d_2">
      <g>
       <use xlink:href="#m61b8c4620d" x="135.277" y="292.66" style="stroke: #000000"/>
      </g>
     </g>
     <g id="text_2">
      <!-- 0.2 -->
      <g transform="translate(125.735125 313.278125) scale(0.12 -0.12)">
       <defs>
        <path id="DejaVuSans-32" d="M 1228 531 
L 3431 531 
L 3431 0 
L 469 0 
L 469 531 
Q 828 903 1448 1529 
Q 2069 2156 2228 2338 
Q 2531 2678 2651 2914 
Q 2772 3150 2772 3378 
Q 2772 3750 2511 3984 
Q 2250 4219 1831 4219 
Q 1534 4219 1204 4116 
Q 875 4013 500 3803 
L 500 4441 
Q 881 4594 1212 4672 
Q 1544 4750 1819 4750 
Q 2544 4750 2975 4387 
Q 3406 4025 3406 3419 
Q 3406 3131 3298 2873 
Q 3191 2616 2906 2266 
Q 2828 2175 2409 1742 
Q 1991 1309 1228 531 
z
" transform="scale(0.015625)"/>
       </defs>
       <use xlink:href="#DejaVuSans-30"/>
       <use xlink:href="#DejaVuSans-2e" x="63.623047"/>
       <use xlink:href="#DejaVuSans-32" x="95.410156"/>
      </g>
     </g>
    </g>
    <g id="xtick_3">
     <g id="line2d_3">
      <g>
       <use xlink:href="#m61b8c4620d" x="211.584" y="292.66" style="stroke: #000000"/>
      </g>
     </g>
     <g id="text_3">
      <!-- 0.4 -->
      <g transform="translate(202.042125 313.278125) scale(0.12 -0.12)">
       <defs>
        <path id="DejaVuSans-34" d="M 2419 4116 
L 825 1625 
L 2419 1625 
L 2419 4116 
z
M 2253 4666 
L 3047 4666 
L 3047 1625 
L 3713 1625 
L 3713 1100 
L 3047 1100 
L 3047 0 
L 2419 0 
L 2419 1100 
L 313 1100 
L 313 1709 
L 2253 4666 
z
" transform="scale(0.015625)"/>
       </defs>
       <use xlink:href="#DejaVuSans-30"/>
       <use xlink:href="#DejaVuSans-2e" x="63.623047"/>
       <use xlink:href="#DejaVuSans-34" x="95.410156"/>
      </g>
     </g>
    </g>
    <g id="xtick_4">
     <g id="line2d_4">
      <g>
       <use xlink:href="#m61b8c4620d" x="287.891" y="292.66" style="stroke: #000000"/>
      </g>
     </g>
     <g id="text_4">
      <!-- 0.6 -->
      <g transform="translate(278.349125 313.278125) scale(0.12 -0.12)">
       <defs>
        <path id="DejaVuSans-36" d="M 2113 2584 
Q 1688 2584 1439 2293 
Q 1191 2003 1191 1497 
Q 1191 994 1439 701 
Q 1688 409 2113 409 
Q 2538 409 2786 701 
Q 3034 994 3034 1497 
Q 3034 2003 2786 2293 
Q 2538 2584 2113 2584 
z
M 3366 4563 
L 3366 3988 
Q 3128 4100 2886 4159 
Q 2644 4219 2406 4219 
Q 1781 4219 1451 3797 
Q 1122 3375 1075 2522 
Q 1259 2794 1537 2939 
Q 1816 3084 2150 3084 
Q 2853 3084 3261 2657 
Q 3669 2231 3669 1497 
Q 3669 778 3244 343 
Q 2819 -91 2113 -91 
Q 1303 -91 875 529 
Q 447 1150 447 2328 
Q 447 3434 972 4092 
Q 1497 4750 2381 4750 
Q 2619 4750 2861 4703 
Q 3103 4656 3366 4563 
z
" transform="scale(0.015625)"/>
       </defs>
       <use xlink:href="#DejaVuSans-30"/>
       <use xlink:href="#DejaVuSans-2e" x="63.623047"/>
       <use xlink:href="#DejaVuSans-36" x="95.410156"/>
      </g>
     </g>
    </g>
    <g id="xtick_5">
     <g id="line2d_5">
      <g>
       <use xlink:href="#m61b8c4620d" x="364.198" y="292.66" style="stroke: #000000"/>
      </g>
     </g>
     <g id="text_5">
      <!-- 0.8 -->
      <g transform="translate(354.656125 313.278125) scale(0.12 -0.12)">
       <defs>
        <path id="DejaVuSans-38" d="M 2034 2216 
Q 1584 2216 1326 1975 
Q 1069 1734 1069 1313 
Q 1069 891 1326 650 
Q 1584 409 2034 409 
Q 2484 409 2743 651 
Q 3003 894 3003 1313 
Q 3003 1734 2745 1975 
Q 2488 2216 2034 2216 
z
M 1403 2484 
Q 997 2584 770 2862 
Q 544 3141 544 3541 
Q 544 4100 942 4425 
Q 1341 4750 2034 4750 
Q 2731 4750 3128 4425 
Q 3525 4100 3525 3541 
Q 3525 3141 3298 2862 
Q 3072 2584 2669 2484 
Q 3125 2378 3379 2068 
Q 3634 1759 3634 1313 
Q 3634 634 3220 271 
Q 2806 -91 2034 -91 
Q 1263 -91 848 271 
Q 434 634 434 1313 
Q 434 1759 690 2068 
Q 947 2378 1403 2484 
z
M 1172 3481 
Q 1172 3119 1398 2916 
Q 1625 2713 2034 2713 
Q 2441 2713 2670 2916 
Q 2900 3119 2900 3481 
Q 2900 3844 2670 4047 
Q 2441 4250 2034 4250 
Q 1625 4250 1398 4047 
Q 1172 3844 1172 3481 
z
" transform="scale(0.015625)"/>
       </defs>
       <use xlink:href="#DejaVuSans-30"/>
       <use xlink:href="#DejaVuSans-2e" x="63.623047"/>
       <use xlink:href="#DejaVuSans-38" x="95.410156"/>
      </g>
     </g>
    </g>
    <g id="xtick_6">
     <g id="line2d_6">
      <g>
       <use xlink:href="#m61b8c4620d" x="440.505" y="292.66" style="stroke: #000000"/>
      </g>
     </g>
     <g id="text_6">
      <!-- 1.0 -->
      <g transform="translate(430.963125 313.278125) scale(0.12 -0.12)">
       <defs>
        <path id="DejaVuSans-31" d="M 794 531 
L 1825 531 
L 1825 4091 
L 703 3866 
L 703 4441 
L 1819 4666 
L 2450 4666 
L 2450 531 
L 3481 531 
L 3481 0 
L 794 0 
L 794 531 
z
" transform="scale(0.015625)"/>
       </defs>
       <use xlink:href="#DejaVuSans-31"/>
       <use xlink:href="#DejaVuSans-2e" x="63.623047"/>
       <use xlink:href="#DejaVuSans-30" x="95.410156"/>
      </g>
     </g>
    </g>
    <g id="text_7">
     <!-- False Positive Rate  -->
     <g transform="translate(182.459844 330.411562) scale(0.14 -0.14)">
      <defs>
       <path id="DejaVuSans-46" d="M 628 4666 
L 3309 4666 
L 3309 4134 
L 1259 4134 
L 1259 2759 
L 3109 2759 
L 3109 2228 
L 1259 2228 
L 1259 0 
L 628 0 
L 628 4666 
z
" transform="scale(0.015625)"/>
       <path id="DejaVuSans-61" d="M 2194 1759 
Q 1497 1759 1228 1600 
Q 959 1441 959 1056 
Q 959 750 1161 570 
Q 1363 391 1709 391 
Q 2188 391 2477 730 
Q 2766 1069 2766 1631 
L 2766 1759 
L 2194 1759 
z
M 3341 1997 
L 3341 0 
L 2766 0 
L 2766 531 
Q 2569 213 2275 61 
Q 1981 -91 1556 -91 
Q 1019 -91 701 211 
Q 384 513 384 1019 
Q 384 1609 779 1909 
Q 1175 2209 1959 2209 
L 2766 2209 
L 2766 2266 
Q 2766 2663 2505 2880 
Q 2244 3097 1772 3097 
Q 1472 3097 1187 3025 
Q 903 2953 641 2809 
L 641 3341 
Q 956 3463 1253 3523 
Q 1550 3584 1831 3584 
Q 2591 3584 2966 3190 
Q 3341 2797 3341 1997 
z
" transform="scale(0.015625)"/>
       <path id="DejaVuSans-6c" d="M 603 4863 
L 1178 4863 
L 1178 0 
L 603 0 
L 603 4863 
z
" transform="scale(0.015625)"/>
       <path id="DejaVuSans-73" d="M 2834 3397 
L 2834 2853 
Q 2591 2978 2328 3040 
Q 2066 3103 1784 3103 
Q 1356 3103 1142 2972 
Q 928 2841 928 2578 
Q 928 2378 1081 2264 
Q 1234 2150 1697 2047 
L 1894 2003 
Q 2506 1872 2764 1633 
Q 3022 1394 3022 966 
Q 3022 478 2636 193 
Q 2250 -91 1575 -91 
Q 1294 -91 989 -36 
Q 684 19 347 128 
L 347 722 
Q 666 556 975 473 
Q 1284 391 1588 391 
Q 1994 391 2212 530 
Q 2431 669 2431 922 
Q 2431 1156 2273 1281 
Q 2116 1406 1581 1522 
L 1381 1569 
Q 847 1681 609 1914 
Q 372 2147 372 2553 
Q 372 3047 722 3315 
Q 1072 3584 1716 3584 
Q 2034 3584 2315 3537 
Q 2597 3491 2834 3397 
z
" transform="scale(0.015625)"/>
       <path id="DejaVuSans-65" d="M 3597 1894 
L 3597 1613 
L 953 1613 
Q 991 1019 1311 708 
Q 1631 397 2203 397 
Q 2534 397 2845 478 
Q 3156 559 3463 722 
L 3463 178 
Q 3153 47 2828 -22 
Q 2503 -91 2169 -91 
Q 1331 -91 842 396 
Q 353 884 353 1716 
Q 353 2575 817 3079 
Q 1281 3584 2069 3584 
Q 2775 3584 3186 3129 
Q 3597 2675 3597 1894 
z
M 3022 2063 
Q 3016 2534 2758 2815 
Q 2500 3097 2075 3097 
Q 1594 3097 1305 2825 
Q 1016 2553 972 2059 
L 3022 2063 
z
" transform="scale(0.015625)"/>
       <path id="DejaVuSans-20" transform="scale(0.015625)"/>
       <path id="DejaVuSans-50" d="M 1259 4147 
L 1259 2394 
L 2053 2394 
Q 2494 2394 2734 2622 
Q 2975 2850 2975 3272 
Q 2975 3691 2734 3919 
Q 2494 4147 2053 4147 
L 1259 4147 
z
M 628 4666 
L 2053 4666 
Q 2838 4666 3239 4311 
Q 3641 3956 3641 3272 
Q 3641 2581 3239 2228 
Q 2838 1875 2053 1875 
L 1259 1875 
L 1259 0 
L 628 0 
L 628 4666 
z
" transform="scale(0.015625)"/>
       <path id="DejaVuSans-6f" d="M 1959 3097 
Q 1497 3097 1228 2736 
Q 959 2375 959 1747 
Q 959 1119 1226 758 
Q 1494 397 1959 397 
Q 2419 397 2687 759 
Q 2956 1122 2956 1747 
Q 2956 2369 2687 2733 
Q 2419 3097 1959 3097 
z
M 1959 3584 
Q 2709 3584 3137 3096 
Q 3566 2609 3566 1747 
Q 3566 888 3137 398 
Q 2709 -91 1959 -91 
Q 1206 -91 779 398 
Q 353 888 353 1747 
Q 353 2609 779 3096 
Q 1206 3584 1959 3584 
z
" transform="scale(0.015625)"/>
       <path id="DejaVuSans-69" d="M 603 3500 
L 1178 3500 
L 1178 0 
L 603 0 
L 603 3500 
z
M 603 4863 
L 1178 4863 
L 1178 4134 
L 603 4134 
L 603 4863 
z
" transform="scale(0.015625)"/>
       <path id="DejaVuSans-74" d="M 1172 4494 
L 1172 3500 
L 2356 3500 
L 2356 3053 
L 1172 3053 
L 1172 1153 
Q 1172 725 1289 603 
Q 1406 481 1766 481 
L 2356 481 
L 2356 0 
L 1766 0 
Q 1100 0 847 248 
Q 594 497 594 1153 
L 594 3053 
L 172 3053 
L 172 3500 
L 594 3500 
L 594 4494 
L 1172 4494 
z
" transform="scale(0.015625)"/>
       <path id="DejaVuSans-76" d="M 191 3500 
L 800 3500 
L 1894 563 
L 2988 3500 
L 3597 3500 
L 2284 0 
L 1503 0 
L 191 3500 
z
" transform="scale(0.015625)"/>
       <path id="DejaVuSans-52" d="M 2841 2188 
Q 3044 2119 3236 1894 
Q 3428 1669 3622 1275 
L 4263 0 
L 3584 0 
L 2988 1197 
Q 2756 1666 2539 1819 
Q 2322 1972 1947 1972 
L 1259 1972 
L 1259 0 
L 628 0 
L 628 4666 
L 2053 4666 
Q 2853 4666 3247 4331 
Q 3641 3997 3641 3322 
Q 3641 2881 3436 2590 
Q 3231 2300 2841 2188 
z
M 1259 4147 
L 1259 2491 
L 2053 2491 
Q 2509 2491 2742 2702 
Q 2975 2913 2975 3322 
Q 2975 3731 2742 3939 
Q 2509 4147 2053 4147 
L 1259 4147 
z
" transform="scale(0.015625)"/>
      </defs>
      <use xlink:href="#DejaVuSans-46"/>
      <use xlink:href="#DejaVuSans-61" x="48.394531"/>
      <use xlink:href="#DejaVuSans-6c" x="109.673828"/>
      <use xlink:href="#DejaVuSans-73" x="137.457031"/>
      <use xlink:href="#DejaVuSans-65" x="189.556641"/>
      <use xlink:href="#DejaVuSans-20" x="251.080078"/>
      <use xlink:href="#DejaVuSans-50" x="282.867188"/>
      <use xlink:href="#DejaVuSans-6f" x="339.544922"/>
      <use xlink:href="#DejaVuSans-73" x="400.726562"/>
      <use xlink:href="#DejaVuSans-69" x="452.826172"/>
      <use xlink:href="#DejaVuSans-74" x="480.609375"/>
      <use xlink:href="#DejaVuSans-69" x="519.818359"/>
      <use xlink:href="#DejaVuSans-76" x="547.601562"/>
      <use xlink:href="#DejaVuSans-65" x="606.78125"/>
      <use xlink:href="#DejaVuSans-20" x="668.304688"/>
      <use xlink:href="#DejaVuSans-52" x="700.091797"/>
      <use xlink:href="#DejaVuSans-61" x="767.324219"/>
      <use xlink:href="#DejaVuSans-74" x="828.603516"/>
      <use xlink:href="#DejaVuSans-65" x="867.8125"/>
      <use xlink:href="#DejaVuSans-20" x="929.335938"/>
     </g>
    </g>
   </g>
   <g id="matplotlib.axis_2">
    <g id="ytick_1">
     <g id="line2d_7">
      <defs>
       <path id="m306da05587" d="M 0 0 
L -8 0 
" style="stroke: #000000"/>
      </defs>
      <g>
       <use xlink:href="#m306da05587" x="58.97" y="292.66" style="stroke: #000000"/>
      </g>
     </g>
     <g id="text_8">
      <!-- 0.0 -->
      <g transform="translate(28.38625 297.219062) scale(0.12 -0.12)">
       <use xlink:href="#DejaVuSans-30"/>
       <use xlink:href="#DejaVuSans-2e" x="63.623047"/>
       <use xlink:href="#DejaVuSans-30" x="95.410156"/>
      </g>
     </g>
    </g>
    <g id="ytick_2">
     <g id="line2d_8">
      <g>
       <use xlink:href="#m306da05587" x="58.97" y="241.04" style="stroke: #000000"/>
      </g>
     </g>
     <g id="text_9">
      <!-- 0.2 -->
      <g transform="translate(28.38625 245.599062) scale(0.12 -0.12)">
       <use xlink:href="#DejaVuSans-30"/>
       <use xlink:href="#DejaVuSans-2e" x="63.623047"/>
       <use xlink:href="#DejaVuSans-32" x="95.410156"/>
      </g>
     </g>
    </g>
    <g id="ytick_3">
     <g id="line2d_9">
      <g>
       <use xlink:href="#m306da05587" x="58.97" y="189.42" style="stroke: #000000"/>
      </g>
     </g>
     <g id="text_10">
      <!-- 0.4 -->
      <g transform="translate(28.38625 193.979062) scale(0.12 -0.12)">
       <use xlink:href="#DejaVuSans-30"/>
       <use xlink:href="#DejaVuSans-2e" x="63.623047"/>
       <use xlink:href="#DejaVuSans-34" x="95.410156"/>
      </g>
     </g>
    </g>
    <g id="ytick_4">
     <g id="line2d_10">
      <g>
       <use xlink:href="#m306da05587" x="58.97" y="137.8" style="stroke: #000000"/>
      </g>
     </g>
     <g id="text_11">
      <!-- 0.6 -->
      <g transform="translate(28.38625 142.359062) scale(0.12 -0.12)">
       <use xlink:href="#DejaVuSans-30"/>
       <use xlink:href="#DejaVuSans-2e" x="63.623047"/>
       <use xlink:href="#DejaVuSans-36" x="95.410156"/>
      </g>
     </g>
    </g>
    <g id="ytick_5">
     <g id="line2d_11">
      <g>
       <use xlink:href="#m306da05587" x="58.97" y="86.18" style="stroke: #000000"/>
      </g>
     </g>
     <g id="text_12">
      <!-- 0.8 -->
      <g transform="translate(28.38625 90.739063) scale(0.12 -0.12)">
       <use xlink:href="#DejaVuSans-30"/>
       <use xlink:href="#DejaVuSans-2e" x="63.623047"/>
       <use xlink:href="#DejaVuSans-38" x="95.410156"/>
      </g>
     </g>
    </g>
    <g id="ytick_6">
     <g id="line2d_12">
      <g>
       <use xlink:href="#m306da05587" x="58.97" y="34.56" style="stroke: #000000"/>
      </g>
     </g>
     <g id="text_13">
      <!-- 1.0 -->
      <g transform="translate(28.38625 39.119062) scale(0.12 -0.12)">
       <use xlink:href="#DejaVuSans-31"/>
       <use xlink:href="#DejaVuSans-2e" x="63.623047"/>
       <use xlink:href="#DejaVuSans-30" x="95.410156"/>
      </g>
     </g>
    </g>
    <g id="text_14">
     <!-- True Positive Rate -->
     <g transform="translate(21.474688 225.951562) rotate(-90) scale(0.14 -0.14)">
      <defs>
       <path id="DejaVuSans-54" d="M -19 4666 
L 3928 4666 
L 3928 4134 
L 2272 4134 
L 2272 0 
L 1638 0 
L 1638 4134 
L -19 4134 
L -19 4666 
z
" transform="scale(0.015625)"/>
       <path id="DejaVuSans-72" d="M 2631 2963 
Q 2534 3019 2420 3045 
Q 2306 3072 2169 3072 
Q 1681 3072 1420 2755 
Q 1159 2438 1159 1844 
L 1159 0 
L 581 0 
L 581 3500 
L 1159 3500 
L 1159 2956 
Q 1341 3275 1631 3429 
Q 1922 3584 2338 3584 
Q 2397 3584 2469 3576 
Q 2541 3569 2628 3553 
L 2631 2963 
z
" transform="scale(0.015625)"/>
       <path id="DejaVuSans-75" d="M 544 1381 
L 544 3500 
L 1119 3500 
L 1119 1403 
Q 1119 906 1312 657 
Q 1506 409 1894 409 
Q 2359 409 2629 706 
Q 2900 1003 2900 1516 
L 2900 3500 
L 3475 3500 
L 3475 0 
L 2900 0 
L 2900 538 
Q 2691 219 2414 64 
Q 2138 -91 1772 -91 
Q 1169 -91 856 284 
Q 544 659 544 1381 
z
M 1991 3584 
L 1991 3584 
z
" transform="scale(0.015625)"/>
      </defs>
      <use xlink:href="#DejaVuSans-54"/>
      <use xlink:href="#DejaVuSans-72" x="46.333984"/>
      <use xlink:href="#DejaVuSans-75" x="87.447266"/>
      <use xlink:href="#DejaVuSans-65" x="150.826172"/>
      <use xlink:href="#DejaVuSans-20" x="212.349609"/>
      <use xlink:href="#DejaVuSans-50" x="244.136719"/>
      <use xlink:href="#DejaVuSans-6f" x="300.814453"/>
      <use xlink:href="#DejaVuSans-73" x="361.996094"/>
      <use xlink:href="#DejaVuSans-69" x="414.095703"/>
      <use xlink:href="#DejaVuSans-74" x="441.878906"/>
      <use xlink:href="#DejaVuSans-69" x="481.087891"/>
      <use xlink:href="#DejaVuSans-76" x="508.871094"/>
      <use xlink:href="#DejaVuSans-65" x="568.050781"/>
      <use xlink:href="#DejaVuSans-20" x="629.574219"/>
      <use xlink:href="#DejaVuSans-52" x="661.361328"/>
      <use xlink:href="#DejaVuSans-61" x="728.59375"/>
      <use xlink:href="#DejaVuSans-74" x="789.873047"/>
      <use xlink:href="#DejaVuSans-65" x="829.082031"/>
     </g>
    </g>
   </g>
   <g id="line2d_13">
    <path d="M 58.97 292.66 
L 66.756429 277.113959 
L 74.542857 268.20973 
L 82.329286 260.727014 
L 90.115714 248.851178 
L 97.902143 240.423161 
L 105.688571 230.100926 
L 113.475 218.113076 
L 121.261429 210.807595 
L 129.047857 200.042491 
L 136.834286 192.755849 
L 144.620714 184.817591 
L 152.407143 178.206126 
L 160.193571 174.855521 
L 167.98 165.772687 
L 175.766429 157.994813 
L 183.552857 148.738802 
L 191.339286 139.88292 
L 199.125714 136.999887 
L 206.912143 131.039041 
L 214.698571 129.431173 
L 222.485 120.846052 
L 230.271429 116.627446 
L 238.057857 111.230972 
L 245.844286 106.576656 
L 253.630714 99.805145 
L 261.417143 93.433532 
L 269.203571 85.453945 
L 276.99 80.932436 
L 284.776429 74.571692 
L 292.562857 71.381952 
L 300.349286 65.839801 
L 308.135714 64.979468 
L 315.922143 61.283431 
L 323.708571 56.633807 
L 331.495 54.47915 
L 339.281429 51.93993 
L 347.067857 50.39669 
L 354.854286 46.453475 
L 362.640714 45.162975 
L 370.427143 41.338403 
L 378.213571 40.533533 
L 386 39.243033 
L 393.786429 38.363997 
L 401.572857 37.538077 
L 409.359286 36.247577 
L 417.145714 34.990167 
L 424.932143 34.990167 
L 432.718571 34.990167 
L 440.505 34.56 
" clip-path="url(#pe1fe96a5cc)" style="fill: none; stroke: #000000; stroke-width: 2.5; stroke-linecap: square"/>
   </g>
   <g id="line2d_14">
    <path d="M 58.97 292.66 
L 66.756429 278.840642 
L 74.542857 266.596996 
L 82.329286 259.932988 
L 90.115714 248.482025 
L 97.902143 238.769289 
L 105.688571 230.342875 
L 113.475 222.2219 
L 121.261429 217.226819 
L 129.047857 208.054452 
L 136.834286 194.695982 
L 144.620714 188.55528 
L 152.407143 181.866753 
L 160.193571 177.814063 
L 167.98 167.800705 
L 175.766429 161.500113 
L 183.552857 155.781243 
L 191.339286 148.725282 
L 199.125714 146.871115 
L 206.912143 134.64933 
L 214.698571 127.386621 
L 222.485 120.720997 
L 230.271429 113.043582 
L 238.057857 106.091353 
L 245.844286 101.729233 
L 253.630714 93.952474 
L 261.417143 92.227115 
L 269.203571 86.649054 
L 276.99 81.666403 
L 284.776429 74.269583 
L 292.562857 72.212846 
L 300.349286 63.885115 
L 308.135714 61.396339 
L 315.922143 54.641486 
L 323.708571 50.141575 
L 331.495 49.429575 
L 339.281429 44.744669 
L 347.067857 44.314502 
L 354.854286 39.614916 
L 362.640714 39.258916 
L 370.427143 38.845956 
L 378.213571 38.845956 
L 386 37.985623 
L 393.786429 37.536753 
L 401.572857 37.536753 
L 409.359286 35.816087 
L 417.145714 34.990167 
L 424.932143 34.990167 
L 432.718571 34.56 
L 440.505 34.56 
" clip-path="url(#pe1fe96a5cc)" style="fill: none; stroke: #00ffff; stroke-width: 2.5; stroke-linecap: square"/>
   </g>
   <g id="line2d_15">
    <path d="M 58.97 292.66 
L 66.756429 274.513388 
L 74.542857 268.517085 
L 82.329286 260.688112 
L 90.115714 244.724149 
L 97.902143 236.391346 
L 105.688571 226.970623 
L 113.475 215.827549 
L 121.261429 210.099494 
L 129.047857 200.928315 
L 136.834286 195.107488 
L 144.620714 185.54382 
L 152.407143 173.433897 
L 160.193571 169.30311 
L 167.98 163.816884 
L 175.766429 154.777709 
L 183.552857 147.790435 
L 191.339286 141.39564 
L 199.125714 137.593468 
L 206.912143 130.359852 
L 214.698571 128.262986 
L 222.485 118.860111 
L 230.271429 116.370484 
L 238.057857 112.963942 
L 245.844286 108.219362 
L 253.630714 102.276687 
L 261.417143 96.578478 
L 269.203571 85.197181 
L 276.99 78.710345 
L 284.776429 71.866373 
L 292.562857 68.576096 
L 300.349286 66.524679 
L 308.135714 62.140032 
L 315.922143 59.665814 
L 323.708571 55.11796 
L 331.495 53.340354 
L 339.281429 50.792443 
L 347.067857 48.732983 
L 354.854286 45.219935 
L 362.640714 44.376809 
L 370.427143 43.086309 
L 378.213571 42.18857 
L 386 39.653173 
L 393.786429 39.223007 
L 401.572857 36.710833 
L 409.359286 35.420333 
L 417.145714 34.990167 
L 424.932143 34.990167 
L 432.718571 34.990167 
L 440.505 34.56 
" clip-path="url(#pe1fe96a5cc)" style="fill: none; stroke: #a52a2a; stroke-width: 2.5; stroke-linecap: square"/>
   </g>
   <g id="line2d_16">
    <path d="M 58.97 292.66 
L 66.756429 277.367107 
L 74.542857 270.282373 
L 82.329286 265.28124 
L 90.115714 259.608481 
L 97.902143 250.234944 
L 105.688571 243.853623 
L 113.475 232.73924 
L 121.261429 221.520493 
L 129.047857 211.364855 
L 136.834286 196.533042 
L 144.620714 181.846236 
L 152.407143 164.08901 
L 160.193571 156.876734 
L 167.98 143.423674 
L 175.766429 133.061431 
L 183.552857 119.468325 
L 191.339286 110.154737 
L 199.125714 106.904588 
L 206.912143 96.447655 
L 214.698571 91.607571 
L 222.485 83.251592 
L 230.271429 81.753425 
L 238.057857 69.685043 
L 245.844286 67.099351 
L 253.630714 61.944429 
L 261.417143 59.567226 
L 269.203571 52.802359 
L 276.99 51.080196 
L 284.776429 51.080196 
L 292.562857 49.862366 
L 300.349286 47.31296 
L 308.135714 45.592293 
L 315.922143 44.782256 
L 323.708571 41.82271 
L 331.495 41.82271 
L 339.281429 40.962376 
L 347.067857 39.687587 
L 354.854286 37.571167 
L 362.640714 37.571167 
L 370.427143 37.141 
L 378.213571 36.280667 
L 386 36.280667 
L 393.786429 34.56 
L 401.572857 34.56 
L 409.359286 34.56 
L 417.145714 34.56 
L 424.932143 34.56 
L 432.718571 34.56 
L 440.505 34.56 
" clip-path="url(#pe1fe96a5cc)" style="fill: none; stroke: #00ff00; stroke-width: 2.5; stroke-linecap: square"/>
   </g>
   <g id="line2d_17">
    <path d="M 58.97 292.66 
L 66.756429 221.859335 
L 74.542857 205.180634 
L 82.329286 188.107743 
L 90.115714 170.575915 
L 97.902143 158.214493 
L 105.688571 149.655573 
L 113.475 142.133479 
L 121.261429 133.562353 
L 129.047857 127.857803 
L 136.834286 118.306498 
L 144.620714 109.275908 
L 152.407143 105.114114 
L 160.193571 100.977342 
L 167.98 94.734718 
L 175.766429 93.499682 
L 183.552857 89.88437 
L 191.339286 82.356393 
L 199.125714 77.430054 
L 206.912143 72.122753 
L 214.698571 69.144504 
L 222.485 65.758641 
L 230.271429 61.472685 
L 238.057857 57.016467 
L 245.844286 55.743173 
L 253.630714 51.620166 
L 261.417143 50.833999 
L 269.203571 46.995589 
L 276.99 46.526316 
L 284.776429 43.510661 
L 292.562857 41.489458 
L 300.349286 38.919476 
L 308.135714 37.628976 
L 315.922143 37.628976 
L 323.708571 37.198809 
L 331.495 36.749939 
L 339.281429 35.420333 
L 347.067857 35.420333 
L 354.854286 34.56 
L 362.640714 34.56 
L 370.427143 34.56 
L 378.213571 34.56 
L 386 34.56 
L 393.786429 34.56 
L 401.572857 34.56 
L 409.359286 34.56 
L 417.145714 34.56 
L 424.932143 34.56 
L 432.718571 34.56 
L 440.505 34.56 
" clip-path="url(#pe1fe96a5cc)" style="fill: none; stroke: #0000ff; stroke-width: 2.5; stroke-linecap: square"/>
   </g>
   <g id="line2d_18">
    <path d="M 58.97 292.66 
L 66.756429 237.459088 
L 74.542857 222.569292 
L 82.329286 210.222199 
L 90.115714 199.549507 
L 97.902143 188.032101 
L 105.688571 179.811579 
L 113.475 172.383332 
L 121.261429 170.730168 
L 129.047857 162.206052 
L 136.834286 152.805182 
L 144.620714 147.4191 
L 152.407143 139.535973 
L 160.193571 132.154333 
L 167.98 125.827147 
L 175.766429 120.350107 
L 183.552857 111.769288 
L 191.339286 107.586771 
L 199.125714 98.826166 
L 206.912143 85.965019 
L 214.698571 83.883012 
L 222.485 74.612885 
L 230.271429 71.134146 
L 238.057857 66.508468 
L 245.844286 64.017345 
L 253.630714 59.469465 
L 261.417143 54.745899 
L 269.203571 52.312111 
L 276.99 49.296252 
L 284.776429 48.883292 
L 292.562857 45.816016 
L 300.349286 43.680894 
L 308.135714 41.960227 
L 315.922143 40.234867 
L 323.708571 38.978781 
L 331.495 37.632172 
L 339.281429 36.26346 
L 347.067857 36.26346 
L 354.854286 35.420333 
L 362.640714 35.420333 
L 370.427143 35.420333 
L 378.213571 34.56 
L 386 34.56 
L 393.786429 34.56 
L 401.572857 34.56 
L 409.359286 34.56 
L 417.145714 34.56 
L 424.932143 34.56 
L 432.718571 34.56 
L 440.505 34.56 
" clip-path="url(#pe1fe96a5cc)" style="fill: none; stroke: #ff0000; stroke-width: 2.5; stroke-linecap: square"/>
   </g>
   <g id="line2d_19">
    <path d="M 58.97 292.66 
L 66.756429 265.89173 
L 74.542857 250.080568 
L 82.329286 234.219822 
L 90.115714 221.166285 
L 97.902143 203.656972 
L 105.688571 190.734177 
L 113.475 175.811971 
L 121.261429 170.577909 
L 129.047857 160.004175 
L 136.834286 146.322842 
L 144.620714 140.159903 
L 152.407143 135.166146 
L 160.193571 131.28278 
L 167.98 123.133665 
L 175.766429 118.990722 
L 183.552857 113.184736 
L 191.339286 105.884845 
L 199.125714 100.810173 
L 206.912143 95.795066 
L 214.698571 93.231273 
L 222.485 87.81767 
L 230.271429 85.666837 
L 238.057857 74.393114 
L 245.844286 72.720244 
L 253.630714 67.681779 
L 261.417143 61.981189 
L 269.203571 60.772898 
L 276.99 59.556565 
L 284.776429 57.040248 
L 292.562857 51.596415 
L 300.349286 49.924548 
L 308.135714 49.064215 
L 315.922143 47.442965 
L 323.708571 44.104871 
L 331.495 42.365502 
L 339.281429 39.276123 
L 347.067857 38.845956 
L 354.854286 38.41579 
L 362.640714 37.96692 
L 370.427143 37.96692 
L 378.213571 37.106587 
L 386 36.26346 
L 393.786429 35.833293 
L 401.572857 35.833293 
L 409.359286 35.833293 
L 417.145714 35.420333 
L 424.932143 34.56 
L 432.718571 34.56 
L 440.505 34.56 
" clip-path="url(#pe1fe96a5cc)" style="fill: none; stroke: #800080; stroke-width: 2.5; stroke-linecap: square"/>
   </g>
   <g id="line2d_20">
    <path d="M 58.97 292.66 
L 66.756429 259.992436 
L 74.542857 246.995079 
L 82.329286 241.511038 
L 90.115714 231.696179 
L 97.902143 223.940733 
L 105.688571 211.819446 
L 113.475 205.658938 
L 121.261429 199.931029 
L 129.047857 192.471361 
L 136.834286 189.577994 
L 144.620714 185.796767 
L 152.407143 178.617242 
L 160.193571 169.318344 
L 167.98 162.070661 
L 175.766429 157.558335 
L 183.552857 148.407517 
L 191.339286 142.741831 
L 199.125714 132.156352 
L 206.912143 124.831488 
L 214.698571 120.290444 
L 222.485 113.000233 
L 230.271429 107.95868 
L 238.057857 101.542352 
L 245.844286 99.407229 
L 253.630714 94.081813 
L 261.417143 91.912277 
L 269.203571 87.482478 
L 276.99 79.98112 
L 284.776429 72.911399 
L 292.562857 69.110196 
L 300.349286 63.476276 
L 308.135714 62.185776 
L 315.922143 56.682144 
L 323.708571 55.902697 
L 331.495 55.11653 
L 339.281429 53.47925 
L 347.067857 52.618917 
L 354.854286 50.535586 
L 362.640714 49.245086 
L 370.427143 48.004883 
L 378.213571 44.143773 
L 386 40.284787 
L 393.786429 38.040439 
L 401.572857 37.214519 
L 409.359286 36.784353 
L 417.145714 36.784353 
L 424.932143 36.784353 
L 432.718571 35.545473 
L 440.505 34.56 
" clip-path="url(#pe1fe96a5cc)" style="fill: none; stroke: #008000; stroke-width: 2.5; stroke-linecap: square"/>
   </g>
   <g id="line2d_21">
    <path d="M 58.97 292.66 
L 66.756429 250.416867 
L 74.542857 245.919456 
L 82.329286 235.514425 
L 90.115714 222.132492 
L 97.902143 208.729901 
L 105.688571 201.712522 
L 113.475 195.346655 
L 121.261429 187.699688 
L 129.047857 181.360801 
L 136.834286 175.683189 
L 144.620714 171.371714 
L 152.407143 160.248306 
L 160.193571 157.272404 
L 167.98 148.715477 
L 175.766429 144.371084 
L 183.552857 139.931029 
L 191.339286 133.758075 
L 199.125714 127.056457 
L 206.912143 121.973847 
L 214.698571 117.741007 
L 222.485 101.945821 
L 230.271429 98.499999 
L 238.057857 93.430772 
L 245.844286 88.595807 
L 253.630714 82.71855 
L 261.417143 81.01509 
L 269.203571 76.357819 
L 276.99 71.916935 
L 284.776429 66.863246 
L 292.562857 63.910266 
L 300.349286 61.73284 
L 308.135714 60.44234 
L 315.922143 57.66942 
L 323.708571 56.445099 
L 331.495 53.770585 
L 339.281429 50.872217 
L 347.067857 49.525609 
L 354.854286 44.992608 
L 362.640714 43.327405 
L 370.427143 42.427966 
L 378.213571 41.498806 
L 386 40.686269 
L 393.786429 39.739902 
L 401.572857 38.466609 
L 409.359286 38.466609 
L 417.145714 38.466609 
L 424.932143 36.198457 
L 432.718571 35.35533 
L 440.505 34.56 
" clip-path="url(#pe1fe96a5cc)" style="fill: none; stroke: #ffa500; stroke-width: 2.5; stroke-linecap: square"/>
   </g>
   <g id="line2d_22">
    <path d="M 58.97 292.66 
L 440.505 34.56 
" clip-path="url(#pe1fe96a5cc)" style="fill: none; stroke-dasharray: 9.25,4; stroke-dashoffset: 0; stroke: #808080; stroke-width: 2.5"/>
   </g>
   <g id="patch_3">
    <path d="M 58.97 292.66 
L 58.97 34.56 
" style="fill: none; stroke: #000000; stroke-width: 0.8; stroke-linejoin: miter; stroke-linecap: square"/>
   </g>
   <g id="patch_4">
    <path d="M 440.505 292.66 
L 440.505 34.56 
" style="fill: none; stroke: #000000; stroke-width: 0.8; stroke-linejoin: miter; stroke-linecap: square"/>
   </g>
   <g id="patch_5">
    <path d="M 58.97 292.66 
L 440.505 292.66 
" style="fill: none; stroke: #000000; stroke-width: 0.8; stroke-linejoin: miter; stroke-linecap: square"/>
   </g>
   <g id="patch_6">
    <path d="M 58.97 34.56 
L 440.505 34.56 
" style="fill: none; stroke: #000000; stroke-width: 0.8; stroke-linejoin: miter; stroke-linecap: square"/>
   </g>
   <g id="text_15">
    <!-- Overall Parkinson's ROC Curve -->
    <g transform="translate(142.687813 28.56) scale(0.14 -0.14)">
     <defs>
      <path id="DejaVuSans-4f" d="M 2522 4238 
Q 1834 4238 1429 3725 
Q 1025 3213 1025 2328 
Q 1025 1447 1429 934 
Q 1834 422 2522 422 
Q 3209 422 3611 934 
Q 4013 1447 4013 2328 
Q 4013 3213 3611 3725 
Q 3209 4238 2522 4238 
z
M 2522 4750 
Q 3503 4750 4090 4092 
Q 4678 3434 4678 2328 
Q 4678 1225 4090 567 
Q 3503 -91 2522 -91 
Q 1538 -91 948 565 
Q 359 1222 359 2328 
Q 359 3434 948 4092 
Q 1538 4750 2522 4750 
z
" transform="scale(0.015625)"/>
      <path id="DejaVuSans-6b" d="M 581 4863 
L 1159 4863 
L 1159 1991 
L 2875 3500 
L 3609 3500 
L 1753 1863 
L 3688 0 
L 2938 0 
L 1159 1709 
L 1159 0 
L 581 0 
L 581 4863 
z
" transform="scale(0.015625)"/>
      <path id="DejaVuSans-6e" d="M 3513 2113 
L 3513 0 
L 2938 0 
L 2938 2094 
Q 2938 2591 2744 2837 
Q 2550 3084 2163 3084 
Q 1697 3084 1428 2787 
Q 1159 2491 1159 1978 
L 1159 0 
L 581 0 
L 581 3500 
L 1159 3500 
L 1159 2956 
Q 1366 3272 1645 3428 
Q 1925 3584 2291 3584 
Q 2894 3584 3203 3211 
Q 3513 2838 3513 2113 
z
" transform="scale(0.015625)"/>
      <path id="DejaVuSans-27" d="M 1147 4666 
L 1147 2931 
L 616 2931 
L 616 4666 
L 1147 4666 
z
" transform="scale(0.015625)"/>
      <path id="DejaVuSans-43" d="M 4122 4306 
L 4122 3641 
Q 3803 3938 3442 4084 
Q 3081 4231 2675 4231 
Q 1875 4231 1450 3742 
Q 1025 3253 1025 2328 
Q 1025 1406 1450 917 
Q 1875 428 2675 428 
Q 3081 428 3442 575 
Q 3803 722 4122 1019 
L 4122 359 
Q 3791 134 3420 21 
Q 3050 -91 2638 -91 
Q 1578 -91 968 557 
Q 359 1206 359 2328 
Q 359 3453 968 4101 
Q 1578 4750 2638 4750 
Q 3056 4750 3426 4639 
Q 3797 4528 4122 4306 
z
" transform="scale(0.015625)"/>
     </defs>
     <use xlink:href="#DejaVuSans-4f"/>
     <use xlink:href="#DejaVuSans-76" x="78.710938"/>
     <use xlink:href="#DejaVuSans-65" x="137.890625"/>
     <use xlink:href="#DejaVuSans-72" x="199.414062"/>
     <use xlink:href="#DejaVuSans-61" x="240.527344"/>
     <use xlink:href="#DejaVuSans-6c" x="301.806641"/>
     <use xlink:href="#DejaVuSans-6c" x="329.589844"/>
     <use xlink:href="#DejaVuSans-20" x="357.373047"/>
     <use xlink:href="#DejaVuSans-50" x="389.160156"/>
     <use xlink:href="#DejaVuSans-61" x="444.962891"/>
     <use xlink:href="#DejaVuSans-72" x="506.242188"/>
     <use xlink:href="#DejaVuSans-6b" x="547.355469"/>
     <use xlink:href="#DejaVuSans-69" x="605.265625"/>
     <use xlink:href="#DejaVuSans-6e" x="633.048828"/>
     <use xlink:href="#DejaVuSans-73" x="696.427734"/>
     <use xlink:href="#DejaVuSans-6f" x="748.527344"/>
     <use xlink:href="#DejaVuSans-6e" x="809.708984"/>
     <use xlink:href="#DejaVuSans-27" x="873.087891"/>
     <use xlink:href="#DejaVuSans-73" x="900.578125"/>
     <use xlink:href="#DejaVuSans-20" x="952.677734"/>
     <use xlink:href="#DejaVuSans-52" x="984.464844"/>
     <use xlink:href="#DejaVuSans-4f" x="1053.947266"/>
     <use xlink:href="#DejaVuSans-43" x="1132.658203"/>
     <use xlink:href="#DejaVuSans-20" x="1202.482422"/>
     <use xlink:href="#DejaVuSans-43" x="1234.269531"/>
     <use xlink:href="#DejaVuSans-75" x="1304.09375"/>
     <use xlink:href="#DejaVuSans-72" x="1367.472656"/>
     <use xlink:href="#DejaVuSans-76" x="1408.585938"/>
     <use xlink:href="#DejaVuSans-65" x="1467.765625"/>
    </g>
   </g>
   <g id="legend_1">
    <g id="patch_7">
     <path d="M 272.339375 287.66 
L 433.505 287.66 
Q 435.505 287.66 435.505 285.66 
L 435.505 154.556875 
Q 435.505 152.556875 433.505 152.556875 
L 272.339375 152.556875 
Q 270.339375 152.556875 270.339375 154.556875 
L 270.339375 285.66 
Q 270.339375 287.66 272.339375 287.66 
z
" style="fill: #ffffff; opacity: 0.8; stroke: #cccccc; stroke-linejoin: miter"/>
    </g>
    <g id="line2d_23">
     <path d="M 274.339375 160.655312 
L 284.339375 160.655312 
L 294.339375 160.655312 
" style="fill: none; stroke: #000000; stroke-width: 2.5; stroke-linecap: square"/>
    </g>
    <g id="text_16">
     <!-- Logistic Regression (0.67) -->
     <g transform="translate(302.339375 164.155312) scale(0.1 -0.1)">
      <defs>
       <path id="DejaVuSans-4c" d="M 628 4666 
L 1259 4666 
L 1259 531 
L 3531 531 
L 3531 0 
L 628 0 
L 628 4666 
z
" transform="scale(0.015625)"/>
       <path id="DejaVuSans-67" d="M 2906 1791 
Q 2906 2416 2648 2759 
Q 2391 3103 1925 3103 
Q 1463 3103 1205 2759 
Q 947 2416 947 1791 
Q 947 1169 1205 825 
Q 1463 481 1925 481 
Q 2391 481 2648 825 
Q 2906 1169 2906 1791 
z
M 3481 434 
Q 3481 -459 3084 -895 
Q 2688 -1331 1869 -1331 
Q 1566 -1331 1297 -1286 
Q 1028 -1241 775 -1147 
L 775 -588 
Q 1028 -725 1275 -790 
Q 1522 -856 1778 -856 
Q 2344 -856 2625 -561 
Q 2906 -266 2906 331 
L 2906 616 
Q 2728 306 2450 153 
Q 2172 0 1784 0 
Q 1141 0 747 490 
Q 353 981 353 1791 
Q 353 2603 747 3093 
Q 1141 3584 1784 3584 
Q 2172 3584 2450 3431 
Q 2728 3278 2906 2969 
L 2906 3500 
L 3481 3500 
L 3481 434 
z
" transform="scale(0.015625)"/>
       <path id="DejaVuSans-63" d="M 3122 3366 
L 3122 2828 
Q 2878 2963 2633 3030 
Q 2388 3097 2138 3097 
Q 1578 3097 1268 2742 
Q 959 2388 959 1747 
Q 959 1106 1268 751 
Q 1578 397 2138 397 
Q 2388 397 2633 464 
Q 2878 531 3122 666 
L 3122 134 
Q 2881 22 2623 -34 
Q 2366 -91 2075 -91 
Q 1284 -91 818 406 
Q 353 903 353 1747 
Q 353 2603 823 3093 
Q 1294 3584 2113 3584 
Q 2378 3584 2631 3529 
Q 2884 3475 3122 3366 
z
" transform="scale(0.015625)"/>
       <path id="DejaVuSans-28" d="M 1984 4856 
Q 1566 4138 1362 3434 
Q 1159 2731 1159 2009 
Q 1159 1288 1364 580 
Q 1569 -128 1984 -844 
L 1484 -844 
Q 1016 -109 783 600 
Q 550 1309 550 2009 
Q 550 2706 781 3412 
Q 1013 4119 1484 4856 
L 1984 4856 
z
" transform="scale(0.015625)"/>
       <path id="DejaVuSans-37" d="M 525 4666 
L 3525 4666 
L 3525 4397 
L 1831 0 
L 1172 0 
L 2766 4134 
L 525 4134 
L 525 4666 
z
" transform="scale(0.015625)"/>
       <path id="DejaVuSans-29" d="M 513 4856 
L 1013 4856 
Q 1481 4119 1714 3412 
Q 1947 2706 1947 2009 
Q 1947 1309 1714 600 
Q 1481 -109 1013 -844 
L 513 -844 
Q 928 -128 1133 580 
Q 1338 1288 1338 2009 
Q 1338 2731 1133 3434 
Q 928 4138 513 4856 
z
" transform="scale(0.015625)"/>
      </defs>
      <use xlink:href="#DejaVuSans-4c"/>
      <use xlink:href="#DejaVuSans-6f" x="53.962891"/>
      <use xlink:href="#DejaVuSans-67" x="115.144531"/>
      <use xlink:href="#DejaVuSans-69" x="178.621094"/>
      <use xlink:href="#DejaVuSans-73" x="206.404297"/>
      <use xlink:href="#DejaVuSans-74" x="258.503906"/>
      <use xlink:href="#DejaVuSans-69" x="297.712891"/>
      <use xlink:href="#DejaVuSans-63" x="325.496094"/>
      <use xlink:href="#DejaVuSans-20" x="380.476562"/>
      <use xlink:href="#DejaVuSans-52" x="412.263672"/>
      <use xlink:href="#DejaVuSans-65" x="477.246094"/>
      <use xlink:href="#DejaVuSans-67" x="538.769531"/>
      <use xlink:href="#DejaVuSans-72" x="602.246094"/>
      <use xlink:href="#DejaVuSans-65" x="641.109375"/>
      <use xlink:href="#DejaVuSans-73" x="702.632812"/>
      <use xlink:href="#DejaVuSans-73" x="754.732422"/>
      <use xlink:href="#DejaVuSans-69" x="806.832031"/>
      <use xlink:href="#DejaVuSans-6f" x="834.615234"/>
      <use xlink:href="#DejaVuSans-6e" x="895.796875"/>
      <use xlink:href="#DejaVuSans-20" x="959.175781"/>
      <use xlink:href="#DejaVuSans-28" x="990.962891"/>
      <use xlink:href="#DejaVuSans-30" x="1029.976562"/>
      <use xlink:href="#DejaVuSans-2e" x="1093.599609"/>
      <use xlink:href="#DejaVuSans-36" x="1125.386719"/>
      <use xlink:href="#DejaVuSans-37" x="1189.009766"/>
      <use xlink:href="#DejaVuSans-29" x="1252.632812"/>
     </g>
    </g>
    <g id="line2d_24">
     <path d="M 274.339375 175.333438 
L 284.339375 175.333438 
L 294.339375 175.333438 
" style="fill: none; stroke: #00ffff; stroke-width: 2.5; stroke-linecap: square"/>
    </g>
    <g id="text_17">
     <!-- Elastic Net (0.67) -->
     <g transform="translate(302.339375 178.833438) scale(0.1 -0.1)">
      <defs>
       <path id="DejaVuSans-45" d="M 628 4666 
L 3578 4666 
L 3578 4134 
L 1259 4134 
L 1259 2753 
L 3481 2753 
L 3481 2222 
L 1259 2222 
L 1259 531 
L 3634 531 
L 3634 0 
L 628 0 
L 628 4666 
z
" transform="scale(0.015625)"/>
       <path id="DejaVuSans-4e" d="M 628 4666 
L 1478 4666 
L 3547 763 
L 3547 4666 
L 4159 4666 
L 4159 0 
L 3309 0 
L 1241 3903 
L 1241 0 
L 628 0 
L 628 4666 
z
" transform="scale(0.015625)"/>
      </defs>
      <use xlink:href="#DejaVuSans-45"/>
      <use xlink:href="#DejaVuSans-6c" x="63.183594"/>
      <use xlink:href="#DejaVuSans-61" x="90.966797"/>
      <use xlink:href="#DejaVuSans-73" x="152.246094"/>
      <use xlink:href="#DejaVuSans-74" x="204.345703"/>
      <use xlink:href="#DejaVuSans-69" x="243.554688"/>
      <use xlink:href="#DejaVuSans-63" x="271.337891"/>
      <use xlink:href="#DejaVuSans-20" x="326.318359"/>
      <use xlink:href="#DejaVuSans-4e" x="358.105469"/>
      <use xlink:href="#DejaVuSans-65" x="432.910156"/>
      <use xlink:href="#DejaVuSans-74" x="494.433594"/>
      <use xlink:href="#DejaVuSans-20" x="533.642578"/>
      <use xlink:href="#DejaVuSans-28" x="565.429688"/>
      <use xlink:href="#DejaVuSans-30" x="604.443359"/>
      <use xlink:href="#DejaVuSans-2e" x="668.066406"/>
      <use xlink:href="#DejaVuSans-36" x="699.853516"/>
      <use xlink:href="#DejaVuSans-37" x="763.476562"/>
      <use xlink:href="#DejaVuSans-29" x="827.099609"/>
     </g>
    </g>
    <g id="line2d_25">
     <path d="M 274.339375 190.011562 
L 284.339375 190.011562 
L 294.339375 190.011562 
" style="fill: none; stroke: #a52a2a; stroke-width: 2.5; stroke-linecap: square"/>
    </g>
    <g id="text_18">
     <!-- Linear SVM (0.67) -->
     <g transform="translate(302.339375 193.511562) scale(0.1 -0.1)">
      <defs>
       <path id="DejaVuSans-53" d="M 3425 4513 
L 3425 3897 
Q 3066 4069 2747 4153 
Q 2428 4238 2131 4238 
Q 1616 4238 1336 4038 
Q 1056 3838 1056 3469 
Q 1056 3159 1242 3001 
Q 1428 2844 1947 2747 
L 2328 2669 
Q 3034 2534 3370 2195 
Q 3706 1856 3706 1288 
Q 3706 609 3251 259 
Q 2797 -91 1919 -91 
Q 1588 -91 1214 -16 
Q 841 59 441 206 
L 441 856 
Q 825 641 1194 531 
Q 1563 422 1919 422 
Q 2459 422 2753 634 
Q 3047 847 3047 1241 
Q 3047 1584 2836 1778 
Q 2625 1972 2144 2069 
L 1759 2144 
Q 1053 2284 737 2584 
Q 422 2884 422 3419 
Q 422 4038 858 4394 
Q 1294 4750 2059 4750 
Q 2388 4750 2728 4690 
Q 3069 4631 3425 4513 
z
" transform="scale(0.015625)"/>
       <path id="DejaVuSans-56" d="M 1831 0 
L 50 4666 
L 709 4666 
L 2188 738 
L 3669 4666 
L 4325 4666 
L 2547 0 
L 1831 0 
z
" transform="scale(0.015625)"/>
       <path id="DejaVuSans-4d" d="M 628 4666 
L 1569 4666 
L 2759 1491 
L 3956 4666 
L 4897 4666 
L 4897 0 
L 4281 0 
L 4281 4097 
L 3078 897 
L 2444 897 
L 1241 4097 
L 1241 0 
L 628 0 
L 628 4666 
z
" transform="scale(0.015625)"/>
      </defs>
      <use xlink:href="#DejaVuSans-4c"/>
      <use xlink:href="#DejaVuSans-69" x="55.712891"/>
      <use xlink:href="#DejaVuSans-6e" x="83.496094"/>
      <use xlink:href="#DejaVuSans-65" x="146.875"/>
      <use xlink:href="#DejaVuSans-61" x="208.398438"/>
      <use xlink:href="#DejaVuSans-72" x="269.677734"/>
      <use xlink:href="#DejaVuSans-20" x="310.791016"/>
      <use xlink:href="#DejaVuSans-53" x="342.578125"/>
      <use xlink:href="#DejaVuSans-56" x="406.054688"/>
      <use xlink:href="#DejaVuSans-4d" x="474.462891"/>
      <use xlink:href="#DejaVuSans-20" x="560.742188"/>
      <use xlink:href="#DejaVuSans-28" x="592.529297"/>
      <use xlink:href="#DejaVuSans-30" x="631.542969"/>
      <use xlink:href="#DejaVuSans-2e" x="695.166016"/>
      <use xlink:href="#DejaVuSans-36" x="726.953125"/>
      <use xlink:href="#DejaVuSans-37" x="790.576172"/>
      <use xlink:href="#DejaVuSans-29" x="854.199219"/>
     </g>
    </g>
    <g id="line2d_26">
     <path d="M 274.339375 204.689687 
L 284.339375 204.689687 
L 294.339375 204.689687 
" style="fill: none; stroke: #00ff00; stroke-width: 2.5; stroke-linecap: square"/>
    </g>
    <g id="text_19">
     <!-- RBF SVM (0.72) -->
     <g transform="translate(302.339375 208.189687) scale(0.1 -0.1)">
      <defs>
       <path id="DejaVuSans-42" d="M 1259 2228 
L 1259 519 
L 2272 519 
Q 2781 519 3026 730 
Q 3272 941 3272 1375 
Q 3272 1813 3026 2020 
Q 2781 2228 2272 2228 
L 1259 2228 
z
M 1259 4147 
L 1259 2741 
L 2194 2741 
Q 2656 2741 2882 2914 
Q 3109 3088 3109 3444 
Q 3109 3797 2882 3972 
Q 2656 4147 2194 4147 
L 1259 4147 
z
M 628 4666 
L 2241 4666 
Q 2963 4666 3353 4366 
Q 3744 4066 3744 3513 
Q 3744 3084 3544 2831 
Q 3344 2578 2956 2516 
Q 3422 2416 3680 2098 
Q 3938 1781 3938 1306 
Q 3938 681 3513 340 
Q 3088 0 2303 0 
L 628 0 
L 628 4666 
z
" transform="scale(0.015625)"/>
      </defs>
      <use xlink:href="#DejaVuSans-52"/>
      <use xlink:href="#DejaVuSans-42" x="69.482422"/>
      <use xlink:href="#DejaVuSans-46" x="138.085938"/>
      <use xlink:href="#DejaVuSans-20" x="195.605469"/>
      <use xlink:href="#DejaVuSans-53" x="227.392578"/>
      <use xlink:href="#DejaVuSans-56" x="290.869141"/>
      <use xlink:href="#DejaVuSans-4d" x="359.277344"/>
      <use xlink:href="#DejaVuSans-20" x="445.556641"/>
      <use xlink:href="#DejaVuSans-28" x="477.34375"/>
      <use xlink:href="#DejaVuSans-30" x="516.357422"/>
      <use xlink:href="#DejaVuSans-2e" x="579.980469"/>
      <use xlink:href="#DejaVuSans-37" x="611.767578"/>
      <use xlink:href="#DejaVuSans-32" x="675.390625"/>
      <use xlink:href="#DejaVuSans-29" x="739.013672"/>
     </g>
    </g>
    <g id="line2d_27">
     <path d="M 274.339375 219.367812 
L 284.339375 219.367812 
L 294.339375 219.367812 
" style="fill: none; stroke: #0000ff; stroke-width: 2.5; stroke-linecap: square"/>
    </g>
    <g id="text_20">
     <!-- AlexNet (0.83) -->
     <g transform="translate(302.339375 222.867812) scale(0.1 -0.1)">
      <defs>
       <path id="DejaVuSans-41" d="M 2188 4044 
L 1331 1722 
L 3047 1722 
L 2188 4044 
z
M 1831 4666 
L 2547 4666 
L 4325 0 
L 3669 0 
L 3244 1197 
L 1141 1197 
L 716 0 
L 50 0 
L 1831 4666 
z
" transform="scale(0.015625)"/>
       <path id="DejaVuSans-78" d="M 3513 3500 
L 2247 1797 
L 3578 0 
L 2900 0 
L 1881 1375 
L 863 0 
L 184 0 
L 1544 1831 
L 300 3500 
L 978 3500 
L 1906 2253 
L 2834 3500 
L 3513 3500 
z
" transform="scale(0.015625)"/>
       <path id="DejaVuSans-33" d="M 2597 2516 
Q 3050 2419 3304 2112 
Q 3559 1806 3559 1356 
Q 3559 666 3084 287 
Q 2609 -91 1734 -91 
Q 1441 -91 1130 -33 
Q 819 25 488 141 
L 488 750 
Q 750 597 1062 519 
Q 1375 441 1716 441 
Q 2309 441 2620 675 
Q 2931 909 2931 1356 
Q 2931 1769 2642 2001 
Q 2353 2234 1838 2234 
L 1294 2234 
L 1294 2753 
L 1863 2753 
Q 2328 2753 2575 2939 
Q 2822 3125 2822 3475 
Q 2822 3834 2567 4026 
Q 2313 4219 1838 4219 
Q 1578 4219 1281 4162 
Q 984 4106 628 3988 
L 628 4550 
Q 988 4650 1302 4700 
Q 1616 4750 1894 4750 
Q 2613 4750 3031 4423 
Q 3450 4097 3450 3541 
Q 3450 3153 3228 2886 
Q 3006 2619 2597 2516 
z
" transform="scale(0.015625)"/>
      </defs>
      <use xlink:href="#DejaVuSans-41"/>
      <use xlink:href="#DejaVuSans-6c" x="68.408203"/>
      <use xlink:href="#DejaVuSans-65" x="96.191406"/>
      <use xlink:href="#DejaVuSans-78" x="155.964844"/>
      <use xlink:href="#DejaVuSans-4e" x="215.144531"/>
      <use xlink:href="#DejaVuSans-65" x="289.949219"/>
      <use xlink:href="#DejaVuSans-74" x="351.472656"/>
      <use xlink:href="#DejaVuSans-20" x="390.681641"/>
      <use xlink:href="#DejaVuSans-28" x="422.46875"/>
      <use xlink:href="#DejaVuSans-30" x="461.482422"/>
      <use xlink:href="#DejaVuSans-2e" x="525.105469"/>
      <use xlink:href="#DejaVuSans-38" x="556.892578"/>
      <use xlink:href="#DejaVuSans-33" x="620.515625"/>
      <use xlink:href="#DejaVuSans-29" x="684.138672"/>
     </g>
    </g>
    <g id="line2d_28">
     <path d="M 274.339375 234.045937 
L 284.339375 234.045937 
L 294.339375 234.045937 
" style="fill: none; stroke: #ff0000; stroke-width: 2.5; stroke-linecap: square"/>
    </g>
    <g id="text_21">
     <!-- VGG-16 (0.78) -->
     <g transform="translate(302.339375 237.545937) scale(0.1 -0.1)">
      <defs>
       <path id="DejaVuSans-47" d="M 3809 666 
L 3809 1919 
L 2778 1919 
L 2778 2438 
L 4434 2438 
L 4434 434 
Q 4069 175 3628 42 
Q 3188 -91 2688 -91 
Q 1594 -91 976 548 
Q 359 1188 359 2328 
Q 359 3472 976 4111 
Q 1594 4750 2688 4750 
Q 3144 4750 3555 4637 
Q 3966 4525 4313 4306 
L 4313 3634 
Q 3963 3931 3569 4081 
Q 3175 4231 2741 4231 
Q 1884 4231 1454 3753 
Q 1025 3275 1025 2328 
Q 1025 1384 1454 906 
Q 1884 428 2741 428 
Q 3075 428 3337 486 
Q 3600 544 3809 666 
z
" transform="scale(0.015625)"/>
       <path id="DejaVuSans-2d" d="M 313 2009 
L 1997 2009 
L 1997 1497 
L 313 1497 
L 313 2009 
z
" transform="scale(0.015625)"/>
      </defs>
      <use xlink:href="#DejaVuSans-56"/>
      <use xlink:href="#DejaVuSans-47" x="68.408203"/>
      <use xlink:href="#DejaVuSans-47" x="145.898438"/>
      <use xlink:href="#DejaVuSans-2d" x="223.388672"/>
      <use xlink:href="#DejaVuSans-31" x="259.472656"/>
      <use xlink:href="#DejaVuSans-36" x="323.095703"/>
      <use xlink:href="#DejaVuSans-20" x="386.71875"/>
      <use xlink:href="#DejaVuSans-28" x="418.505859"/>
      <use xlink:href="#DejaVuSans-30" x="457.519531"/>
      <use xlink:href="#DejaVuSans-2e" x="521.142578"/>
      <use xlink:href="#DejaVuSans-37" x="552.929688"/>
      <use xlink:href="#DejaVuSans-38" x="616.552734"/>
      <use xlink:href="#DejaVuSans-29" x="680.175781"/>
     </g>
    </g>
    <g id="line2d_29">
     <path d="M 274.339375 248.724062 
L 284.339375 248.724062 
L 294.339375 248.724062 
" style="fill: none; stroke: #800080; stroke-width: 2.5; stroke-linecap: square"/>
    </g>
    <g id="text_22">
     <!-- GoogleNet (0.76) -->
     <g transform="translate(302.339375 252.224062) scale(0.1 -0.1)">
      <use xlink:href="#DejaVuSans-47"/>
      <use xlink:href="#DejaVuSans-6f" x="77.490234"/>
      <use xlink:href="#DejaVuSans-6f" x="138.671875"/>
      <use xlink:href="#DejaVuSans-67" x="199.853516"/>
      <use xlink:href="#DejaVuSans-6c" x="263.330078"/>
      <use xlink:href="#DejaVuSans-65" x="291.113281"/>
      <use xlink:href="#DejaVuSans-4e" x="352.636719"/>
      <use xlink:href="#DejaVuSans-65" x="427.441406"/>
      <use xlink:href="#DejaVuSans-74" x="488.964844"/>
      <use xlink:href="#DejaVuSans-20" x="528.173828"/>
      <use xlink:href="#DejaVuSans-28" x="559.960938"/>
      <use xlink:href="#DejaVuSans-30" x="598.974609"/>
      <use xlink:href="#DejaVuSans-2e" x="662.597656"/>
      <use xlink:href="#DejaVuSans-37" x="694.384766"/>
      <use xlink:href="#DejaVuSans-36" x="758.007812"/>
      <use xlink:href="#DejaVuSans-29" x="821.630859"/>
     </g>
    </g>
    <g id="line2d_30">
     <path d="M 274.339375 263.402187 
L 284.339375 263.402187 
L 294.339375 263.402187 
" style="fill: none; stroke: #008000; stroke-width: 2.5; stroke-linecap: square"/>
    </g>
    <g id="text_23">
     <!-- Inception-V3 (0.69) -->
     <g transform="translate(302.339375 266.902187) scale(0.1 -0.1)">
      <defs>
       <path id="DejaVuSans-49" d="M 628 4666 
L 1259 4666 
L 1259 0 
L 628 0 
L 628 4666 
z
" transform="scale(0.015625)"/>
       <path id="DejaVuSans-70" d="M 1159 525 
L 1159 -1331 
L 581 -1331 
L 581 3500 
L 1159 3500 
L 1159 2969 
Q 1341 3281 1617 3432 
Q 1894 3584 2278 3584 
Q 2916 3584 3314 3078 
Q 3713 2572 3713 1747 
Q 3713 922 3314 415 
Q 2916 -91 2278 -91 
Q 1894 -91 1617 61 
Q 1341 213 1159 525 
z
M 3116 1747 
Q 3116 2381 2855 2742 
Q 2594 3103 2138 3103 
Q 1681 3103 1420 2742 
Q 1159 2381 1159 1747 
Q 1159 1113 1420 752 
Q 1681 391 2138 391 
Q 2594 391 2855 752 
Q 3116 1113 3116 1747 
z
" transform="scale(0.015625)"/>
       <path id="DejaVuSans-39" d="M 703 97 
L 703 672 
Q 941 559 1184 500 
Q 1428 441 1663 441 
Q 2288 441 2617 861 
Q 2947 1281 2994 2138 
Q 2813 1869 2534 1725 
Q 2256 1581 1919 1581 
Q 1219 1581 811 2004 
Q 403 2428 403 3163 
Q 403 3881 828 4315 
Q 1253 4750 1959 4750 
Q 2769 4750 3195 4129 
Q 3622 3509 3622 2328 
Q 3622 1225 3098 567 
Q 2575 -91 1691 -91 
Q 1453 -91 1209 -44 
Q 966 3 703 97 
z
M 1959 2075 
Q 2384 2075 2632 2365 
Q 2881 2656 2881 3163 
Q 2881 3666 2632 3958 
Q 2384 4250 1959 4250 
Q 1534 4250 1286 3958 
Q 1038 3666 1038 3163 
Q 1038 2656 1286 2365 
Q 1534 2075 1959 2075 
z
" transform="scale(0.015625)"/>
      </defs>
      <use xlink:href="#DejaVuSans-49"/>
      <use xlink:href="#DejaVuSans-6e" x="29.492188"/>
      <use xlink:href="#DejaVuSans-63" x="92.871094"/>
      <use xlink:href="#DejaVuSans-65" x="147.851562"/>
      <use xlink:href="#DejaVuSans-70" x="209.375"/>
      <use xlink:href="#DejaVuSans-74" x="272.851562"/>
      <use xlink:href="#DejaVuSans-69" x="312.060547"/>
      <use xlink:href="#DejaVuSans-6f" x="339.84375"/>
      <use xlink:href="#DejaVuSans-6e" x="401.025391"/>
      <use xlink:href="#DejaVuSans-2d" x="464.404297"/>
      <use xlink:href="#DejaVuSans-56" x="494.613281"/>
      <use xlink:href="#DejaVuSans-33" x="563.021484"/>
      <use xlink:href="#DejaVuSans-20" x="626.644531"/>
      <use xlink:href="#DejaVuSans-28" x="658.431641"/>
      <use xlink:href="#DejaVuSans-30" x="697.445312"/>
      <use xlink:href="#DejaVuSans-2e" x="761.068359"/>
      <use xlink:href="#DejaVuSans-36" x="792.855469"/>
      <use xlink:href="#DejaVuSans-39" x="856.478516"/>
      <use xlink:href="#DejaVuSans-29" x="920.101562"/>
     </g>
    </g>
    <g id="line2d_31">
     <path d="M 274.339375 278.080312 
L 284.339375 278.080312 
L 294.339375 278.080312 
" style="fill: none; stroke: #ffa500; stroke-width: 2.5; stroke-linecap: square"/>
    </g>
    <g id="text_24">
     <!-- ResNet-50 (0.71) -->
     <g transform="translate(302.339375 281.580312) scale(0.1 -0.1)">
      <defs>
       <path id="DejaVuSans-35" d="M 691 4666 
L 3169 4666 
L 3169 4134 
L 1269 4134 
L 1269 2991 
Q 1406 3038 1543 3061 
Q 1681 3084 1819 3084 
Q 2600 3084 3056 2656 
Q 3513 2228 3513 1497 
Q 3513 744 3044 326 
Q 2575 -91 1722 -91 
Q 1428 -91 1123 -41 
Q 819 9 494 109 
L 494 744 
Q 775 591 1075 516 
Q 1375 441 1709 441 
Q 2250 441 2565 725 
Q 2881 1009 2881 1497 
Q 2881 1984 2565 2268 
Q 2250 2553 1709 2553 
Q 1456 2553 1204 2497 
Q 953 2441 691 2322 
L 691 4666 
z
" transform="scale(0.015625)"/>
      </defs>
      <use xlink:href="#DejaVuSans-52"/>
      <use xlink:href="#DejaVuSans-65" x="64.982422"/>
      <use xlink:href="#DejaVuSans-73" x="126.505859"/>
      <use xlink:href="#DejaVuSans-4e" x="178.605469"/>
      <use xlink:href="#DejaVuSans-65" x="253.410156"/>
      <use xlink:href="#DejaVuSans-74" x="314.933594"/>
      <use xlink:href="#DejaVuSans-2d" x="354.142578"/>
      <use xlink:href="#DejaVuSans-35" x="390.226562"/>
      <use xlink:href="#DejaVuSans-30" x="453.849609"/>
      <use xlink:href="#DejaVuSans-20" x="517.472656"/>
      <use xlink:href="#DejaVuSans-28" x="549.259766"/>
      <use xlink:href="#DejaVuSans-30" x="588.273438"/>
      <use xlink:href="#DejaVuSans-2e" x="651.896484"/>
      <use xlink:href="#DejaVuSans-37" x="683.683594"/>
      <use xlink:href="#DejaVuSans-31" x="747.306641"/>
      <use xlink:href="#DejaVuSans-29" x="810.929688"/>
     </g>
    </g>
   </g>
  </g>
 </g>
 <defs>
  <clipPath id="pe1fe96a5cc">
   <rect x="58.97" y="34.56" width="381.535" height="258.1"/>
  </clipPath>
 </defs>
</svg>
