<?xml version="1.0" encoding="utf-8" standalone="no"?>
<!DOCTYPE svg PUBLIC "-//W3C//DTD SVG 1.1//EN"
  "http://www.w3.org/Graphics/SVG/1.1/DTD/svg11.dtd">
<svg xmlns:xlink="http://www.w3.org/1999/xlink" width="460.8pt" height="345.6pt" viewBox="0 0 460.8 345.6" xmlns="http://www.w3.org/2000/svg" version="1.1">
 <metadata>
  <rdf:RDF xmlns:dc="http://purl.org/dc/elements/1.1/" xmlns:cc="http://creativecommons.org/ns#" xmlns:rdf="http://www.w3.org/1999/02/22-rdf-syntax-ns#">
   <cc:Work>
    <dc:type rdf:resource="http://purl.org/dc/dcmitype/StillImage"/>
    <dc:date>2023-04-25T16:25:05.992854</dc:date>
    <dc:format>image/svg+xml</dc:format>
    <dc:creator>
     <cc:Agent>
      <dc:title>Matplotlib v3.7.0, https://matplotlib.org/</dc:title>
     </cc:Agent>
    </dc:creator>
   </cc:Work>
  </rdf:RDF>
 </metadata>
 <defs>
  <style type="text/css">*{stroke-linejoin: round; stroke-linecap: butt}</style>
 </defs>
 <g id="figure_1">
  <g id="patch_1">
   <path d="M 0 345.6 
L 460.8 345.6 
L 460.8 0 
L 0 0 
z
" style="fill: #ffffff"/>
  </g>
  <g id="axes_1">
   <g id="patch_2">
    <path d="M 58.97 292.66 
L 440.505 292.66 
L 440.505 34.56 
L 58.97 34.56 
z
" style="fill: #ffffff"/>
   </g>
   <g id="matplotlib.axis_1">
    <g id="xtick_1">
     <g id="line2d_1">
      <defs>
       <path id="m527962a959" d="M 0 0 
L 0 8 
" style="stroke: #000000"/>
      </defs>
      <g>
       <use xlink:href="#m527962a959" x="58.97" y="292.66" style="stroke: #000000"/>
      </g>
     </g>
     <g id="text_1">
      <!-- 0.0 -->
      <g transform="translate(49.428125 313.278125) scale(0.12 -0.12)">
       <defs>
        <path id="DejaVuSans-30" d="M 2034 4250 
Q 1547 4250 1301 3770 
Q 1056 3291 1056 2328 
Q 1056 1369 1301 889 
Q 1547 409 2034 409 
Q 2525 409 2770 889 
Q 3016 1369 3016 2328 
Q 3016 3291 2770 3770 
Q 2525 4250 2034 4250 
z
M 2034 4750 
Q 2819 4750 3233 4129 
Q 3647 3509 3647 2328 
Q 3647 1150 3233 529 
Q 2819 -91 2034 -91 
Q 1250 -91 836 529 
Q 422 1150 422 2328 
Q 422 3509 836 4129 
Q 1250 4750 2034 4750 
z
" transform="scale(0.015625)"/>
        <path id="DejaVuSans-2e" d="M 684 794 
L 1344 794 
L 1344 0 
L 684 0 
L 684 794 
z
" transform="scale(0.015625)"/>
       </defs>
       <use xlink:href="#DejaVuSans-30"/>
       <use xlink:href="#DejaVuSans-2e" x="63.623047"/>
       <use xlink:href="#DejaVuSans-30" x="95.410156"/>
      </g>
     </g>
    </g>
    <g id="xtick_2">
     <g id="line2d_2">
      <g>
       <use xlink:href="#m527962a959" x="135.277" y="292.66" style="stroke: #000000"/>
      </g>
     </g>
     <g id="text_2">
      <!-- 0.2 -->
      <g transform="translate(125.735125 313.278125) scale(0.12 -0.12)">
       <defs>
        <path id="DejaVuSans-32" d="M 1228 531 
L 3431 531 
L 3431 0 
L 469 0 
L 469 531 
Q 828 903 1448 1529 
Q 2069 2156 2228 2338 
Q 2531 2678 2651 2914 
Q 2772 3150 2772 3378 
Q 2772 3750 2511 3984 
Q 2250 4219 1831 4219 
Q 1534 4219 1204 4116 
Q 875 4013 500 3803 
L 500 4441 
Q 881 4594 1212 4672 
Q 1544 4750 1819 4750 
Q 2544 4750 2975 4387 
Q 3406 4025 3406 3419 
Q 3406 3131 3298 2873 
Q 3191 2616 2906 2266 
Q 2828 2175 2409 1742 
Q 1991 1309 1228 531 
z
" transform="scale(0.015625)"/>
       </defs>
       <use xlink:href="#DejaVuSans-30"/>
       <use xlink:href="#DejaVuSans-2e" x="63.623047"/>
       <use xlink:href="#DejaVuSans-32" x="95.410156"/>
      </g>
     </g>
    </g>
    <g id="xtick_3">
     <g id="line2d_3">
      <g>
       <use xlink:href="#m527962a959" x="211.584" y="292.66" style="stroke: #000000"/>
      </g>
     </g>
     <g id="text_3">
      <!-- 0.4 -->
      <g transform="translate(202.042125 313.278125) scale(0.12 -0.12)">
       <defs>
        <path id="DejaVuSans-34" d="M 2419 4116 
L 825 1625 
L 2419 1625 
L 2419 4116 
z
M 2253 4666 
L 3047 4666 
L 3047 1625 
L 3713 1625 
L 3713 1100 
L 3047 1100 
L 3047 0 
L 2419 0 
L 2419 1100 
L 313 1100 
L 313 1709 
L 2253 4666 
z
" transform="scale(0.015625)"/>
       </defs>
       <use xlink:href="#DejaVuSans-30"/>
       <use xlink:href="#DejaVuSans-2e" x="63.623047"/>
       <use xlink:href="#DejaVuSans-34" x="95.410156"/>
      </g>
     </g>
    </g>
    <g id="xtick_4">
     <g id="line2d_4">
      <g>
       <use xlink:href="#m527962a959" x="287.891" y="292.66" style="stroke: #000000"/>
      </g>
     </g>
     <g id="text_4">
      <!-- 0.6 -->
      <g transform="translate(278.349125 313.278125) scale(0.12 -0.12)">
       <defs>
        <path id="DejaVuSans-36" d="M 2113 2584 
Q 1688 2584 1439 2293 
Q 1191 2003 1191 1497 
Q 1191 994 1439 701 
Q 1688 409 2113 409 
Q 2538 409 2786 701 
Q 3034 994 3034 1497 
Q 3034 2003 2786 2293 
Q 2538 2584 2113 2584 
z
M 3366 4563 
L 3366 3988 
Q 3128 4100 2886 4159 
Q 2644 4219 2406 4219 
Q 1781 4219 1451 3797 
Q 1122 3375 1075 2522 
Q 1259 2794 1537 2939 
Q 1816 3084 2150 3084 
Q 2853 3084 3261 2657 
Q 3669 2231 3669 1497 
Q 3669 778 3244 343 
Q 2819 -91 2113 -91 
Q 1303 -91 875 529 
Q 447 1150 447 2328 
Q 447 3434 972 4092 
Q 1497 4750 2381 4750 
Q 2619 4750 2861 4703 
Q 3103 4656 3366 4563 
z
" transform="scale(0.015625)"/>
       </defs>
       <use xlink:href="#DejaVuSans-30"/>
       <use xlink:href="#DejaVuSans-2e" x="63.623047"/>
       <use xlink:href="#DejaVuSans-36" x="95.410156"/>
      </g>
     </g>
    </g>
    <g id="xtick_5">
     <g id="line2d_5">
      <g>
       <use xlink:href="#m527962a959" x="364.198" y="292.66" style="stroke: #000000"/>
      </g>
     </g>
     <g id="text_5">
      <!-- 0.8 -->
      <g transform="translate(354.656125 313.278125) scale(0.12 -0.12)">
       <defs>
        <path id="DejaVuSans-38" d="M 2034 2216 
Q 1584 2216 1326 1975 
Q 1069 1734 1069 1313 
Q 1069 891 1326 650 
Q 1584 409 2034 409 
Q 2484 409 2743 651 
Q 3003 894 3003 1313 
Q 3003 1734 2745 1975 
Q 2488 2216 2034 2216 
z
M 1403 2484 
Q 997 2584 770 2862 
Q 544 3141 544 3541 
Q 544 4100 942 4425 
Q 1341 4750 2034 4750 
Q 2731 4750 3128 4425 
Q 3525 4100 3525 3541 
Q 3525 3141 3298 2862 
Q 3072 2584 2669 2484 
Q 3125 2378 3379 2068 
Q 3634 1759 3634 1313 
Q 3634 634 3220 271 
Q 2806 -91 2034 -91 
Q 1263 -91 848 271 
Q 434 634 434 1313 
Q 434 1759 690 2068 
Q 947 2378 1403 2484 
z
M 1172 3481 
Q 1172 3119 1398 2916 
Q 1625 2713 2034 2713 
Q 2441 2713 2670 2916 
Q 2900 3119 2900 3481 
Q 2900 3844 2670 4047 
Q 2441 4250 2034 4250 
Q 1625 4250 1398 4047 
Q 1172 3844 1172 3481 
z
" transform="scale(0.015625)"/>
       </defs>
       <use xlink:href="#DejaVuSans-30"/>
       <use xlink:href="#DejaVuSans-2e" x="63.623047"/>
       <use xlink:href="#DejaVuSans-38" x="95.410156"/>
      </g>
     </g>
    </g>
    <g id="xtick_6">
     <g id="line2d_6">
      <g>
       <use xlink:href="#m527962a959" x="440.505" y="292.66" style="stroke: #000000"/>
      </g>
     </g>
     <g id="text_6">
      <!-- 1.0 -->
      <g transform="translate(430.963125 313.278125) scale(0.12 -0.12)">
       <defs>
        <path id="DejaVuSans-31" d="M 794 531 
L 1825 531 
L 1825 4091 
L 703 3866 
L 703 4441 
L 1819 4666 
L 2450 4666 
L 2450 531 
L 3481 531 
L 3481 0 
L 794 0 
L 794 531 
z
" transform="scale(0.015625)"/>
       </defs>
       <use xlink:href="#DejaVuSans-31"/>
       <use xlink:href="#DejaVuSans-2e" x="63.623047"/>
       <use xlink:href="#DejaVuSans-30" x="95.410156"/>
      </g>
     </g>
    </g>
    <g id="text_7">
     <!-- False Positive Rate  -->
     <g transform="translate(182.459844 330.411562) scale(0.14 -0.14)">
      <defs>
       <path id="DejaVuSans-46" d="M 628 4666 
L 3309 4666 
L 3309 4134 
L 1259 4134 
L 1259 2759 
L 3109 2759 
L 3109 2228 
L 1259 2228 
L 1259 0 
L 628 0 
L 628 4666 
z
" transform="scale(0.015625)"/>
       <path id="DejaVuSans-61" d="M 2194 1759 
Q 1497 1759 1228 1600 
Q 959 1441 959 1056 
Q 959 750 1161 570 
Q 1363 391 1709 391 
Q 2188 391 2477 730 
Q 2766 1069 2766 1631 
L 2766 1759 
L 2194 1759 
z
M 3341 1997 
L 3341 0 
L 2766 0 
L 2766 531 
Q 2569 213 2275 61 
Q 1981 -91 1556 -91 
Q 1019 -91 701 211 
Q 384 513 384 1019 
Q 384 1609 779 1909 
Q 1175 2209 1959 2209 
L 2766 2209 
L 2766 2266 
Q 2766 2663 2505 2880 
Q 2244 3097 1772 3097 
Q 1472 3097 1187 3025 
Q 903 2953 641 2809 
L 641 3341 
Q 956 3463 1253 3523 
Q 1550 3584 1831 3584 
Q 2591 3584 2966 3190 
Q 3341 2797 3341 1997 
z
" transform="scale(0.015625)"/>
       <path id="DejaVuSans-6c" d="M 603 4863 
L 1178 4863 
L 1178 0 
L 603 0 
L 603 4863 
z
" transform="scale(0.015625)"/>
       <path id="DejaVuSans-73" d="M 2834 3397 
L 2834 2853 
Q 2591 2978 2328 3040 
Q 2066 3103 1784 3103 
Q 1356 3103 1142 2972 
Q 928 2841 928 2578 
Q 928 2378 1081 2264 
Q 1234 2150 1697 2047 
L 1894 2003 
Q 2506 1872 2764 1633 
Q 3022 1394 3022 966 
Q 3022 478 2636 193 
Q 2250 -91 1575 -91 
Q 1294 -91 989 -36 
Q 684 19 347 128 
L 347 722 
Q 666 556 975 473 
Q 1284 391 1588 391 
Q 1994 391 2212 530 
Q 2431 669 2431 922 
Q 2431 1156 2273 1281 
Q 2116 1406 1581 1522 
L 1381 1569 
Q 847 1681 609 1914 
Q 372 2147 372 2553 
Q 372 3047 722 3315 
Q 1072 3584 1716 3584 
Q 2034 3584 2315 3537 
Q 2597 3491 2834 3397 
z
" transform="scale(0.015625)"/>
       <path id="DejaVuSans-65" d="M 3597 1894 
L 3597 1613 
L 953 1613 
Q 991 1019 1311 708 
Q 1631 397 2203 397 
Q 2534 397 2845 478 
Q 3156 559 3463 722 
L 3463 178 
Q 3153 47 2828 -22 
Q 2503 -91 2169 -91 
Q 1331 -91 842 396 
Q 353 884 353 1716 
Q 353 2575 817 3079 
Q 1281 3584 2069 3584 
Q 2775 3584 3186 3129 
Q 3597 2675 3597 1894 
z
M 3022 2063 
Q 3016 2534 2758 2815 
Q 2500 3097 2075 3097 
Q 1594 3097 1305 2825 
Q 1016 2553 972 2059 
L 3022 2063 
z
" transform="scale(0.015625)"/>
       <path id="DejaVuSans-20" transform="scale(0.015625)"/>
       <path id="DejaVuSans-50" d="M 1259 4147 
L 1259 2394 
L 2053 2394 
Q 2494 2394 2734 2622 
Q 2975 2850 2975 3272 
Q 2975 3691 2734 3919 
Q 2494 4147 2053 4147 
L 1259 4147 
z
M 628 4666 
L 2053 4666 
Q 2838 4666 3239 4311 
Q 3641 3956 3641 3272 
Q 3641 2581 3239 2228 
Q 2838 1875 2053 1875 
L 1259 1875 
L 1259 0 
L 628 0 
L 628 4666 
z
" transform="scale(0.015625)"/>
       <path id="DejaVuSans-6f" d="M 1959 3097 
Q 1497 3097 1228 2736 
Q 959 2375 959 1747 
Q 959 1119 1226 758 
Q 1494 397 1959 397 
Q 2419 397 2687 759 
Q 2956 1122 2956 1747 
Q 2956 2369 2687 2733 
Q 2419 3097 1959 3097 
z
M 1959 3584 
Q 2709 3584 3137 3096 
Q 3566 2609 3566 1747 
Q 3566 888 3137 398 
Q 2709 -91 1959 -91 
Q 1206 -91 779 398 
Q 353 888 353 1747 
Q 353 2609 779 3096 
Q 1206 3584 1959 3584 
z
" transform="scale(0.015625)"/>
       <path id="DejaVuSans-69" d="M 603 3500 
L 1178 3500 
L 1178 0 
L 603 0 
L 603 3500 
z
M 603 4863 
L 1178 4863 
L 1178 4134 
L 603 4134 
L 603 4863 
z
" transform="scale(0.015625)"/>
       <path id="DejaVuSans-74" d="M 1172 4494 
L 1172 3500 
L 2356 3500 
L 2356 3053 
L 1172 3053 
L 1172 1153 
Q 1172 725 1289 603 
Q 1406 481 1766 481 
L 2356 481 
L 2356 0 
L 1766 0 
Q 1100 0 847 248 
Q 594 497 594 1153 
L 594 3053 
L 172 3053 
L 172 3500 
L 594 3500 
L 594 4494 
L 1172 4494 
z
" transform="scale(0.015625)"/>
       <path id="DejaVuSans-76" d="M 191 3500 
L 800 3500 
L 1894 563 
L 2988 3500 
L 3597 3500 
L 2284 0 
L 1503 0 
L 191 3500 
z
" transform="scale(0.015625)"/>
       <path id="DejaVuSans-52" d="M 2841 2188 
Q 3044 2119 3236 1894 
Q 3428 1669 3622 1275 
L 4263 0 
L 3584 0 
L 2988 1197 
Q 2756 1666 2539 1819 
Q 2322 1972 1947 1972 
L 1259 1972 
L 1259 0 
L 628 0 
L 628 4666 
L 2053 4666 
Q 2853 4666 3247 4331 
Q 3641 3997 3641 3322 
Q 3641 2881 3436 2590 
Q 3231 2300 2841 2188 
z
M 1259 4147 
L 1259 2491 
L 2053 2491 
Q 2509 2491 2742 2702 
Q 2975 2913 2975 3322 
Q 2975 3731 2742 3939 
Q 2509 4147 2053 4147 
L 1259 4147 
z
" transform="scale(0.015625)"/>
      </defs>
      <use xlink:href="#DejaVuSans-46"/>
      <use xlink:href="#DejaVuSans-61" x="48.394531"/>
      <use xlink:href="#DejaVuSans-6c" x="109.673828"/>
      <use xlink:href="#DejaVuSans-73" x="137.457031"/>
      <use xlink:href="#DejaVuSans-65" x="189.556641"/>
      <use xlink:href="#DejaVuSans-20" x="251.080078"/>
      <use xlink:href="#DejaVuSans-50" x="282.867188"/>
      <use xlink:href="#DejaVuSans-6f" x="339.544922"/>
      <use xlink:href="#DejaVuSans-73" x="400.726562"/>
      <use xlink:href="#DejaVuSans-69" x="452.826172"/>
      <use xlink:href="#DejaVuSans-74" x="480.609375"/>
      <use xlink:href="#DejaVuSans-69" x="519.818359"/>
      <use xlink:href="#DejaVuSans-76" x="547.601562"/>
      <use xlink:href="#DejaVuSans-65" x="606.78125"/>
      <use xlink:href="#DejaVuSans-20" x="668.304688"/>
      <use xlink:href="#DejaVuSans-52" x="700.091797"/>
      <use xlink:href="#DejaVuSans-61" x="767.324219"/>
      <use xlink:href="#DejaVuSans-74" x="828.603516"/>
      <use xlink:href="#DejaVuSans-65" x="867.8125"/>
      <use xlink:href="#DejaVuSans-20" x="929.335938"/>
     </g>
    </g>
   </g>
   <g id="matplotlib.axis_2">
    <g id="ytick_1">
     <g id="line2d_7">
      <defs>
       <path id="mda35b7460c" d="M 0 0 
L -8 0 
" style="stroke: #000000"/>
      </defs>
      <g>
       <use xlink:href="#mda35b7460c" x="58.97" y="292.66" style="stroke: #000000"/>
      </g>
     </g>
     <g id="text_8">
      <!-- 0.0 -->
      <g transform="translate(28.38625 297.219062) scale(0.12 -0.12)">
       <use xlink:href="#DejaVuSans-30"/>
       <use xlink:href="#DejaVuSans-2e" x="63.623047"/>
       <use xlink:href="#DejaVuSans-30" x="95.410156"/>
      </g>
     </g>
    </g>
    <g id="ytick_2">
     <g id="line2d_8">
      <g>
       <use xlink:href="#mda35b7460c" x="58.97" y="241.04" style="stroke: #000000"/>
      </g>
     </g>
     <g id="text_9">
      <!-- 0.2 -->
      <g transform="translate(28.38625 245.599062) scale(0.12 -0.12)">
       <use xlink:href="#DejaVuSans-30"/>
       <use xlink:href="#DejaVuSans-2e" x="63.623047"/>
       <use xlink:href="#DejaVuSans-32" x="95.410156"/>
      </g>
     </g>
    </g>
    <g id="ytick_3">
     <g id="line2d_9">
      <g>
       <use xlink:href="#mda35b7460c" x="58.97" y="189.42" style="stroke: #000000"/>
      </g>
     </g>
     <g id="text_10">
      <!-- 0.4 -->
      <g transform="translate(28.38625 193.979062) scale(0.12 -0.12)">
       <use xlink:href="#DejaVuSans-30"/>
       <use xlink:href="#DejaVuSans-2e" x="63.623047"/>
       <use xlink:href="#DejaVuSans-34" x="95.410156"/>
      </g>
     </g>
    </g>
    <g id="ytick_4">
     <g id="line2d_10">
      <g>
       <use xlink:href="#mda35b7460c" x="58.97" y="137.8" style="stroke: #000000"/>
      </g>
     </g>
     <g id="text_11">
      <!-- 0.6 -->
      <g transform="translate(28.38625 142.359062) scale(0.12 -0.12)">
       <use xlink:href="#DejaVuSans-30"/>
       <use xlink:href="#DejaVuSans-2e" x="63.623047"/>
       <use xlink:href="#DejaVuSans-36" x="95.410156"/>
      </g>
     </g>
    </g>
    <g id="ytick_5">
     <g id="line2d_11">
      <g>
       <use xlink:href="#mda35b7460c" x="58.97" y="86.18" style="stroke: #000000"/>
      </g>
     </g>
     <g id="text_12">
      <!-- 0.8 -->
      <g transform="translate(28.38625 90.739063) scale(0.12 -0.12)">
       <use xlink:href="#DejaVuSans-30"/>
       <use xlink:href="#DejaVuSans-2e" x="63.623047"/>
       <use xlink:href="#DejaVuSans-38" x="95.410156"/>
      </g>
     </g>
    </g>
    <g id="ytick_6">
     <g id="line2d_12">
      <g>
       <use xlink:href="#mda35b7460c" x="58.97" y="34.56" style="stroke: #000000"/>
      </g>
     </g>
     <g id="text_13">
      <!-- 1.0 -->
      <g transform="translate(28.38625 39.119062) scale(0.12 -0.12)">
       <use xlink:href="#DejaVuSans-31"/>
       <use xlink:href="#DejaVuSans-2e" x="63.623047"/>
       <use xlink:href="#DejaVuSans-30" x="95.410156"/>
      </g>
     </g>
    </g>
    <g id="text_14">
     <!-- True Positive Rate -->
     <g transform="translate(21.474688 225.951562) rotate(-90) scale(0.14 -0.14)">
      <defs>
       <path id="DejaVuSans-54" d="M -19 4666 
L 3928 4666 
L 3928 4134 
L 2272 4134 
L 2272 0 
L 1638 0 
L 1638 4134 
L -19 4134 
L -19 4666 
z
" transform="scale(0.015625)"/>
       <path id="DejaVuSans-72" d="M 2631 2963 
Q 2534 3019 2420 3045 
Q 2306 3072 2169 3072 
Q 1681 3072 1420 2755 
Q 1159 2438 1159 1844 
L 1159 0 
L 581 0 
L 581 3500 
L 1159 3500 
L 1159 2956 
Q 1341 3275 1631 3429 
Q 1922 3584 2338 3584 
Q 2397 3584 2469 3576 
Q 2541 3569 2628 3553 
L 2631 2963 
z
" transform="scale(0.015625)"/>
       <path id="DejaVuSans-75" d="M 544 1381 
L 544 3500 
L 1119 3500 
L 1119 1403 
Q 1119 906 1312 657 
Q 1506 409 1894 409 
Q 2359 409 2629 706 
Q 2900 1003 2900 1516 
L 2900 3500 
L 3475 3500 
L 3475 0 
L 2900 0 
L 2900 538 
Q 2691 219 2414 64 
Q 2138 -91 1772 -91 
Q 1169 -91 856 284 
Q 544 659 544 1381 
z
M 1991 3584 
L 1991 3584 
z
" transform="scale(0.015625)"/>
      </defs>
      <use xlink:href="#DejaVuSans-54"/>
      <use xlink:href="#DejaVuSans-72" x="46.333984"/>
      <use xlink:href="#DejaVuSans-75" x="87.447266"/>
      <use xlink:href="#DejaVuSans-65" x="150.826172"/>
      <use xlink:href="#DejaVuSans-20" x="212.349609"/>
      <use xlink:href="#DejaVuSans-50" x="244.136719"/>
      <use xlink:href="#DejaVuSans-6f" x="300.814453"/>
      <use xlink:href="#DejaVuSans-73" x="361.996094"/>
      <use xlink:href="#DejaVuSans-69" x="414.095703"/>
      <use xlink:href="#DejaVuSans-74" x="441.878906"/>
      <use xlink:href="#DejaVuSans-69" x="481.087891"/>
      <use xlink:href="#DejaVuSans-76" x="508.871094"/>
      <use xlink:href="#DejaVuSans-65" x="568.050781"/>
      <use xlink:href="#DejaVuSans-20" x="629.574219"/>
      <use xlink:href="#DejaVuSans-52" x="661.361328"/>
      <use xlink:href="#DejaVuSans-61" x="728.59375"/>
      <use xlink:href="#DejaVuSans-74" x="789.873047"/>
      <use xlink:href="#DejaVuSans-65" x="829.082031"/>
     </g>
    </g>
   </g>
   <g id="line2d_13">
    <path d="M 58.97 292.66 
L 66.756429 265.497873 
L 74.542857 265.497873 
L 82.329286 259.132916 
L 90.115714 233.620214 
L 97.902143 233.620214 
L 105.688571 229.076296 
L 113.475 216.054675 
L 121.261429 214.792853 
L 129.047857 207.199279 
L 136.834286 195.981838 
L 144.620714 195.187684 
L 152.407143 180.174867 
L 160.193571 180.174867 
L 167.98 160.150688 
L 175.766429 153.569138 
L 183.552857 144.23238 
L 191.339286 138.886023 
L 199.125714 131.438624 
L 206.912143 122.714277 
L 214.698571 114.14167 
L 222.485 105.187701 
L 230.271429 98.272223 
L 238.057857 93.437181 
L 245.844286 92.218376 
L 253.630714 86.08693 
L 261.417143 81.114354 
L 269.203571 75.98765 
L 276.99 70.239767 
L 284.776429 67.529717 
L 292.562857 64.303467 
L 300.349286 62.877771 
L 308.135714 60.851982 
L 315.922143 56.544801 
L 323.708571 54.824134 
L 331.495 54.250579 
L 339.281429 50.811924 
L 347.067857 50.811924 
L 354.854286 46.556293 
L 362.640714 45.762139 
L 370.427143 43.81205 
L 378.213571 43.1668 
L 386 40.307846 
L 393.786429 39.160735 
L 401.572857 39.160735 
L 409.359286 39.160735 
L 417.145714 39.160735 
L 424.932143 38.515485 
L 432.718571 38.515485 
L 440.505 34.56 
" clip-path="url(#p4cbfbaa78f)" style="fill: none; stroke: #000000; stroke-width: 2.5; stroke-linecap: square"/>
   </g>
   <g id="line2d_14">
    <path d="M 58.97 292.66 
L 66.756429 272.820342 
L 74.542857 272.820342 
L 82.329286 271.733605 
L 90.115714 256.654571 
L 97.902143 256.654571 
L 105.688571 245.723055 
L 113.475 225.336937 
L 121.261429 220.439655 
L 129.047857 215.793855 
L 136.834286 203.392607 
L 144.620714 202.819051 
L 152.407143 195.592251 
L 160.193571 193.994489 
L 167.98 182.706948 
L 175.766429 177.720033 
L 183.552857 166.972484 
L 191.339286 157.180284 
L 199.125714 143.73923 
L 206.912143 134.676051 
L 214.698571 120.289891 
L 222.485 110.241639 
L 230.271429 103.69988 
L 238.057857 99.346215 
L 245.844286 95.821867 
L 253.630714 86.979704 
L 261.417143 83.828167 
L 269.203571 76.857261 
L 276.99 72.486579 
L 284.776429 71.913023 
L 292.562857 69.332023 
L 300.349286 64.859847 
L 308.135714 58.952225 
L 315.922143 53.554657 
L 323.708571 52.760503 
L 331.495 51.673767 
L 339.281429 49.695 
L 347.067857 49.695 
L 354.854286 47.889809 
L 362.640714 44.924968 
L 370.427143 43.591452 
L 378.213571 42.372646 
L 386 40.996113 
L 393.786429 40.422557 
L 401.572857 39.08904 
L 409.359286 39.08904 
L 417.145714 37.778056 
L 424.932143 37.778056 
L 432.718571 37.778056 
L 440.505 34.56 
" clip-path="url(#p4cbfbaa78f)" style="fill: none; stroke: #00ffff; stroke-width: 2.5; stroke-linecap: square"/>
   </g>
   <g id="line2d_15">
    <path d="M 58.97 292.66 
L 66.756429 257.512918 
L 74.542857 257.512918 
L 82.329286 250.545728 
L 90.115714 225.556001 
L 97.902143 225.556001 
L 105.688571 220.221934 
L 113.475 208.499916 
L 121.261429 206.44394 
L 129.047857 199.949933 
L 136.834286 189.015506 
L 144.620714 186.242585 
L 152.407143 170.472826 
L 160.193571 169.258238 
L 167.98 152.306677 
L 175.766429 146.642816 
L 183.552857 141.890499 
L 191.339286 137.650284 
L 199.125714 132.286553 
L 206.912143 123.004074 
L 214.698571 115.67895 
L 222.485 107.383061 
L 230.271429 99.505338 
L 238.057857 91.897376 
L 245.844286 89.345054 
L 253.630714 86.729018 
L 261.417143 80.837244 
L 269.203571 70.743138 
L 276.99 63.236244 
L 284.776429 61.945744 
L 292.562857 58.217632 
L 300.349286 56.68605 
L 308.135714 53.322739 
L 315.922143 52.677489 
L 323.708571 51.989222 
L 331.495 50.842111 
L 339.281429 50.047957 
L 347.067857 50.047957 
L 354.854286 46.866233 
L 362.640714 46.220983 
L 370.427143 43.697339 
L 378.213571 43.052089 
L 386 40.881402 
L 393.786429 39.160735 
L 401.572857 38.515485 
L 409.359286 38.515485 
L 417.145714 37.778056 
L 424.932143 37.778056 
L 432.718571 37.778056 
L 440.505 34.56 
" clip-path="url(#p4cbfbaa78f)" style="fill: none; stroke: #a52a2a; stroke-width: 2.5; stroke-linecap: square"/>
   </g>
   <g id="line2d_16">
    <path d="M 58.97 292.66 
L 66.756429 268.979319 
L 74.542857 268.979319 
L 82.329286 254.138569 
L 90.115714 223.635461 
L 97.902143 223.635461 
L 105.688571 221.040122 
L 113.475 194.91209 
L 121.261429 193.323782 
L 129.047857 187.259941 
L 136.834286 170.233164 
L 144.620714 167.480097 
L 152.407143 161.984297 
L 160.193571 153.832542 
L 167.98 144.163088 
L 175.766429 136.881952 
L 183.552857 128.468629 
L 191.339286 121.045182 
L 199.125714 112.650662 
L 206.912143 111.856508 
L 214.698571 107.855958 
L 222.485 98.167688 
L 230.271429 94.06456 
L 238.057857 88.888693 
L 245.844286 85.249634 
L 253.630714 82.094235 
L 261.417143 74.42293 
L 269.203571 66.217619 
L 276.99 61.750781 
L 284.776429 60.633857 
L 292.562857 54.826607 
L 300.349286 48.632207 
L 308.135714 47.515283 
L 315.922143 45.536517 
L 323.708571 42.792274 
L 331.495 41.530452 
L 339.281429 40.091048 
L 347.067857 38.6896 
L 354.854286 35.248267 
L 362.640714 35.248267 
L 370.427143 35.248267 
L 378.213571 35.248267 
L 386 34.56 
L 393.786429 34.56 
L 401.572857 34.56 
L 409.359286 34.56 
L 417.145714 34.56 
L 424.932143 34.56 
L 432.718571 34.56 
L 440.505 34.56 
" clip-path="url(#p4cbfbaa78f)" style="fill: none; stroke: #00ff00; stroke-width: 2.5; stroke-linecap: square"/>
   </g>
   <g id="line2d_17">
    <path d="M 58.97 292.66 
L 66.756429 215.594587 
L 74.542857 215.594587 
L 82.329286 209.443204 
L 90.115714 187.584731 
L 97.902143 187.584731 
L 105.688571 182.67102 
L 113.475 165.509103 
L 121.261429 158.873507 
L 129.047857 154.088846 
L 136.834286 138.400174 
L 144.620714 133.983796 
L 152.407143 127.60299 
L 160.193571 124.360195 
L 167.98 117.893357 
L 175.766429 114.080722 
L 183.552857 106.631395 
L 191.339286 101.909804 
L 199.125714 92.117156 
L 206.912143 84.112552 
L 214.698571 77.752073 
L 222.485 73.903736 
L 230.271429 72.502288 
L 238.057857 68.390336 
L 245.844286 63.213997 
L 253.630714 59.349115 
L 261.417143 58.087293 
L 269.203571 54.803687 
L 276.99 54.009533 
L 284.776429 51.058741 
L 292.562857 48.974087 
L 300.349286 48.28582 
L 308.135714 46.123957 
L 315.922143 44.79044 
L 323.708571 41.906572 
L 331.495 39.397266 
L 339.281429 38.106766 
L 347.067857 37.499472 
L 354.854286 35.778806 
L 362.640714 35.778806 
L 370.427143 35.778806 
L 378.213571 35.20525 
L 386 35.20525 
L 393.786429 35.20525 
L 401.572857 35.20525 
L 409.359286 35.20525 
L 417.145714 35.20525 
L 424.932143 35.20525 
L 432.718571 35.20525 
L 440.505 34.56 
" clip-path="url(#p4cbfbaa78f)" style="fill: none; stroke: #0000ff; stroke-width: 2.5; stroke-linecap: square"/>
   </g>
   <g id="line2d_18">
    <path d="M 58.97 292.66 
L 66.756429 234.265423 
L 74.542857 234.265423 
L 82.329286 224.376117 
L 90.115714 198.113733 
L 97.902143 198.113733 
L 105.688571 196.966622 
L 113.475 181.294689 
L 121.261429 179.574023 
L 129.047857 174.282973 
L 136.834286 161.068412 
L 144.620714 155.456392 
L 152.407143 142.946379 
L 160.193571 135.50925 
L 167.98 127.258244 
L 175.766429 123.386744 
L 183.552857 121.838144 
L 191.339286 117.99737 
L 199.125714 113.337231 
L 206.912143 106.375149 
L 214.698571 103.751132 
L 222.485 91.319316 
L 230.271429 90.581887 
L 238.057857 82.288494 
L 245.844286 78.06305 
L 253.630714 76.155978 
L 261.417143 73.060287 
L 269.203571 69.905732 
L 276.99 66.204547 
L 284.776429 57.400469 
L 292.562857 54.72729 
L 300.349286 52.178731 
L 308.135714 50.739327 
L 315.922143 50.094077 
L 323.708571 48.11025 
L 331.495 46.160161 
L 339.281429 41.643411 
L 347.067857 41.643411 
L 354.854286 38.445839 
L 362.640714 38.445839 
L 370.427143 37.155339 
L 378.213571 35.133556 
L 386 35.133556 
L 393.786429 35.133556 
L 401.572857 34.56 
L 409.359286 34.56 
L 417.145714 34.56 
L 424.932143 34.56 
L 432.718571 34.56 
L 440.505 34.56 
" clip-path="url(#p4cbfbaa78f)" style="fill: none; stroke: #ff0000; stroke-width: 2.5; stroke-linecap: square"/>
   </g>
   <g id="line2d_19">
    <path d="M 58.97 292.66 
L 66.756429 258.911686 
L 74.542857 258.911686 
L 82.329286 245.043716 
L 90.115714 226.355222 
L 97.902143 226.355222 
L 105.688571 217.923955 
L 113.475 194.906693 
L 121.261429 188.03285 
L 129.047857 186.0971 
L 136.834286 173.17296 
L 144.620714 165.954984 
L 152.407143 160.69714 
L 160.193571 158.369179 
L 167.98 153.336229 
L 175.766429 148.507042 
L 183.552857 143.675939 
L 191.339286 135.820277 
L 199.125714 132.324607 
L 206.912143 127.12694 
L 214.698571 119.807961 
L 222.485 113.914678 
L 230.271429 109.688923 
L 238.057857 104.86759 
L 245.844286 95.348077 
L 253.630714 88.17296 
L 261.417143 86.194194 
L 269.203571 78.422988 
L 276.99 74.452219 
L 284.776429 71.198801 
L 292.562857 63.030992 
L 300.349286 60.688238 
L 308.135714 57.591038 
L 315.922143 54.350449 
L 323.708571 51.638017 
L 331.495 49.730944 
L 339.281429 48.291541 
L 347.067857 47.684247 
L 354.854286 45.233806 
L 362.640714 45.233806 
L 370.427143 43.056973 
L 378.213571 42.411723 
L 386 41.723457 
L 393.786429 39.546624 
L 401.572857 38.858358 
L 409.359286 38.858358 
L 417.145714 38.170091 
L 424.932143 36.836574 
L 432.718571 36.836574 
L 440.505 34.56 
" clip-path="url(#p4cbfbaa78f)" style="fill: none; stroke: #800080; stroke-width: 2.5; stroke-linecap: square"/>
   </g>
   <g id="line2d_20">
    <path d="M 58.97 292.66 
L 66.756429 268.882449 
L 74.542857 268.882449 
L 82.329286 262.063175 
L 90.115714 235.685292 
L 97.902143 235.685292 
L 105.688571 229.09695 
L 113.475 221.611716 
L 121.261429 219.229255 
L 129.047857 215.959988 
L 136.834286 204.657561 
L 144.620714 203.324044 
L 152.407143 194.641295 
L 160.193571 190.954152 
L 167.98 181.306759 
L 175.766429 177.994475 
L 183.552857 171.489977 
L 191.339286 169.419032 
L 199.125714 162.745934 
L 206.912143 154.040087 
L 214.698571 146.647208 
L 222.485 145.958941 
L 230.271429 140.837122 
L 238.057857 132.633859 
L 245.844286 127.659774 
L 253.630714 122.830878 
L 261.417143 114.313578 
L 269.203571 104.602683 
L 276.99 101.175809 
L 284.776429 99.311754 
L 292.562857 94.149754 
L 300.349286 90.840779 
L 308.135714 88.576744 
L 315.922143 85.811387 
L 323.708571 83.721673 
L 331.495 80.366373 
L 339.281429 67.550085 
L 347.067857 67.550085 
L 354.854286 65.201526 
L 362.640714 63.719105 
L 370.427143 60.171254 
L 378.213571 59.526004 
L 386 57.355317 
L 393.786429 52.944927 
L 401.572857 51.756308 
L 409.359286 51.756308 
L 417.145714 46.571618 
L 424.932143 46.02825 
L 432.718571 46.02825 
L 440.505 34.56 
" clip-path="url(#p4cbfbaa78f)" style="fill: none; stroke: #008000; stroke-width: 2.5; stroke-linecap: square"/>
   </g>
   <g id="line2d_21">
    <path d="M 58.97 292.66 
L 66.756429 246.280118 
L 74.542857 246.280118 
L 82.329286 242.279568 
L 90.115714 221.646741 
L 97.902143 221.646741 
L 105.688571 213.447915 
L 113.475 194.39041 
L 121.261429 191.425569 
L 129.047857 190.193934 
L 136.834286 184.723375 
L 144.620714 181.907437 
L 152.407143 173.533352 
L 160.193571 172.739198 
L 167.98 159.747377 
L 175.766429 155.904555 
L 183.552857 150.792644 
L 191.339286 145.538465 
L 199.125714 142.471452 
L 206.912143 136.627451 
L 214.698571 131.316547 
L 222.485 125.32771 
L 230.271429 121.900836 
L 238.057857 117.928964 
L 245.844286 114.904968 
L 253.630714 111.644979 
L 261.417143 103.932166 
L 269.203571 98.910089 
L 276.99 95.601114 
L 284.776429 94.955864 
L 292.562857 88.83111 
L 300.349286 86.448649 
L 308.135714 83.675728 
L 315.922143 83.675728 
L 323.708571 82.087421 
L 331.495 79.565286 
L 339.281429 76.123952 
L 347.067857 75.386524 
L 354.854286 65.793807 
L 362.640714 62.986694 
L 370.427143 58.559286 
L 378.213571 57.412175 
L 386 54.562045 
L 393.786429 50.363429 
L 401.572857 48.601255 
L 409.359286 48.601255 
L 417.145714 47.233546 
L 424.932143 44.107668 
L 432.718571 44.107668 
L 440.505 34.56 
" clip-path="url(#p4cbfbaa78f)" style="fill: none; stroke: #ffa500; stroke-width: 2.5; stroke-linecap: square"/>
   </g>
   <g id="line2d_22">
    <path d="M 58.97 292.66 
L 440.505 34.56 
" clip-path="url(#p4cbfbaa78f)" style="fill: none; stroke-dasharray: 9.25,4; stroke-dashoffset: 0; stroke: #808080; stroke-width: 2.5"/>
   </g>
   <g id="patch_3">
    <path d="M 58.97 292.66 
L 58.97 34.56 
" style="fill: none; stroke: #000000; stroke-width: 0.8; stroke-linejoin: miter; stroke-linecap: square"/>
   </g>
   <g id="patch_4">
    <path d="M 440.505 292.66 
L 440.505 34.56 
" style="fill: none; stroke: #000000; stroke-width: 0.8; stroke-linejoin: miter; stroke-linecap: square"/>
   </g>
   <g id="patch_5">
    <path d="M 58.97 292.66 
L 440.505 292.66 
" style="fill: none; stroke: #000000; stroke-width: 0.8; stroke-linejoin: miter; stroke-linecap: square"/>
   </g>
   <g id="patch_6">
    <path d="M 58.97 34.56 
L 440.505 34.56 
" style="fill: none; stroke: #000000; stroke-width: 0.8; stroke-linejoin: miter; stroke-linecap: square"/>
   </g>
   <g id="text_15">
    <!-- Prevalent Parkinson's ROC Curve -->
    <g transform="translate(134.714375 28.56) scale(0.14 -0.14)">
     <defs>
      <path id="DejaVuSans-6e" d="M 3513 2113 
L 3513 0 
L 2938 0 
L 2938 2094 
Q 2938 2591 2744 2837 
Q 2550 3084 2163 3084 
Q 1697 3084 1428 2787 
Q 1159 2491 1159 1978 
L 1159 0 
L 581 0 
L 581 3500 
L 1159 3500 
L 1159 2956 
Q 1366 3272 1645 3428 
Q 1925 3584 2291 3584 
Q 2894 3584 3203 3211 
Q 3513 2838 3513 2113 
z
" transform="scale(0.015625)"/>
      <path id="DejaVuSans-6b" d="M 581 4863 
L 1159 4863 
L 1159 1991 
L 2875 3500 
L 3609 3500 
L 1753 1863 
L 3688 0 
L 2938 0 
L 1159 1709 
L 1159 0 
L 581 0 
L 581 4863 
z
" transform="scale(0.015625)"/>
      <path id="DejaVuSans-27" d="M 1147 4666 
L 1147 2931 
L 616 2931 
L 616 4666 
L 1147 4666 
z
" transform="scale(0.015625)"/>
      <path id="DejaVuSans-4f" d="M 2522 4238 
Q 1834 4238 1429 3725 
Q 1025 3213 1025 2328 
Q 1025 1447 1429 934 
Q 1834 422 2522 422 
Q 3209 422 3611 934 
Q 4013 1447 4013 2328 
Q 4013 3213 3611 3725 
Q 3209 4238 2522 4238 
z
M 2522 4750 
Q 3503 4750 4090 4092 
Q 4678 3434 4678 2328 
Q 4678 1225 4090 567 
Q 3503 -91 2522 -91 
Q 1538 -91 948 565 
Q 359 1222 359 2328 
Q 359 3434 948 4092 
Q 1538 4750 2522 4750 
z
" transform="scale(0.015625)"/>
      <path id="DejaVuSans-43" d="M 4122 4306 
L 4122 3641 
Q 3803 3938 3442 4084 
Q 3081 4231 2675 4231 
Q 1875 4231 1450 3742 
Q 1025 3253 1025 2328 
Q 1025 1406 1450 917 
Q 1875 428 2675 428 
Q 3081 428 3442 575 
Q 3803 722 4122 1019 
L 4122 359 
Q 3791 134 3420 21 
Q 3050 -91 2638 -91 
Q 1578 -91 968 557 
Q 359 1206 359 2328 
Q 359 3453 968 4101 
Q 1578 4750 2638 4750 
Q 3056 4750 3426 4639 
Q 3797 4528 4122 4306 
z
" transform="scale(0.015625)"/>
     </defs>
     <use xlink:href="#DejaVuSans-50"/>
     <use xlink:href="#DejaVuSans-72" x="58.552734"/>
     <use xlink:href="#DejaVuSans-65" x="97.416016"/>
     <use xlink:href="#DejaVuSans-76" x="158.939453"/>
     <use xlink:href="#DejaVuSans-61" x="218.119141"/>
     <use xlink:href="#DejaVuSans-6c" x="279.398438"/>
     <use xlink:href="#DejaVuSans-65" x="307.181641"/>
     <use xlink:href="#DejaVuSans-6e" x="368.705078"/>
     <use xlink:href="#DejaVuSans-74" x="432.083984"/>
     <use xlink:href="#DejaVuSans-20" x="471.292969"/>
     <use xlink:href="#DejaVuSans-50" x="503.080078"/>
     <use xlink:href="#DejaVuSans-61" x="558.882812"/>
     <use xlink:href="#DejaVuSans-72" x="620.162109"/>
     <use xlink:href="#DejaVuSans-6b" x="661.275391"/>
     <use xlink:href="#DejaVuSans-69" x="719.185547"/>
     <use xlink:href="#DejaVuSans-6e" x="746.96875"/>
     <use xlink:href="#DejaVuSans-73" x="810.347656"/>
     <use xlink:href="#DejaVuSans-6f" x="862.447266"/>
     <use xlink:href="#DejaVuSans-6e" x="923.628906"/>
     <use xlink:href="#DejaVuSans-27" x="987.007812"/>
     <use xlink:href="#DejaVuSans-73" x="1014.498047"/>
     <use xlink:href="#DejaVuSans-20" x="1066.597656"/>
     <use xlink:href="#DejaVuSans-52" x="1098.384766"/>
     <use xlink:href="#DejaVuSans-4f" x="1167.867188"/>
     <use xlink:href="#DejaVuSans-43" x="1246.578125"/>
     <use xlink:href="#DejaVuSans-20" x="1316.402344"/>
     <use xlink:href="#DejaVuSans-43" x="1348.189453"/>
     <use xlink:href="#DejaVuSans-75" x="1418.013672"/>
     <use xlink:href="#DejaVuSans-72" x="1481.392578"/>
     <use xlink:href="#DejaVuSans-76" x="1522.505859"/>
     <use xlink:href="#DejaVuSans-65" x="1581.685547"/>
    </g>
   </g>
   <g id="legend_1">
    <g id="patch_7">
     <path d="M 272.339375 287.66 
L 433.505 287.66 
Q 435.505 287.66 435.505 285.66 
L 435.505 154.556875 
Q 435.505 152.556875 433.505 152.556875 
L 272.339375 152.556875 
Q 270.339375 152.556875 270.339375 154.556875 
L 270.339375 285.66 
Q 270.339375 287.66 272.339375 287.66 
z
" style="fill: #ffffff; opacity: 0.8; stroke: #cccccc; stroke-linejoin: miter"/>
    </g>
    <g id="line2d_23">
     <path d="M 274.339375 160.655312 
L 284.339375 160.655312 
L 294.339375 160.655312 
" style="fill: none; stroke: #000000; stroke-width: 2.5; stroke-linecap: square"/>
    </g>
    <g id="text_16">
     <!-- Logistic Regression (0.69) -->
     <g transform="translate(302.339375 164.155312) scale(0.1 -0.1)">
      <defs>
       <path id="DejaVuSans-4c" d="M 628 4666 
L 1259 4666 
L 1259 531 
L 3531 531 
L 3531 0 
L 628 0 
L 628 4666 
z
" transform="scale(0.015625)"/>
       <path id="DejaVuSans-67" d="M 2906 1791 
Q 2906 2416 2648 2759 
Q 2391 3103 1925 3103 
Q 1463 3103 1205 2759 
Q 947 2416 947 1791 
Q 947 1169 1205 825 
Q 1463 481 1925 481 
Q 2391 481 2648 825 
Q 2906 1169 2906 1791 
z
M 3481 434 
Q 3481 -459 3084 -895 
Q 2688 -1331 1869 -1331 
Q 1566 -1331 1297 -1286 
Q 1028 -1241 775 -1147 
L 775 -588 
Q 1028 -725 1275 -790 
Q 1522 -856 1778 -856 
Q 2344 -856 2625 -561 
Q 2906 -266 2906 331 
L 2906 616 
Q 2728 306 2450 153 
Q 2172 0 1784 0 
Q 1141 0 747 490 
Q 353 981 353 1791 
Q 353 2603 747 3093 
Q 1141 3584 1784 3584 
Q 2172 3584 2450 3431 
Q 2728 3278 2906 2969 
L 2906 3500 
L 3481 3500 
L 3481 434 
z
" transform="scale(0.015625)"/>
       <path id="DejaVuSans-63" d="M 3122 3366 
L 3122 2828 
Q 2878 2963 2633 3030 
Q 2388 3097 2138 3097 
Q 1578 3097 1268 2742 
Q 959 2388 959 1747 
Q 959 1106 1268 751 
Q 1578 397 2138 397 
Q 2388 397 2633 464 
Q 2878 531 3122 666 
L 3122 134 
Q 2881 22 2623 -34 
Q 2366 -91 2075 -91 
Q 1284 -91 818 406 
Q 353 903 353 1747 
Q 353 2603 823 3093 
Q 1294 3584 2113 3584 
Q 2378 3584 2631 3529 
Q 2884 3475 3122 3366 
z
" transform="scale(0.015625)"/>
       <path id="DejaVuSans-28" d="M 1984 4856 
Q 1566 4138 1362 3434 
Q 1159 2731 1159 2009 
Q 1159 1288 1364 580 
Q 1569 -128 1984 -844 
L 1484 -844 
Q 1016 -109 783 600 
Q 550 1309 550 2009 
Q 550 2706 781 3412 
Q 1013 4119 1484 4856 
L 1984 4856 
z
" transform="scale(0.015625)"/>
       <path id="DejaVuSans-39" d="M 703 97 
L 703 672 
Q 941 559 1184 500 
Q 1428 441 1663 441 
Q 2288 441 2617 861 
Q 2947 1281 2994 2138 
Q 2813 1869 2534 1725 
Q 2256 1581 1919 1581 
Q 1219 1581 811 2004 
Q 403 2428 403 3163 
Q 403 3881 828 4315 
Q 1253 4750 1959 4750 
Q 2769 4750 3195 4129 
Q 3622 3509 3622 2328 
Q 3622 1225 3098 567 
Q 2575 -91 1691 -91 
Q 1453 -91 1209 -44 
Q 966 3 703 97 
z
M 1959 2075 
Q 2384 2075 2632 2365 
Q 2881 2656 2881 3163 
Q 2881 3666 2632 3958 
Q 2384 4250 1959 4250 
Q 1534 4250 1286 3958 
Q 1038 3666 1038 3163 
Q 1038 2656 1286 2365 
Q 1534 2075 1959 2075 
z
" transform="scale(0.015625)"/>
       <path id="DejaVuSans-29" d="M 513 4856 
L 1013 4856 
Q 1481 4119 1714 3412 
Q 1947 2706 1947 2009 
Q 1947 1309 1714 600 
Q 1481 -109 1013 -844 
L 513 -844 
Q 928 -128 1133 580 
Q 1338 1288 1338 2009 
Q 1338 2731 1133 3434 
Q 928 4138 513 4856 
z
" transform="scale(0.015625)"/>
      </defs>
      <use xlink:href="#DejaVuSans-4c"/>
      <use xlink:href="#DejaVuSans-6f" x="53.962891"/>
      <use xlink:href="#DejaVuSans-67" x="115.144531"/>
      <use xlink:href="#DejaVuSans-69" x="178.621094"/>
      <use xlink:href="#DejaVuSans-73" x="206.404297"/>
      <use xlink:href="#DejaVuSans-74" x="258.503906"/>
      <use xlink:href="#DejaVuSans-69" x="297.712891"/>
      <use xlink:href="#DejaVuSans-63" x="325.496094"/>
      <use xlink:href="#DejaVuSans-20" x="380.476562"/>
      <use xlink:href="#DejaVuSans-52" x="412.263672"/>
      <use xlink:href="#DejaVuSans-65" x="477.246094"/>
      <use xlink:href="#DejaVuSans-67" x="538.769531"/>
      <use xlink:href="#DejaVuSans-72" x="602.246094"/>
      <use xlink:href="#DejaVuSans-65" x="641.109375"/>
      <use xlink:href="#DejaVuSans-73" x="702.632812"/>
      <use xlink:href="#DejaVuSans-73" x="754.732422"/>
      <use xlink:href="#DejaVuSans-69" x="806.832031"/>
      <use xlink:href="#DejaVuSans-6f" x="834.615234"/>
      <use xlink:href="#DejaVuSans-6e" x="895.796875"/>
      <use xlink:href="#DejaVuSans-20" x="959.175781"/>
      <use xlink:href="#DejaVuSans-28" x="990.962891"/>
      <use xlink:href="#DejaVuSans-30" x="1029.976562"/>
      <use xlink:href="#DejaVuSans-2e" x="1093.599609"/>
      <use xlink:href="#DejaVuSans-36" x="1125.386719"/>
      <use xlink:href="#DejaVuSans-39" x="1189.009766"/>
      <use xlink:href="#DejaVuSans-29" x="1252.632812"/>
     </g>
    </g>
    <g id="line2d_24">
     <path d="M 274.339375 175.333438 
L 284.339375 175.333438 
L 294.339375 175.333438 
" style="fill: none; stroke: #00ffff; stroke-width: 2.5; stroke-linecap: square"/>
    </g>
    <g id="text_17">
     <!-- Elastic Net (0.66) -->
     <g transform="translate(302.339375 178.833438) scale(0.1 -0.1)">
      <defs>
       <path id="DejaVuSans-45" d="M 628 4666 
L 3578 4666 
L 3578 4134 
L 1259 4134 
L 1259 2753 
L 3481 2753 
L 3481 2222 
L 1259 2222 
L 1259 531 
L 3634 531 
L 3634 0 
L 628 0 
L 628 4666 
z
" transform="scale(0.015625)"/>
       <path id="DejaVuSans-4e" d="M 628 4666 
L 1478 4666 
L 3547 763 
L 3547 4666 
L 4159 4666 
L 4159 0 
L 3309 0 
L 1241 3903 
L 1241 0 
L 628 0 
L 628 4666 
z
" transform="scale(0.015625)"/>
      </defs>
      <use xlink:href="#DejaVuSans-45"/>
      <use xlink:href="#DejaVuSans-6c" x="63.183594"/>
      <use xlink:href="#DejaVuSans-61" x="90.966797"/>
      <use xlink:href="#DejaVuSans-73" x="152.246094"/>
      <use xlink:href="#DejaVuSans-74" x="204.345703"/>
      <use xlink:href="#DejaVuSans-69" x="243.554688"/>
      <use xlink:href="#DejaVuSans-63" x="271.337891"/>
      <use xlink:href="#DejaVuSans-20" x="326.318359"/>
      <use xlink:href="#DejaVuSans-4e" x="358.105469"/>
      <use xlink:href="#DejaVuSans-65" x="432.910156"/>
      <use xlink:href="#DejaVuSans-74" x="494.433594"/>
      <use xlink:href="#DejaVuSans-20" x="533.642578"/>
      <use xlink:href="#DejaVuSans-28" x="565.429688"/>
      <use xlink:href="#DejaVuSans-30" x="604.443359"/>
      <use xlink:href="#DejaVuSans-2e" x="668.066406"/>
      <use xlink:href="#DejaVuSans-36" x="699.853516"/>
      <use xlink:href="#DejaVuSans-36" x="763.476562"/>
      <use xlink:href="#DejaVuSans-29" x="827.099609"/>
     </g>
    </g>
    <g id="line2d_25">
     <path d="M 274.339375 190.011562 
L 284.339375 190.011562 
L 294.339375 190.011562 
" style="fill: none; stroke: #a52a2a; stroke-width: 2.5; stroke-linecap: square"/>
    </g>
    <g id="text_18">
     <!-- Linear SVM (0.70) -->
     <g transform="translate(302.339375 193.511562) scale(0.1 -0.1)">
      <defs>
       <path id="DejaVuSans-53" d="M 3425 4513 
L 3425 3897 
Q 3066 4069 2747 4153 
Q 2428 4238 2131 4238 
Q 1616 4238 1336 4038 
Q 1056 3838 1056 3469 
Q 1056 3159 1242 3001 
Q 1428 2844 1947 2747 
L 2328 2669 
Q 3034 2534 3370 2195 
Q 3706 1856 3706 1288 
Q 3706 609 3251 259 
Q 2797 -91 1919 -91 
Q 1588 -91 1214 -16 
Q 841 59 441 206 
L 441 856 
Q 825 641 1194 531 
Q 1563 422 1919 422 
Q 2459 422 2753 634 
Q 3047 847 3047 1241 
Q 3047 1584 2836 1778 
Q 2625 1972 2144 2069 
L 1759 2144 
Q 1053 2284 737 2584 
Q 422 2884 422 3419 
Q 422 4038 858 4394 
Q 1294 4750 2059 4750 
Q 2388 4750 2728 4690 
Q 3069 4631 3425 4513 
z
" transform="scale(0.015625)"/>
       <path id="DejaVuSans-56" d="M 1831 0 
L 50 4666 
L 709 4666 
L 2188 738 
L 3669 4666 
L 4325 4666 
L 2547 0 
L 1831 0 
z
" transform="scale(0.015625)"/>
       <path id="DejaVuSans-4d" d="M 628 4666 
L 1569 4666 
L 2759 1491 
L 3956 4666 
L 4897 4666 
L 4897 0 
L 4281 0 
L 4281 4097 
L 3078 897 
L 2444 897 
L 1241 4097 
L 1241 0 
L 628 0 
L 628 4666 
z
" transform="scale(0.015625)"/>
       <path id="DejaVuSans-37" d="M 525 4666 
L 3525 4666 
L 3525 4397 
L 1831 0 
L 1172 0 
L 2766 4134 
L 525 4134 
L 525 4666 
z
" transform="scale(0.015625)"/>
      </defs>
      <use xlink:href="#DejaVuSans-4c"/>
      <use xlink:href="#DejaVuSans-69" x="55.712891"/>
      <use xlink:href="#DejaVuSans-6e" x="83.496094"/>
      <use xlink:href="#DejaVuSans-65" x="146.875"/>
      <use xlink:href="#DejaVuSans-61" x="208.398438"/>
      <use xlink:href="#DejaVuSans-72" x="269.677734"/>
      <use xlink:href="#DejaVuSans-20" x="310.791016"/>
      <use xlink:href="#DejaVuSans-53" x="342.578125"/>
      <use xlink:href="#DejaVuSans-56" x="406.054688"/>
      <use xlink:href="#DejaVuSans-4d" x="474.462891"/>
      <use xlink:href="#DejaVuSans-20" x="560.742188"/>
      <use xlink:href="#DejaVuSans-28" x="592.529297"/>
      <use xlink:href="#DejaVuSans-30" x="631.542969"/>
      <use xlink:href="#DejaVuSans-2e" x="695.166016"/>
      <use xlink:href="#DejaVuSans-37" x="726.953125"/>
      <use xlink:href="#DejaVuSans-30" x="790.576172"/>
      <use xlink:href="#DejaVuSans-29" x="854.199219"/>
     </g>
    </g>
    <g id="line2d_26">
     <path d="M 274.339375 204.689687 
L 284.339375 204.689687 
L 294.339375 204.689687 
" style="fill: none; stroke: #00ff00; stroke-width: 2.5; stroke-linecap: square"/>
    </g>
    <g id="text_19">
     <!-- RBF SVM (0.73) -->
     <g transform="translate(302.339375 208.189687) scale(0.1 -0.1)">
      <defs>
       <path id="DejaVuSans-42" d="M 1259 2228 
L 1259 519 
L 2272 519 
Q 2781 519 3026 730 
Q 3272 941 3272 1375 
Q 3272 1813 3026 2020 
Q 2781 2228 2272 2228 
L 1259 2228 
z
M 1259 4147 
L 1259 2741 
L 2194 2741 
Q 2656 2741 2882 2914 
Q 3109 3088 3109 3444 
Q 3109 3797 2882 3972 
Q 2656 4147 2194 4147 
L 1259 4147 
z
M 628 4666 
L 2241 4666 
Q 2963 4666 3353 4366 
Q 3744 4066 3744 3513 
Q 3744 3084 3544 2831 
Q 3344 2578 2956 2516 
Q 3422 2416 3680 2098 
Q 3938 1781 3938 1306 
Q 3938 681 3513 340 
Q 3088 0 2303 0 
L 628 0 
L 628 4666 
z
" transform="scale(0.015625)"/>
       <path id="DejaVuSans-33" d="M 2597 2516 
Q 3050 2419 3304 2112 
Q 3559 1806 3559 1356 
Q 3559 666 3084 287 
Q 2609 -91 1734 -91 
Q 1441 -91 1130 -33 
Q 819 25 488 141 
L 488 750 
Q 750 597 1062 519 
Q 1375 441 1716 441 
Q 2309 441 2620 675 
Q 2931 909 2931 1356 
Q 2931 1769 2642 2001 
Q 2353 2234 1838 2234 
L 1294 2234 
L 1294 2753 
L 1863 2753 
Q 2328 2753 2575 2939 
Q 2822 3125 2822 3475 
Q 2822 3834 2567 4026 
Q 2313 4219 1838 4219 
Q 1578 4219 1281 4162 
Q 984 4106 628 3988 
L 628 4550 
Q 988 4650 1302 4700 
Q 1616 4750 1894 4750 
Q 2613 4750 3031 4423 
Q 3450 4097 3450 3541 
Q 3450 3153 3228 2886 
Q 3006 2619 2597 2516 
z
" transform="scale(0.015625)"/>
      </defs>
      <use xlink:href="#DejaVuSans-52"/>
      <use xlink:href="#DejaVuSans-42" x="69.482422"/>
      <use xlink:href="#DejaVuSans-46" x="138.085938"/>
      <use xlink:href="#DejaVuSans-20" x="195.605469"/>
      <use xlink:href="#DejaVuSans-53" x="227.392578"/>
      <use xlink:href="#DejaVuSans-56" x="290.869141"/>
      <use xlink:href="#DejaVuSans-4d" x="359.277344"/>
      <use xlink:href="#DejaVuSans-20" x="445.556641"/>
      <use xlink:href="#DejaVuSans-28" x="477.34375"/>
      <use xlink:href="#DejaVuSans-30" x="516.357422"/>
      <use xlink:href="#DejaVuSans-2e" x="579.980469"/>
      <use xlink:href="#DejaVuSans-37" x="611.767578"/>
      <use xlink:href="#DejaVuSans-33" x="675.390625"/>
      <use xlink:href="#DejaVuSans-29" x="739.013672"/>
     </g>
    </g>
    <g id="line2d_27">
     <path d="M 274.339375 219.367812 
L 284.339375 219.367812 
L 294.339375 219.367812 
" style="fill: none; stroke: #0000ff; stroke-width: 2.5; stroke-linecap: square"/>
    </g>
    <g id="text_20">
     <!-- AlexNet (0.79) -->
     <g transform="translate(302.339375 222.867812) scale(0.1 -0.1)">
      <defs>
       <path id="DejaVuSans-41" d="M 2188 4044 
L 1331 1722 
L 3047 1722 
L 2188 4044 
z
M 1831 4666 
L 2547 4666 
L 4325 0 
L 3669 0 
L 3244 1197 
L 1141 1197 
L 716 0 
L 50 0 
L 1831 4666 
z
" transform="scale(0.015625)"/>
       <path id="DejaVuSans-78" d="M 3513 3500 
L 2247 1797 
L 3578 0 
L 2900 0 
L 1881 1375 
L 863 0 
L 184 0 
L 1544 1831 
L 300 3500 
L 978 3500 
L 1906 2253 
L 2834 3500 
L 3513 3500 
z
" transform="scale(0.015625)"/>
      </defs>
      <use xlink:href="#DejaVuSans-41"/>
      <use xlink:href="#DejaVuSans-6c" x="68.408203"/>
      <use xlink:href="#DejaVuSans-65" x="96.191406"/>
      <use xlink:href="#DejaVuSans-78" x="155.964844"/>
      <use xlink:href="#DejaVuSans-4e" x="215.144531"/>
      <use xlink:href="#DejaVuSans-65" x="289.949219"/>
      <use xlink:href="#DejaVuSans-74" x="351.472656"/>
      <use xlink:href="#DejaVuSans-20" x="390.681641"/>
      <use xlink:href="#DejaVuSans-28" x="422.46875"/>
      <use xlink:href="#DejaVuSans-30" x="461.482422"/>
      <use xlink:href="#DejaVuSans-2e" x="525.105469"/>
      <use xlink:href="#DejaVuSans-37" x="556.892578"/>
      <use xlink:href="#DejaVuSans-39" x="620.515625"/>
      <use xlink:href="#DejaVuSans-29" x="684.138672"/>
     </g>
    </g>
    <g id="line2d_28">
     <path d="M 274.339375 234.045937 
L 284.339375 234.045937 
L 294.339375 234.045937 
" style="fill: none; stroke: #ff0000; stroke-width: 2.5; stroke-linecap: square"/>
    </g>
    <g id="text_21">
     <!-- VGG-16 (0.75) -->
     <g transform="translate(302.339375 237.545937) scale(0.1 -0.1)">
      <defs>
       <path id="DejaVuSans-47" d="M 3809 666 
L 3809 1919 
L 2778 1919 
L 2778 2438 
L 4434 2438 
L 4434 434 
Q 4069 175 3628 42 
Q 3188 -91 2688 -91 
Q 1594 -91 976 548 
Q 359 1188 359 2328 
Q 359 3472 976 4111 
Q 1594 4750 2688 4750 
Q 3144 4750 3555 4637 
Q 3966 4525 4313 4306 
L 4313 3634 
Q 3963 3931 3569 4081 
Q 3175 4231 2741 4231 
Q 1884 4231 1454 3753 
Q 1025 3275 1025 2328 
Q 1025 1384 1454 906 
Q 1884 428 2741 428 
Q 3075 428 3337 486 
Q 3600 544 3809 666 
z
" transform="scale(0.015625)"/>
       <path id="DejaVuSans-2d" d="M 313 2009 
L 1997 2009 
L 1997 1497 
L 313 1497 
L 313 2009 
z
" transform="scale(0.015625)"/>
       <path id="DejaVuSans-35" d="M 691 4666 
L 3169 4666 
L 3169 4134 
L 1269 4134 
L 1269 2991 
Q 1406 3038 1543 3061 
Q 1681 3084 1819 3084 
Q 2600 3084 3056 2656 
Q 3513 2228 3513 1497 
Q 3513 744 3044 326 
Q 2575 -91 1722 -91 
Q 1428 -91 1123 -41 
Q 819 9 494 109 
L 494 744 
Q 775 591 1075 516 
Q 1375 441 1709 441 
Q 2250 441 2565 725 
Q 2881 1009 2881 1497 
Q 2881 1984 2565 2268 
Q 2250 2553 1709 2553 
Q 1456 2553 1204 2497 
Q 953 2441 691 2322 
L 691 4666 
z
" transform="scale(0.015625)"/>
      </defs>
      <use xlink:href="#DejaVuSans-56"/>
      <use xlink:href="#DejaVuSans-47" x="68.408203"/>
      <use xlink:href="#DejaVuSans-47" x="145.898438"/>
      <use xlink:href="#DejaVuSans-2d" x="223.388672"/>
      <use xlink:href="#DejaVuSans-31" x="259.472656"/>
      <use xlink:href="#DejaVuSans-36" x="323.095703"/>
      <use xlink:href="#DejaVuSans-20" x="386.71875"/>
      <use xlink:href="#DejaVuSans-28" x="418.505859"/>
      <use xlink:href="#DejaVuSans-30" x="457.519531"/>
      <use xlink:href="#DejaVuSans-2e" x="521.142578"/>
      <use xlink:href="#DejaVuSans-37" x="552.929688"/>
      <use xlink:href="#DejaVuSans-35" x="616.552734"/>
      <use xlink:href="#DejaVuSans-29" x="680.175781"/>
     </g>
    </g>
    <g id="line2d_29">
     <path d="M 274.339375 248.724062 
L 284.339375 248.724062 
L 294.339375 248.724062 
" style="fill: none; stroke: #800080; stroke-width: 2.5; stroke-linecap: square"/>
    </g>
    <g id="text_22">
     <!-- GoogleNet (0.70) -->
     <g transform="translate(302.339375 252.224062) scale(0.1 -0.1)">
      <use xlink:href="#DejaVuSans-47"/>
      <use xlink:href="#DejaVuSans-6f" x="77.490234"/>
      <use xlink:href="#DejaVuSans-6f" x="138.671875"/>
      <use xlink:href="#DejaVuSans-67" x="199.853516"/>
      <use xlink:href="#DejaVuSans-6c" x="263.330078"/>
      <use xlink:href="#DejaVuSans-65" x="291.113281"/>
      <use xlink:href="#DejaVuSans-4e" x="352.636719"/>
      <use xlink:href="#DejaVuSans-65" x="427.441406"/>
      <use xlink:href="#DejaVuSans-74" x="488.964844"/>
      <use xlink:href="#DejaVuSans-20" x="528.173828"/>
      <use xlink:href="#DejaVuSans-28" x="559.960938"/>
      <use xlink:href="#DejaVuSans-30" x="598.974609"/>
      <use xlink:href="#DejaVuSans-2e" x="662.597656"/>
      <use xlink:href="#DejaVuSans-37" x="694.384766"/>
      <use xlink:href="#DejaVuSans-30" x="758.007812"/>
      <use xlink:href="#DejaVuSans-29" x="821.630859"/>
     </g>
    </g>
    <g id="line2d_30">
     <path d="M 274.339375 263.402187 
L 284.339375 263.402187 
L 294.339375 263.402187 
" style="fill: none; stroke: #008000; stroke-width: 2.5; stroke-linecap: square"/>
    </g>
    <g id="text_23">
     <!-- Inception-V3 (0.61) -->
     <g transform="translate(302.339375 266.902187) scale(0.1 -0.1)">
      <defs>
       <path id="DejaVuSans-49" d="M 628 4666 
L 1259 4666 
L 1259 0 
L 628 0 
L 628 4666 
z
" transform="scale(0.015625)"/>
       <path id="DejaVuSans-70" d="M 1159 525 
L 1159 -1331 
L 581 -1331 
L 581 3500 
L 1159 3500 
L 1159 2969 
Q 1341 3281 1617 3432 
Q 1894 3584 2278 3584 
Q 2916 3584 3314 3078 
Q 3713 2572 3713 1747 
Q 3713 922 3314 415 
Q 2916 -91 2278 -91 
Q 1894 -91 1617 61 
Q 1341 213 1159 525 
z
M 3116 1747 
Q 3116 2381 2855 2742 
Q 2594 3103 2138 3103 
Q 1681 3103 1420 2742 
Q 1159 2381 1159 1747 
Q 1159 1113 1420 752 
Q 1681 391 2138 391 
Q 2594 391 2855 752 
Q 3116 1113 3116 1747 
z
" transform="scale(0.015625)"/>
      </defs>
      <use xlink:href="#DejaVuSans-49"/>
      <use xlink:href="#DejaVuSans-6e" x="29.492188"/>
      <use xlink:href="#DejaVuSans-63" x="92.871094"/>
      <use xlink:href="#DejaVuSans-65" x="147.851562"/>
      <use xlink:href="#DejaVuSans-70" x="209.375"/>
      <use xlink:href="#DejaVuSans-74" x="272.851562"/>
      <use xlink:href="#DejaVuSans-69" x="312.060547"/>
      <use xlink:href="#DejaVuSans-6f" x="339.84375"/>
      <use xlink:href="#DejaVuSans-6e" x="401.025391"/>
      <use xlink:href="#DejaVuSans-2d" x="464.404297"/>
      <use xlink:href="#DejaVuSans-56" x="494.613281"/>
      <use xlink:href="#DejaVuSans-33" x="563.021484"/>
      <use xlink:href="#DejaVuSans-20" x="626.644531"/>
      <use xlink:href="#DejaVuSans-28" x="658.431641"/>
      <use xlink:href="#DejaVuSans-30" x="697.445312"/>
      <use xlink:href="#DejaVuSans-2e" x="761.068359"/>
      <use xlink:href="#DejaVuSans-36" x="792.855469"/>
      <use xlink:href="#DejaVuSans-31" x="856.478516"/>
      <use xlink:href="#DejaVuSans-29" x="920.101562"/>
     </g>
    </g>
    <g id="line2d_31">
     <path d="M 274.339375 278.080312 
L 284.339375 278.080312 
L 294.339375 278.080312 
" style="fill: none; stroke: #ffa500; stroke-width: 2.5; stroke-linecap: square"/>
    </g>
    <g id="text_24">
     <!-- ResNet-50 (0.65) -->
     <g transform="translate(302.339375 281.580312) scale(0.1 -0.1)">
      <use xlink:href="#DejaVuSans-52"/>
      <use xlink:href="#DejaVuSans-65" x="64.982422"/>
      <use xlink:href="#DejaVuSans-73" x="126.505859"/>
      <use xlink:href="#DejaVuSans-4e" x="178.605469"/>
      <use xlink:href="#DejaVuSans-65" x="253.410156"/>
      <use xlink:href="#DejaVuSans-74" x="314.933594"/>
      <use xlink:href="#DejaVuSans-2d" x="354.142578"/>
      <use xlink:href="#DejaVuSans-35" x="390.226562"/>
      <use xlink:href="#DejaVuSans-30" x="453.849609"/>
      <use xlink:href="#DejaVuSans-20" x="517.472656"/>
      <use xlink:href="#DejaVuSans-28" x="549.259766"/>
      <use xlink:href="#DejaVuSans-30" x="588.273438"/>
      <use xlink:href="#DejaVuSans-2e" x="651.896484"/>
      <use xlink:href="#DejaVuSans-36" x="683.683594"/>
      <use xlink:href="#DejaVuSans-35" x="747.306641"/>
      <use xlink:href="#DejaVuSans-29" x="810.929688"/>
     </g>
    </g>
   </g>
  </g>
 </g>
 <defs>
  <clipPath id="p4cbfbaa78f">
   <rect x="58.97" y="34.56" width="381.535" height="258.1"/>
  </clipPath>
 </defs>
</svg>
